G04 EAGLE Gerber RS-274X export*
G75*
%MOMM*%
%FSLAX34Y34*%
%LPD*%
%INBottom Copper*%
%IPPOS*%
%AMOC8*
5,1,8,0,0,1.08239X$1,22.5*%
G01*
%ADD10C,1.524000*%
%ADD11P,1.924489X8X202.500000*%
%ADD12P,2.089446X8X22.500000*%
%ADD13C,0.304800*%
%ADD14C,0.812800*%

G36*
X908430Y62499D02*
X908430Y62499D01*
X908556Y62506D01*
X908602Y62519D01*
X908650Y62525D01*
X908769Y62567D01*
X908891Y62602D01*
X908933Y62626D01*
X908978Y62642D01*
X909085Y62711D01*
X909195Y62772D01*
X909241Y62812D01*
X909271Y62831D01*
X909305Y62866D01*
X909381Y62931D01*
X991677Y145227D01*
X991746Y145313D01*
X991769Y145337D01*
X991774Y145347D01*
X991840Y145420D01*
X991864Y145462D01*
X991894Y145500D01*
X991948Y145614D01*
X992009Y145725D01*
X992022Y145771D01*
X992043Y145815D01*
X992069Y145938D01*
X992104Y146060D01*
X992109Y146121D01*
X992116Y146156D01*
X992115Y146204D01*
X992123Y146304D01*
X992123Y883920D01*
X992109Y884046D01*
X992102Y884172D01*
X992089Y884218D01*
X992083Y884266D01*
X992041Y884385D01*
X992006Y884507D01*
X991982Y884549D01*
X991966Y884594D01*
X991897Y884701D01*
X991836Y884811D01*
X991796Y884857D01*
X991777Y884887D01*
X991742Y884921D01*
X991677Y884997D01*
X921573Y955101D01*
X921476Y955178D01*
X921385Y955261D01*
X921340Y955286D01*
X921300Y955318D01*
X921188Y955371D01*
X921080Y955431D01*
X921031Y955445D01*
X920985Y955467D01*
X920864Y955493D01*
X920745Y955527D01*
X920681Y955532D01*
X920644Y955540D01*
X920597Y955539D01*
X920502Y955547D01*
X100590Y958595D01*
X100461Y958581D01*
X100332Y958574D01*
X100289Y958562D01*
X100243Y958557D01*
X100121Y958514D01*
X99997Y958478D01*
X99958Y958456D01*
X99915Y958440D01*
X99806Y958371D01*
X99693Y958308D01*
X99650Y958271D01*
X99621Y958252D01*
X99587Y958217D01*
X99507Y958149D01*
X29849Y888491D01*
X21336Y888491D01*
X21310Y888488D01*
X21284Y888490D01*
X21137Y888468D01*
X20990Y888451D01*
X20965Y888443D01*
X20939Y888439D01*
X20801Y888384D01*
X20662Y888334D01*
X20640Y888320D01*
X20615Y888310D01*
X20494Y888225D01*
X20369Y888145D01*
X20351Y888126D01*
X20329Y888111D01*
X20230Y888001D01*
X20127Y887894D01*
X20113Y887872D01*
X20096Y887852D01*
X20024Y887722D01*
X19948Y887595D01*
X19940Y887570D01*
X19927Y887547D01*
X19887Y887404D01*
X19842Y887263D01*
X19840Y887237D01*
X19832Y887212D01*
X19813Y886968D01*
X19813Y164592D01*
X19827Y164466D01*
X19834Y164340D01*
X19847Y164294D01*
X19853Y164246D01*
X19895Y164127D01*
X19930Y164005D01*
X19954Y163963D01*
X19970Y163918D01*
X20039Y163811D01*
X20100Y163701D01*
X20140Y163655D01*
X20159Y163625D01*
X20194Y163591D01*
X20259Y163515D01*
X120843Y62931D01*
X120942Y62852D01*
X121036Y62768D01*
X121078Y62744D01*
X121116Y62714D01*
X121230Y62660D01*
X121341Y62599D01*
X121387Y62586D01*
X121431Y62565D01*
X121554Y62539D01*
X121676Y62504D01*
X121737Y62500D01*
X121772Y62492D01*
X121820Y62493D01*
X121920Y62485D01*
X908304Y62485D01*
X908430Y62499D01*
G37*
%LPC*%
G36*
X591363Y208279D02*
X591363Y208279D01*
X560323Y239319D01*
X560323Y516585D01*
X560385Y516647D01*
X560464Y516746D01*
X560548Y516840D01*
X560572Y516882D01*
X560602Y516920D01*
X560656Y517034D01*
X560717Y517145D01*
X560730Y517192D01*
X560751Y517235D01*
X560777Y517359D01*
X560812Y517480D01*
X560817Y517541D01*
X560824Y517576D01*
X560823Y517624D01*
X560831Y517724D01*
X560831Y519373D01*
X561759Y521614D01*
X563474Y523329D01*
X565715Y524257D01*
X568141Y524257D01*
X570382Y523329D01*
X572097Y521614D01*
X573025Y519373D01*
X573025Y516947D01*
X572097Y514706D01*
X570382Y512991D01*
X568377Y512161D01*
X568310Y512124D01*
X568239Y512096D01*
X568158Y512040D01*
X568072Y511992D01*
X568016Y511940D01*
X567953Y511897D01*
X567887Y511824D01*
X567814Y511758D01*
X567771Y511695D01*
X567720Y511638D01*
X567672Y511552D01*
X567616Y511471D01*
X567588Y511400D01*
X567551Y511333D01*
X567524Y511238D01*
X567488Y511147D01*
X567477Y511071D01*
X567456Y510998D01*
X567444Y510849D01*
X567437Y510802D01*
X567439Y510783D01*
X567437Y510754D01*
X567437Y242896D01*
X567451Y242771D01*
X567458Y242644D01*
X567471Y242598D01*
X567477Y242550D01*
X567519Y242431D01*
X567554Y242310D01*
X567578Y242267D01*
X567594Y242222D01*
X567663Y242116D01*
X567724Y242005D01*
X567764Y241959D01*
X567783Y241929D01*
X567818Y241896D01*
X567883Y241819D01*
X593863Y215839D01*
X593962Y215760D01*
X594056Y215676D01*
X594098Y215652D01*
X594136Y215622D01*
X594250Y215568D01*
X594361Y215507D01*
X594408Y215494D01*
X594451Y215473D01*
X594575Y215447D01*
X594696Y215412D01*
X594757Y215407D01*
X594792Y215400D01*
X594840Y215401D01*
X594940Y215393D01*
X852860Y215393D01*
X852985Y215407D01*
X853112Y215414D01*
X853158Y215427D01*
X853206Y215433D01*
X853325Y215475D01*
X853446Y215510D01*
X853489Y215534D01*
X853534Y215550D01*
X853640Y215619D01*
X853751Y215680D01*
X853797Y215720D01*
X853827Y215739D01*
X853860Y215774D01*
X853937Y215839D01*
X868233Y230135D01*
X868312Y230234D01*
X868396Y230328D01*
X868420Y230370D01*
X868450Y230408D01*
X868504Y230522D01*
X868565Y230633D01*
X868578Y230680D01*
X868599Y230723D01*
X868625Y230847D01*
X868660Y230968D01*
X868665Y231029D01*
X868672Y231064D01*
X868671Y231112D01*
X868679Y231212D01*
X868679Y232861D01*
X869619Y235129D01*
X869660Y235274D01*
X869706Y235417D01*
X869708Y235441D01*
X869715Y235464D01*
X869722Y235614D01*
X869734Y235764D01*
X869730Y235788D01*
X869732Y235812D01*
X869705Y235960D01*
X869682Y236109D01*
X869673Y236131D01*
X869669Y236155D01*
X869609Y236293D01*
X869554Y236433D01*
X869540Y236453D01*
X869530Y236475D01*
X869440Y236596D01*
X869355Y236719D01*
X869337Y236735D01*
X869322Y236755D01*
X869207Y236852D01*
X869096Y236952D01*
X869075Y236964D01*
X869056Y236980D01*
X868922Y237048D01*
X868791Y237121D01*
X868767Y237127D01*
X868746Y237138D01*
X868600Y237175D01*
X868455Y237216D01*
X868426Y237218D01*
X868408Y237223D01*
X868361Y237223D01*
X868212Y237235D01*
X822075Y237235D01*
X821921Y237217D01*
X821766Y237204D01*
X821748Y237198D01*
X821729Y237195D01*
X821583Y237143D01*
X821435Y237094D01*
X821419Y237084D01*
X821401Y237078D01*
X821270Y236994D01*
X821138Y236913D01*
X821124Y236899D01*
X821108Y236889D01*
X821000Y236777D01*
X820889Y236668D01*
X820879Y236652D01*
X820866Y236638D01*
X820786Y236505D01*
X820703Y236374D01*
X820697Y236356D01*
X820687Y236339D01*
X820640Y236191D01*
X820589Y236045D01*
X820587Y236026D01*
X820581Y236007D01*
X820568Y235852D01*
X820552Y235698D01*
X820554Y235679D01*
X820553Y235660D01*
X820576Y235506D01*
X820595Y235352D01*
X820601Y235334D01*
X820604Y235315D01*
X820662Y235170D01*
X820715Y235025D01*
X820727Y235006D01*
X820733Y234991D01*
X820758Y234955D01*
X820843Y234817D01*
X821490Y233925D01*
X822216Y232500D01*
X822659Y231139D01*
X813816Y231139D01*
X813790Y231136D01*
X813764Y231138D01*
X813617Y231116D01*
X813470Y231099D01*
X813445Y231091D01*
X813419Y231087D01*
X813282Y231032D01*
X813142Y230982D01*
X813120Y230968D01*
X813095Y230958D01*
X812974Y230873D01*
X812849Y230793D01*
X812831Y230774D01*
X812809Y230759D01*
X812795Y230743D01*
X812710Y230825D01*
X812687Y230839D01*
X812668Y230856D01*
X812538Y230928D01*
X812411Y231004D01*
X812386Y231012D01*
X812363Y231025D01*
X812220Y231065D01*
X812079Y231110D01*
X812053Y231112D01*
X812028Y231120D01*
X811784Y231139D01*
X802941Y231139D01*
X803384Y232500D01*
X804110Y233925D01*
X804757Y234817D01*
X804833Y234952D01*
X804913Y235085D01*
X804919Y235103D01*
X804929Y235120D01*
X804972Y235269D01*
X805019Y235417D01*
X805021Y235436D01*
X805026Y235455D01*
X805035Y235610D01*
X805047Y235764D01*
X805045Y235783D01*
X805046Y235803D01*
X805019Y235956D01*
X804996Y236109D01*
X804989Y236127D01*
X804985Y236146D01*
X804924Y236289D01*
X804867Y236433D01*
X804856Y236449D01*
X804848Y236466D01*
X804757Y236592D01*
X804668Y236719D01*
X804654Y236732D01*
X804642Y236747D01*
X804524Y236849D01*
X804409Y236952D01*
X804392Y236962D01*
X804378Y236974D01*
X804240Y237046D01*
X804104Y237121D01*
X804086Y237126D01*
X804068Y237135D01*
X803919Y237173D01*
X803769Y237216D01*
X803746Y237218D01*
X803731Y237221D01*
X803687Y237222D01*
X803525Y237235D01*
X796093Y237235D01*
X795993Y237224D01*
X795893Y237222D01*
X795821Y237204D01*
X795747Y237195D01*
X795652Y237162D01*
X795555Y237137D01*
X795489Y237103D01*
X795419Y237078D01*
X795334Y237023D01*
X795245Y236977D01*
X795189Y236929D01*
X795126Y236889D01*
X795056Y236817D01*
X794980Y236752D01*
X794936Y236692D01*
X794884Y236638D01*
X794832Y236552D01*
X794773Y236471D01*
X794743Y236403D01*
X794705Y236339D01*
X794674Y236244D01*
X794635Y236151D01*
X794621Y236078D01*
X794599Y236007D01*
X794591Y235907D01*
X794573Y235808D01*
X794577Y235734D01*
X794571Y235660D01*
X794586Y235561D01*
X794591Y235460D01*
X794612Y235389D01*
X794623Y235315D01*
X794660Y235222D01*
X794687Y235125D01*
X794724Y235060D01*
X794751Y234991D01*
X794809Y234909D01*
X794858Y234821D01*
X794923Y234745D01*
X794950Y234705D01*
X794977Y234681D01*
X795016Y234635D01*
X795583Y234068D01*
X797053Y230520D01*
X797053Y226680D01*
X795583Y223132D01*
X792868Y220417D01*
X789320Y218947D01*
X785480Y218947D01*
X781932Y220417D01*
X779217Y223132D01*
X777747Y226680D01*
X777747Y230520D01*
X779217Y234068D01*
X779784Y234635D01*
X779846Y234714D01*
X779916Y234786D01*
X779954Y234850D01*
X780001Y234908D01*
X780043Y234999D01*
X780095Y235085D01*
X780118Y235156D01*
X780149Y235223D01*
X780171Y235321D01*
X780201Y235417D01*
X780207Y235491D01*
X780223Y235564D01*
X780221Y235664D01*
X780229Y235764D01*
X780218Y235838D01*
X780217Y235912D01*
X780192Y236009D01*
X780177Y236109D01*
X780150Y236178D01*
X780132Y236250D01*
X780086Y236339D01*
X780049Y236433D01*
X780006Y236494D01*
X779972Y236560D01*
X779907Y236637D01*
X779850Y236719D01*
X779795Y236769D01*
X779746Y236825D01*
X779666Y236885D01*
X779591Y236952D01*
X779526Y236988D01*
X779466Y237033D01*
X779374Y237072D01*
X779286Y237121D01*
X779214Y237141D01*
X779146Y237171D01*
X779047Y237188D01*
X778951Y237216D01*
X778851Y237224D01*
X778803Y237232D01*
X778767Y237230D01*
X778707Y237235D01*
X701242Y237235D01*
X701192Y237230D01*
X701142Y237232D01*
X701019Y237210D01*
X700896Y237195D01*
X700849Y237178D01*
X700799Y237169D01*
X700685Y237120D01*
X700568Y237078D01*
X700525Y237051D01*
X700479Y237031D01*
X700379Y236956D01*
X700275Y236889D01*
X700240Y236853D01*
X700200Y236823D01*
X700119Y236728D01*
X700033Y236638D01*
X700007Y236595D01*
X699974Y236557D01*
X699918Y236446D01*
X699854Y236339D01*
X699839Y236291D01*
X699816Y236246D01*
X699786Y236126D01*
X699748Y236007D01*
X699744Y235957D01*
X699731Y235908D01*
X699730Y235784D01*
X699720Y235660D01*
X699727Y235610D01*
X699726Y235560D01*
X699753Y235438D01*
X699771Y235315D01*
X699790Y235268D01*
X699801Y235219D01*
X699854Y235107D01*
X699900Y234991D01*
X699929Y234950D01*
X699950Y234904D01*
X700028Y234807D01*
X700099Y234705D01*
X700136Y234671D01*
X700168Y234632D01*
X700265Y234555D01*
X700358Y234472D01*
X700402Y234447D01*
X700441Y234416D01*
X700659Y234305D01*
X701954Y233769D01*
X703669Y232054D01*
X704597Y229813D01*
X704597Y227387D01*
X703669Y225146D01*
X701954Y223431D01*
X699713Y222503D01*
X697287Y222503D01*
X695046Y223431D01*
X693881Y224597D01*
X693782Y224676D01*
X693688Y224760D01*
X693646Y224784D01*
X693608Y224814D01*
X693494Y224868D01*
X693383Y224929D01*
X693336Y224942D01*
X693293Y224963D01*
X693169Y224989D01*
X693047Y225024D01*
X692987Y225029D01*
X692952Y225036D01*
X692904Y225035D01*
X692804Y225043D01*
X671627Y225043D01*
X669097Y227573D01*
X609153Y287517D01*
X609075Y287579D01*
X609002Y287649D01*
X608938Y287687D01*
X608880Y287734D01*
X608789Y287776D01*
X608703Y287828D01*
X608632Y287851D01*
X608565Y287882D01*
X608467Y287904D01*
X608371Y287934D01*
X608297Y287940D01*
X608224Y287956D01*
X608124Y287954D01*
X608024Y287962D01*
X607950Y287951D01*
X607876Y287950D01*
X607779Y287925D01*
X607679Y287911D01*
X607610Y287883D01*
X607538Y287865D01*
X607448Y287819D01*
X607355Y287782D01*
X607294Y287739D01*
X607228Y287705D01*
X607151Y287640D01*
X607069Y287583D01*
X607019Y287528D01*
X606963Y287479D01*
X606903Y287399D01*
X606836Y287324D01*
X606800Y287259D01*
X606755Y287199D01*
X606716Y287107D01*
X606667Y287019D01*
X606647Y286947D01*
X606617Y286879D01*
X606600Y286780D01*
X606572Y286684D01*
X606564Y286584D01*
X606556Y286536D01*
X606558Y286500D01*
X606553Y286440D01*
X606553Y285299D01*
X605625Y283058D01*
X604459Y281893D01*
X604380Y281794D01*
X604296Y281700D01*
X604272Y281658D01*
X604242Y281620D01*
X604188Y281506D01*
X604127Y281395D01*
X604114Y281348D01*
X604093Y281305D01*
X604067Y281181D01*
X604032Y281059D01*
X604027Y280999D01*
X604020Y280964D01*
X604021Y280916D01*
X604013Y280816D01*
X604013Y257607D01*
X595833Y249427D01*
X588880Y249427D01*
X588755Y249413D01*
X588629Y249406D01*
X588582Y249393D01*
X588534Y249387D01*
X588415Y249345D01*
X588294Y249310D01*
X588252Y249286D01*
X588206Y249270D01*
X588100Y249201D01*
X587989Y249140D01*
X587943Y249100D01*
X587913Y249081D01*
X587880Y249046D01*
X587803Y248981D01*
X587654Y248831D01*
X585413Y247903D01*
X582987Y247903D01*
X580746Y248831D01*
X579031Y250546D01*
X578103Y252787D01*
X578103Y255213D01*
X579031Y257454D01*
X580746Y259169D01*
X582987Y260097D01*
X585413Y260097D01*
X587654Y259169D01*
X589377Y257445D01*
X589394Y257414D01*
X589423Y257343D01*
X589479Y257263D01*
X589526Y257177D01*
X589578Y257120D01*
X589621Y257057D01*
X589694Y256991D01*
X589761Y256918D01*
X589823Y256875D01*
X589880Y256824D01*
X589966Y256776D01*
X590047Y256720D01*
X590118Y256692D01*
X590185Y256655D01*
X590280Y256628D01*
X590371Y256592D01*
X590447Y256581D01*
X590521Y256560D01*
X590669Y256548D01*
X590716Y256541D01*
X590735Y256543D01*
X590764Y256541D01*
X592256Y256541D01*
X592381Y256555D01*
X592508Y256562D01*
X592554Y256575D01*
X592602Y256581D01*
X592721Y256623D01*
X592842Y256658D01*
X592885Y256682D01*
X592930Y256698D01*
X593036Y256767D01*
X593147Y256828D01*
X593193Y256868D01*
X593223Y256887D01*
X593256Y256922D01*
X593333Y256987D01*
X596453Y260107D01*
X596532Y260206D01*
X596616Y260300D01*
X596640Y260342D01*
X596670Y260380D01*
X596724Y260494D01*
X596785Y260605D01*
X596798Y260652D01*
X596819Y260695D01*
X596845Y260819D01*
X596880Y260940D01*
X596885Y261001D01*
X596892Y261036D01*
X596891Y261084D01*
X596899Y261184D01*
X596899Y280816D01*
X596885Y280941D01*
X596878Y281067D01*
X596865Y281114D01*
X596859Y281162D01*
X596817Y281281D01*
X596782Y281402D01*
X596758Y281444D01*
X596742Y281490D01*
X596673Y281596D01*
X596612Y281707D01*
X596572Y281753D01*
X596553Y281783D01*
X596518Y281816D01*
X596453Y281893D01*
X595287Y283058D01*
X594359Y285299D01*
X594359Y287725D01*
X595287Y289966D01*
X597002Y291681D01*
X599243Y292609D01*
X600384Y292609D01*
X600484Y292620D01*
X600584Y292622D01*
X600656Y292640D01*
X600730Y292649D01*
X600825Y292682D01*
X600922Y292707D01*
X600988Y292741D01*
X601058Y292766D01*
X601143Y292821D01*
X601232Y292867D01*
X601289Y292915D01*
X601351Y292955D01*
X601421Y293027D01*
X601497Y293092D01*
X601541Y293152D01*
X601593Y293206D01*
X601645Y293292D01*
X601704Y293373D01*
X601734Y293441D01*
X601772Y293505D01*
X601803Y293601D01*
X601842Y293693D01*
X601856Y293766D01*
X601878Y293837D01*
X601886Y293937D01*
X601904Y294036D01*
X601900Y294110D01*
X601906Y294184D01*
X601891Y294284D01*
X601886Y294384D01*
X601866Y294455D01*
X601855Y294529D01*
X601817Y294622D01*
X601790Y294719D01*
X601753Y294784D01*
X601726Y294853D01*
X601669Y294935D01*
X601619Y295023D01*
X601554Y295099D01*
X601527Y295139D01*
X601500Y295163D01*
X601461Y295209D01*
X580643Y316027D01*
X580643Y531825D01*
X585048Y536230D01*
X585095Y536290D01*
X585150Y536343D01*
X585204Y536426D01*
X585265Y536503D01*
X585297Y536572D01*
X585339Y536636D01*
X585371Y536729D01*
X585414Y536818D01*
X585430Y536893D01*
X585455Y536965D01*
X585466Y537063D01*
X585487Y537159D01*
X585486Y537235D01*
X585494Y537311D01*
X585483Y537409D01*
X585481Y537507D01*
X585462Y537581D01*
X585453Y537657D01*
X585407Y537799D01*
X585396Y537845D01*
X585387Y537862D01*
X585378Y537890D01*
X585215Y538283D01*
X585215Y540709D01*
X586143Y542950D01*
X587858Y544665D01*
X590099Y545593D01*
X592328Y545593D01*
X592354Y545596D01*
X592380Y545594D01*
X592527Y545616D01*
X592674Y545633D01*
X592699Y545641D01*
X592725Y545645D01*
X592863Y545700D01*
X593002Y545750D01*
X593024Y545764D01*
X593049Y545774D01*
X593170Y545859D01*
X593295Y545939D01*
X593313Y545958D01*
X593335Y545973D01*
X593434Y546083D01*
X593537Y546190D01*
X593551Y546212D01*
X593568Y546232D01*
X593640Y546362D01*
X593716Y546489D01*
X593724Y546514D01*
X593737Y546537D01*
X593777Y546680D01*
X593822Y546821D01*
X593824Y546847D01*
X593832Y546872D01*
X593851Y547116D01*
X593851Y690321D01*
X596381Y692851D01*
X599501Y695971D01*
X602031Y698501D01*
X634384Y698501D01*
X634509Y698515D01*
X634635Y698522D01*
X634682Y698535D01*
X634730Y698541D01*
X634849Y698583D01*
X634970Y698618D01*
X635012Y698642D01*
X635058Y698658D01*
X635164Y698727D01*
X635275Y698788D01*
X635321Y698828D01*
X635351Y698847D01*
X635384Y698882D01*
X635461Y698947D01*
X636626Y700113D01*
X637653Y700538D01*
X637785Y700611D01*
X637919Y700680D01*
X637937Y700696D01*
X637958Y700707D01*
X638069Y700808D01*
X638184Y700906D01*
X638198Y700925D01*
X638216Y700941D01*
X638302Y701065D01*
X638391Y701186D01*
X638401Y701208D01*
X638414Y701228D01*
X638470Y701368D01*
X638529Y701506D01*
X638533Y701530D01*
X638542Y701552D01*
X638564Y701701D01*
X638591Y701849D01*
X638590Y701873D01*
X638593Y701897D01*
X638581Y702047D01*
X638573Y702197D01*
X638566Y702220D01*
X638564Y702244D01*
X638518Y702387D01*
X638476Y702532D01*
X638464Y702553D01*
X638457Y702576D01*
X638380Y702705D01*
X638306Y702836D01*
X638287Y702858D01*
X638277Y702875D01*
X638244Y702909D01*
X638148Y703022D01*
X636513Y704657D01*
X636414Y704736D01*
X636320Y704820D01*
X636278Y704844D01*
X636240Y704874D01*
X636126Y704928D01*
X636015Y704989D01*
X635968Y705002D01*
X635925Y705023D01*
X635801Y705049D01*
X635680Y705084D01*
X635619Y705089D01*
X635584Y705096D01*
X635536Y705095D01*
X635436Y705103D01*
X633787Y705103D01*
X631546Y706031D01*
X629831Y707746D01*
X628903Y709987D01*
X628903Y712413D01*
X629831Y714654D01*
X631546Y716369D01*
X633787Y717297D01*
X636213Y717297D01*
X638454Y716369D01*
X640169Y714654D01*
X641097Y712413D01*
X641097Y710764D01*
X641111Y710639D01*
X641118Y710512D01*
X641131Y710466D01*
X641137Y710418D01*
X641179Y710299D01*
X641214Y710178D01*
X641238Y710135D01*
X641254Y710090D01*
X641323Y709984D01*
X641384Y709873D01*
X641424Y709827D01*
X641443Y709797D01*
X641478Y709764D01*
X641543Y709687D01*
X689357Y661873D01*
X689357Y535504D01*
X689371Y535379D01*
X689378Y535252D01*
X689391Y535206D01*
X689397Y535158D01*
X689439Y535039D01*
X689474Y534918D01*
X689498Y534875D01*
X689514Y534830D01*
X689583Y534724D01*
X689644Y534613D01*
X689684Y534567D01*
X689703Y534537D01*
X689738Y534504D01*
X689803Y534427D01*
X735087Y489143D01*
X735186Y489064D01*
X735280Y488980D01*
X735322Y488956D01*
X735360Y488926D01*
X735474Y488872D01*
X735585Y488811D01*
X735632Y488798D01*
X735675Y488777D01*
X735799Y488751D01*
X735920Y488716D01*
X735981Y488711D01*
X736016Y488704D01*
X736064Y488705D01*
X736164Y488697D01*
X737813Y488697D01*
X740054Y487769D01*
X741769Y486054D01*
X742697Y483813D01*
X742697Y481387D01*
X741769Y479146D01*
X740054Y477431D01*
X737813Y476503D01*
X735387Y476503D01*
X733146Y477431D01*
X731431Y479146D01*
X730503Y481387D01*
X730503Y483036D01*
X730489Y483161D01*
X730482Y483288D01*
X730469Y483334D01*
X730463Y483382D01*
X730421Y483501D01*
X730386Y483622D01*
X730362Y483665D01*
X730346Y483710D01*
X730277Y483816D01*
X730216Y483927D01*
X730176Y483973D01*
X730157Y484003D01*
X730122Y484036D01*
X730057Y484113D01*
X682243Y531927D01*
X682243Y658296D01*
X682229Y658421D01*
X682222Y658548D01*
X682209Y658594D01*
X682203Y658642D01*
X682161Y658761D01*
X682126Y658882D01*
X682102Y658925D01*
X682086Y658970D01*
X682017Y659076D01*
X681956Y659187D01*
X681916Y659233D01*
X681897Y659263D01*
X681862Y659297D01*
X681797Y659373D01*
X648158Y693012D01*
X648041Y693105D01*
X647926Y693202D01*
X647904Y693213D01*
X647885Y693228D01*
X647750Y693292D01*
X647616Y693361D01*
X647592Y693367D01*
X647570Y693377D01*
X647424Y693409D01*
X647277Y693445D01*
X647253Y693445D01*
X647230Y693451D01*
X647080Y693448D01*
X646929Y693450D01*
X646905Y693445D01*
X646881Y693445D01*
X646735Y693408D01*
X646588Y693376D01*
X646567Y693366D01*
X646543Y693360D01*
X646409Y693291D01*
X646274Y693226D01*
X646255Y693211D01*
X646233Y693200D01*
X646119Y693102D01*
X646001Y693009D01*
X645986Y692990D01*
X645968Y692974D01*
X645878Y692853D01*
X645785Y692735D01*
X645772Y692709D01*
X645761Y692694D01*
X645742Y692651D01*
X645674Y692517D01*
X645249Y691490D01*
X643534Y689775D01*
X641293Y688847D01*
X638867Y688847D01*
X636626Y689775D01*
X635461Y690941D01*
X635362Y691020D01*
X635268Y691104D01*
X635226Y691128D01*
X635188Y691158D01*
X635074Y691212D01*
X634963Y691273D01*
X634916Y691286D01*
X634873Y691307D01*
X634749Y691333D01*
X634627Y691368D01*
X634567Y691373D01*
X634532Y691380D01*
X634484Y691379D01*
X634384Y691387D01*
X605608Y691387D01*
X605483Y691373D01*
X605356Y691366D01*
X605310Y691353D01*
X605262Y691347D01*
X605143Y691305D01*
X605022Y691270D01*
X604979Y691246D01*
X604934Y691230D01*
X604828Y691161D01*
X604717Y691100D01*
X604671Y691060D01*
X604641Y691041D01*
X604608Y691006D01*
X604531Y690941D01*
X601411Y687821D01*
X601332Y687722D01*
X601248Y687628D01*
X601224Y687586D01*
X601194Y687548D01*
X601140Y687434D01*
X601079Y687323D01*
X601066Y687276D01*
X601045Y687233D01*
X601019Y687109D01*
X600984Y686988D01*
X600979Y686927D01*
X600972Y686892D01*
X600973Y686844D01*
X600965Y686744D01*
X600965Y675842D01*
X600970Y675792D01*
X600968Y675742D01*
X600990Y675619D01*
X601005Y675496D01*
X601022Y675448D01*
X601031Y675399D01*
X601080Y675285D01*
X601122Y675168D01*
X601149Y675125D01*
X601170Y675079D01*
X601244Y674980D01*
X601311Y674875D01*
X601347Y674840D01*
X601377Y674799D01*
X601472Y674719D01*
X601562Y674633D01*
X601605Y674607D01*
X601643Y674574D01*
X601754Y674518D01*
X601861Y674454D01*
X601909Y674439D01*
X601954Y674416D01*
X602074Y674386D01*
X602193Y674348D01*
X602243Y674344D01*
X602292Y674331D01*
X602416Y674330D01*
X602540Y674320D01*
X602590Y674327D01*
X602640Y674326D01*
X602762Y674353D01*
X602885Y674371D01*
X602932Y674390D01*
X602981Y674401D01*
X603093Y674454D01*
X603209Y674500D01*
X603250Y674529D01*
X603296Y674550D01*
X603393Y674628D01*
X603495Y674699D01*
X603528Y674736D01*
X603568Y674768D01*
X603645Y674866D01*
X603728Y674958D01*
X603753Y675002D01*
X603784Y675041D01*
X603895Y675259D01*
X604431Y676554D01*
X606146Y678269D01*
X608387Y679197D01*
X610813Y679197D01*
X613054Y678269D01*
X614219Y677103D01*
X614318Y677024D01*
X614412Y676940D01*
X614454Y676916D01*
X614492Y676886D01*
X614606Y676832D01*
X614717Y676771D01*
X614764Y676758D01*
X614807Y676737D01*
X614931Y676711D01*
X615053Y676676D01*
X615113Y676671D01*
X615148Y676664D01*
X615196Y676665D01*
X615296Y676657D01*
X649173Y676657D01*
X676657Y649173D01*
X676657Y522804D01*
X676671Y522679D01*
X676678Y522552D01*
X676691Y522506D01*
X676697Y522458D01*
X676739Y522339D01*
X676774Y522218D01*
X676798Y522175D01*
X676814Y522130D01*
X676883Y522024D01*
X676944Y521913D01*
X676984Y521867D01*
X677003Y521837D01*
X677038Y521803D01*
X677103Y521727D01*
X737627Y461203D01*
X741173Y457657D01*
X741173Y392792D01*
X741187Y392667D01*
X741194Y392541D01*
X741207Y392494D01*
X741213Y392446D01*
X741255Y392327D01*
X741290Y392206D01*
X741314Y392164D01*
X741330Y392118D01*
X741399Y392012D01*
X741460Y391901D01*
X741500Y391855D01*
X741519Y391825D01*
X741554Y391792D01*
X741619Y391715D01*
X742785Y390550D01*
X743713Y388309D01*
X743713Y385883D01*
X742785Y383642D01*
X741070Y381927D01*
X738829Y380999D01*
X736403Y380999D01*
X734162Y381927D01*
X732447Y383642D01*
X731519Y385883D01*
X731519Y388309D01*
X732447Y390550D01*
X733613Y391715D01*
X733692Y391814D01*
X733776Y391908D01*
X733800Y391950D01*
X733830Y391988D01*
X733884Y392102D01*
X733945Y392213D01*
X733958Y392260D01*
X733979Y392303D01*
X734005Y392427D01*
X734040Y392549D01*
X734045Y392609D01*
X734052Y392644D01*
X734051Y392692D01*
X734059Y392792D01*
X734059Y454080D01*
X734045Y454205D01*
X734038Y454332D01*
X734025Y454378D01*
X734019Y454426D01*
X733977Y454545D01*
X733942Y454666D01*
X733918Y454709D01*
X733902Y454754D01*
X733833Y454860D01*
X733772Y454971D01*
X733732Y455017D01*
X733713Y455047D01*
X733678Y455080D01*
X733613Y455157D01*
X732597Y456173D01*
X725485Y463285D01*
X725407Y463347D01*
X725334Y463417D01*
X725270Y463455D01*
X725212Y463502D01*
X725121Y463544D01*
X725035Y463596D01*
X724964Y463619D01*
X724897Y463650D01*
X724799Y463672D01*
X724703Y463702D01*
X724629Y463708D01*
X724556Y463724D01*
X724456Y463722D01*
X724356Y463730D01*
X724282Y463719D01*
X724208Y463718D01*
X724111Y463693D01*
X724011Y463679D01*
X723942Y463651D01*
X723870Y463633D01*
X723780Y463587D01*
X723687Y463550D01*
X723626Y463507D01*
X723560Y463473D01*
X723483Y463408D01*
X723401Y463351D01*
X723351Y463296D01*
X723295Y463247D01*
X723235Y463167D01*
X723168Y463092D01*
X723132Y463027D01*
X723087Y462967D01*
X723048Y462875D01*
X722999Y462787D01*
X722979Y462715D01*
X722949Y462647D01*
X722932Y462548D01*
X722904Y462452D01*
X722896Y462352D01*
X722888Y462304D01*
X722890Y462268D01*
X722885Y462208D01*
X722885Y386152D01*
X722899Y386027D01*
X722906Y385900D01*
X722919Y385854D01*
X722925Y385806D01*
X722967Y385687D01*
X723002Y385566D01*
X723026Y385523D01*
X723042Y385478D01*
X723111Y385372D01*
X723172Y385261D01*
X723212Y385215D01*
X723231Y385185D01*
X723266Y385152D01*
X723331Y385075D01*
X735595Y372811D01*
X735694Y372732D01*
X735788Y372648D01*
X735830Y372624D01*
X735868Y372594D01*
X735982Y372540D01*
X736093Y372479D01*
X736140Y372466D01*
X736183Y372445D01*
X736307Y372419D01*
X736428Y372384D01*
X736489Y372379D01*
X736524Y372372D01*
X736572Y372373D01*
X736672Y372365D01*
X778707Y372365D01*
X778807Y372376D01*
X778907Y372378D01*
X778979Y372396D01*
X779053Y372405D01*
X779148Y372438D01*
X779245Y372463D01*
X779311Y372497D01*
X779381Y372522D01*
X779466Y372577D01*
X779555Y372623D01*
X779611Y372671D01*
X779674Y372711D01*
X779744Y372783D01*
X779820Y372848D01*
X779864Y372908D01*
X779916Y372962D01*
X779968Y373048D01*
X780027Y373129D01*
X780057Y373197D01*
X780095Y373261D01*
X780126Y373356D01*
X780165Y373449D01*
X780179Y373522D01*
X780201Y373593D01*
X780209Y373693D01*
X780227Y373792D01*
X780223Y373866D01*
X780229Y373940D01*
X780214Y374039D01*
X780209Y374140D01*
X780188Y374211D01*
X780177Y374285D01*
X780140Y374378D01*
X780113Y374475D01*
X780076Y374540D01*
X780049Y374609D01*
X779991Y374691D01*
X779942Y374779D01*
X779877Y374855D01*
X779850Y374895D01*
X779823Y374919D01*
X779784Y374965D01*
X779217Y375532D01*
X777747Y379080D01*
X777747Y382920D01*
X779217Y386468D01*
X781932Y389183D01*
X785480Y390653D01*
X789320Y390653D01*
X792868Y389183D01*
X795583Y386468D01*
X797053Y382920D01*
X797053Y379080D01*
X795583Y375532D01*
X795016Y374965D01*
X794954Y374886D01*
X794884Y374814D01*
X794846Y374750D01*
X794799Y374692D01*
X794757Y374601D01*
X794705Y374515D01*
X794682Y374444D01*
X794651Y374377D01*
X794629Y374279D01*
X794599Y374183D01*
X794593Y374109D01*
X794577Y374036D01*
X794579Y373936D01*
X794571Y373836D01*
X794582Y373762D01*
X794583Y373688D01*
X794608Y373591D01*
X794623Y373491D01*
X794650Y373422D01*
X794668Y373350D01*
X794714Y373261D01*
X794751Y373167D01*
X794794Y373106D01*
X794828Y373040D01*
X794893Y372963D01*
X794950Y372881D01*
X795005Y372831D01*
X795054Y372775D01*
X795134Y372715D01*
X795209Y372648D01*
X795274Y372612D01*
X795334Y372567D01*
X795426Y372528D01*
X795514Y372479D01*
X795586Y372459D01*
X795654Y372429D01*
X795753Y372412D01*
X795849Y372384D01*
X795949Y372376D01*
X795997Y372368D01*
X796033Y372370D01*
X796093Y372365D01*
X804107Y372365D01*
X804207Y372376D01*
X804307Y372378D01*
X804379Y372396D01*
X804453Y372405D01*
X804548Y372438D01*
X804645Y372463D01*
X804711Y372497D01*
X804781Y372522D01*
X804866Y372577D01*
X804955Y372623D01*
X805011Y372671D01*
X805074Y372711D01*
X805144Y372783D01*
X805220Y372848D01*
X805264Y372908D01*
X805316Y372962D01*
X805368Y373048D01*
X805427Y373129D01*
X805457Y373197D01*
X805495Y373261D01*
X805526Y373356D01*
X805565Y373449D01*
X805579Y373522D01*
X805601Y373593D01*
X805609Y373693D01*
X805627Y373792D01*
X805623Y373866D01*
X805629Y373940D01*
X805614Y374039D01*
X805609Y374140D01*
X805588Y374211D01*
X805577Y374285D01*
X805540Y374378D01*
X805513Y374475D01*
X805476Y374540D01*
X805449Y374609D01*
X805391Y374691D01*
X805342Y374779D01*
X805277Y374855D01*
X805250Y374895D01*
X805223Y374919D01*
X805184Y374965D01*
X804617Y375532D01*
X803147Y379080D01*
X803147Y382920D01*
X804617Y386468D01*
X807332Y389183D01*
X810880Y390653D01*
X814720Y390653D01*
X818268Y389183D01*
X820983Y386468D01*
X822453Y382920D01*
X822453Y380056D01*
X822464Y379956D01*
X822466Y379856D01*
X822484Y379784D01*
X822493Y379710D01*
X822526Y379615D01*
X822551Y379518D01*
X822585Y379452D01*
X822610Y379382D01*
X822665Y379297D01*
X822711Y379208D01*
X822759Y379151D01*
X822799Y379089D01*
X822871Y379019D01*
X822936Y378943D01*
X822996Y378899D01*
X823050Y378847D01*
X823136Y378795D01*
X823217Y378736D01*
X823285Y378706D01*
X823349Y378668D01*
X823445Y378637D01*
X823537Y378598D01*
X823610Y378584D01*
X823681Y378562D01*
X823781Y378554D01*
X823880Y378536D01*
X823954Y378540D01*
X824028Y378534D01*
X824128Y378549D01*
X824228Y378554D01*
X824299Y378574D01*
X824373Y378585D01*
X824466Y378623D01*
X824563Y378650D01*
X824628Y378687D01*
X824697Y378714D01*
X824779Y378771D01*
X824867Y378821D01*
X824943Y378886D01*
X824983Y378913D01*
X825007Y378940D01*
X825053Y378979D01*
X834197Y388123D01*
X834276Y388222D01*
X834360Y388316D01*
X834384Y388358D01*
X834414Y388396D01*
X834468Y388510D01*
X834529Y388621D01*
X834542Y388668D01*
X834563Y388711D01*
X834589Y388835D01*
X834624Y388956D01*
X834629Y389017D01*
X834636Y389052D01*
X834635Y389100D01*
X834643Y389200D01*
X834643Y480009D01*
X851967Y497333D01*
X872672Y497333D01*
X872797Y497347D01*
X872924Y497354D01*
X872970Y497367D01*
X873018Y497373D01*
X873137Y497415D01*
X873258Y497450D01*
X873301Y497474D01*
X873346Y497490D01*
X873452Y497559D01*
X873563Y497620D01*
X873609Y497660D01*
X873639Y497679D01*
X873672Y497714D01*
X873749Y497779D01*
X892109Y516139D01*
X892188Y516238D01*
X892272Y516332D01*
X892296Y516374D01*
X892326Y516412D01*
X892380Y516526D01*
X892441Y516637D01*
X892454Y516684D01*
X892475Y516727D01*
X892501Y516851D01*
X892536Y516972D01*
X892541Y517033D01*
X892548Y517068D01*
X892547Y517116D01*
X892555Y517216D01*
X892555Y539424D01*
X892544Y539524D01*
X892542Y539624D01*
X892524Y539696D01*
X892515Y539770D01*
X892482Y539865D01*
X892457Y539962D01*
X892423Y540028D01*
X892398Y540098D01*
X892343Y540183D01*
X892297Y540272D01*
X892249Y540328D01*
X892209Y540391D01*
X892137Y540461D01*
X892072Y540537D01*
X892012Y540581D01*
X891958Y540633D01*
X891872Y540685D01*
X891791Y540744D01*
X891723Y540774D01*
X891659Y540812D01*
X891563Y540843D01*
X891471Y540882D01*
X891398Y540896D01*
X891327Y540918D01*
X891227Y540926D01*
X891128Y540944D01*
X891054Y540940D01*
X890980Y540946D01*
X890880Y540931D01*
X890780Y540926D01*
X890709Y540906D01*
X890635Y540895D01*
X890542Y540857D01*
X890445Y540830D01*
X890380Y540793D01*
X890311Y540766D01*
X890229Y540709D01*
X890141Y540659D01*
X890065Y540594D01*
X890025Y540567D01*
X890001Y540540D01*
X889955Y540501D01*
X887995Y538541D01*
X879297Y529843D01*
X862184Y529843D01*
X862059Y529829D01*
X861933Y529822D01*
X861886Y529809D01*
X861838Y529803D01*
X861719Y529761D01*
X861598Y529726D01*
X861556Y529702D01*
X861510Y529686D01*
X861404Y529617D01*
X861293Y529556D01*
X861247Y529516D01*
X861217Y529497D01*
X861184Y529462D01*
X861107Y529397D01*
X859942Y528231D01*
X857701Y527303D01*
X856052Y527303D01*
X855952Y527292D01*
X855852Y527290D01*
X855780Y527272D01*
X855706Y527263D01*
X855611Y527230D01*
X855514Y527205D01*
X855448Y527171D01*
X855378Y527146D01*
X855293Y527091D01*
X855204Y527045D01*
X855147Y526997D01*
X855085Y526957D01*
X855015Y526885D01*
X854939Y526820D01*
X854895Y526760D01*
X854843Y526706D01*
X854791Y526620D01*
X854732Y526539D01*
X854702Y526471D01*
X854664Y526407D01*
X854633Y526311D01*
X854594Y526219D01*
X854580Y526146D01*
X854558Y526075D01*
X854550Y525975D01*
X854532Y525876D01*
X854536Y525802D01*
X854530Y525728D01*
X854545Y525628D01*
X854550Y525528D01*
X854570Y525457D01*
X854581Y525383D01*
X854619Y525290D01*
X854646Y525193D01*
X854683Y525128D01*
X854710Y525059D01*
X854767Y524977D01*
X854817Y524889D01*
X854882Y524813D01*
X854909Y524773D01*
X854936Y524749D01*
X854975Y524703D01*
X860045Y519633D01*
X860045Y517760D01*
X860059Y517635D01*
X860066Y517508D01*
X860079Y517462D01*
X860085Y517414D01*
X860127Y517295D01*
X860162Y517174D01*
X860186Y517131D01*
X860202Y517086D01*
X860271Y516980D01*
X860332Y516869D01*
X860372Y516823D01*
X860391Y516793D01*
X860426Y516760D01*
X860491Y516683D01*
X861657Y515518D01*
X862585Y513277D01*
X862585Y510851D01*
X861657Y508610D01*
X859942Y506895D01*
X857701Y505967D01*
X855275Y505967D01*
X853034Y506895D01*
X851319Y508610D01*
X850391Y510851D01*
X850391Y513277D01*
X851319Y515518D01*
X851633Y515831D01*
X851649Y515851D01*
X851669Y515868D01*
X851758Y515988D01*
X851849Y516104D01*
X851861Y516128D01*
X851876Y516149D01*
X851935Y516285D01*
X851998Y516419D01*
X852004Y516445D01*
X852014Y516469D01*
X852041Y516615D01*
X852072Y516760D01*
X852071Y516786D01*
X852076Y516812D01*
X852068Y516960D01*
X852066Y517108D01*
X852059Y517134D01*
X852058Y517160D01*
X852017Y517302D01*
X851981Y517446D01*
X851969Y517469D01*
X851962Y517495D01*
X851889Y517624D01*
X851821Y517756D01*
X851804Y517776D01*
X851791Y517799D01*
X851633Y517985D01*
X849365Y520253D01*
X849266Y520332D01*
X849172Y520416D01*
X849130Y520440D01*
X849092Y520470D01*
X848978Y520524D01*
X848867Y520585D01*
X848820Y520598D01*
X848777Y520619D01*
X848653Y520645D01*
X848532Y520680D01*
X848471Y520685D01*
X848436Y520692D01*
X848388Y520691D01*
X848288Y520699D01*
X825064Y520699D01*
X824939Y520685D01*
X824812Y520678D01*
X824766Y520665D01*
X824718Y520659D01*
X824599Y520617D01*
X824477Y520582D01*
X824435Y520558D01*
X824390Y520542D01*
X824283Y520473D01*
X824173Y520411D01*
X824127Y520372D01*
X824097Y520353D01*
X824064Y520318D01*
X823987Y520253D01*
X823915Y520181D01*
X823914Y520180D01*
X821385Y517651D01*
X820477Y517651D01*
X820377Y517640D01*
X820277Y517638D01*
X820205Y517620D01*
X820131Y517611D01*
X820037Y517578D01*
X819939Y517553D01*
X819873Y517519D01*
X819803Y517494D01*
X819719Y517439D01*
X819629Y517393D01*
X819573Y517345D01*
X819510Y517305D01*
X819440Y517233D01*
X819364Y517168D01*
X819320Y517108D01*
X819268Y517054D01*
X819216Y516968D01*
X819157Y516887D01*
X819127Y516819D01*
X819089Y516755D01*
X819058Y516659D01*
X819019Y516567D01*
X819006Y516494D01*
X818983Y516423D01*
X818975Y516323D01*
X818957Y516224D01*
X818961Y516150D01*
X818955Y516076D01*
X818970Y515976D01*
X818975Y515876D01*
X818996Y515805D01*
X819007Y515731D01*
X819044Y515638D01*
X819071Y515541D01*
X819108Y515476D01*
X819135Y515407D01*
X819193Y515325D01*
X819242Y515237D01*
X819307Y515161D01*
X819334Y515121D01*
X819361Y515097D01*
X819400Y515051D01*
X820983Y513468D01*
X822453Y509920D01*
X822453Y506080D01*
X820983Y502532D01*
X818268Y499817D01*
X814720Y498347D01*
X810880Y498347D01*
X807332Y499817D01*
X804617Y502532D01*
X803147Y506080D01*
X803147Y509920D01*
X804617Y513468D01*
X806200Y515051D01*
X806262Y515130D01*
X806332Y515202D01*
X806370Y515266D01*
X806417Y515324D01*
X806459Y515415D01*
X806511Y515501D01*
X806534Y515572D01*
X806565Y515639D01*
X806587Y515737D01*
X806617Y515833D01*
X806623Y515907D01*
X806639Y515980D01*
X806637Y516080D01*
X806645Y516180D01*
X806634Y516254D01*
X806633Y516328D01*
X806608Y516425D01*
X806593Y516525D01*
X806566Y516594D01*
X806548Y516666D01*
X806502Y516755D01*
X806465Y516849D01*
X806422Y516910D01*
X806388Y516976D01*
X806323Y517052D01*
X806266Y517135D01*
X806211Y517185D01*
X806162Y517241D01*
X806082Y517301D01*
X806007Y517368D01*
X805942Y517404D01*
X805882Y517449D01*
X805790Y517488D01*
X805702Y517537D01*
X805630Y517557D01*
X805562Y517587D01*
X805463Y517604D01*
X805367Y517632D01*
X805267Y517640D01*
X805219Y517648D01*
X805183Y517646D01*
X805123Y517651D01*
X795077Y517651D01*
X794977Y517640D01*
X794877Y517638D01*
X794805Y517620D01*
X794731Y517611D01*
X794637Y517578D01*
X794539Y517553D01*
X794473Y517519D01*
X794403Y517494D01*
X794319Y517439D01*
X794229Y517393D01*
X794173Y517345D01*
X794110Y517305D01*
X794040Y517233D01*
X793964Y517168D01*
X793920Y517108D01*
X793868Y517054D01*
X793816Y516968D01*
X793757Y516887D01*
X793727Y516819D01*
X793689Y516755D01*
X793658Y516659D01*
X793619Y516567D01*
X793606Y516494D01*
X793583Y516423D01*
X793575Y516323D01*
X793557Y516224D01*
X793561Y516150D01*
X793555Y516076D01*
X793570Y515976D01*
X793575Y515876D01*
X793596Y515805D01*
X793607Y515731D01*
X793644Y515638D01*
X793671Y515541D01*
X793708Y515476D01*
X793735Y515407D01*
X793793Y515325D01*
X793842Y515237D01*
X793907Y515161D01*
X793934Y515121D01*
X793961Y515097D01*
X794000Y515051D01*
X795583Y513468D01*
X797053Y509920D01*
X797053Y506080D01*
X795583Y502532D01*
X792868Y499817D01*
X789320Y498347D01*
X785480Y498347D01*
X781932Y499817D01*
X779217Y502532D01*
X777747Y506080D01*
X777747Y509920D01*
X779217Y513468D01*
X780800Y515051D01*
X780862Y515130D01*
X780932Y515202D01*
X780970Y515266D01*
X781017Y515324D01*
X781059Y515415D01*
X781111Y515501D01*
X781134Y515572D01*
X781165Y515639D01*
X781187Y515737D01*
X781217Y515833D01*
X781223Y515907D01*
X781239Y515980D01*
X781237Y516080D01*
X781245Y516180D01*
X781234Y516254D01*
X781233Y516328D01*
X781208Y516425D01*
X781193Y516525D01*
X781166Y516594D01*
X781148Y516666D01*
X781102Y516755D01*
X781065Y516849D01*
X781022Y516910D01*
X780988Y516976D01*
X780923Y517052D01*
X780866Y517135D01*
X780811Y517185D01*
X780762Y517241D01*
X780682Y517301D01*
X780607Y517368D01*
X780542Y517404D01*
X780482Y517449D01*
X780390Y517488D01*
X780302Y517537D01*
X780230Y517557D01*
X780162Y517587D01*
X780063Y517604D01*
X779967Y517632D01*
X779867Y517640D01*
X779819Y517648D01*
X779783Y517646D01*
X779723Y517651D01*
X748335Y517651D01*
X709675Y556311D01*
X709675Y698392D01*
X709661Y698517D01*
X709654Y698644D01*
X709641Y698690D01*
X709635Y698738D01*
X709593Y698857D01*
X709558Y698978D01*
X709534Y699021D01*
X709518Y699066D01*
X709449Y699172D01*
X709388Y699283D01*
X709348Y699329D01*
X709329Y699359D01*
X709294Y699392D01*
X709229Y699469D01*
X708063Y700634D01*
X707135Y702875D01*
X707135Y705301D01*
X708063Y707542D01*
X709778Y709257D01*
X712019Y710185D01*
X714445Y710185D01*
X716686Y709257D01*
X717743Y708199D01*
X717822Y708137D01*
X717894Y708067D01*
X717958Y708029D01*
X718016Y707983D01*
X718107Y707940D01*
X718193Y707888D01*
X718264Y707865D01*
X718331Y707834D01*
X718429Y707813D01*
X718525Y707782D01*
X718599Y707776D01*
X718672Y707760D01*
X718772Y707762D01*
X718872Y707754D01*
X718946Y707765D01*
X719020Y707766D01*
X719117Y707791D01*
X719217Y707806D01*
X719286Y707833D01*
X719358Y707851D01*
X719447Y707897D01*
X719541Y707934D01*
X719602Y707977D01*
X719668Y708011D01*
X719744Y708076D01*
X719827Y708133D01*
X719877Y708188D01*
X719933Y708237D01*
X719993Y708318D01*
X720060Y708392D01*
X720096Y708457D01*
X720141Y708517D01*
X720180Y708609D01*
X720229Y708697D01*
X720249Y708769D01*
X720279Y708837D01*
X720296Y708936D01*
X720324Y709032D01*
X720332Y709132D01*
X720340Y709180D01*
X720338Y709216D01*
X720343Y709276D01*
X720343Y759896D01*
X720329Y760021D01*
X720322Y760148D01*
X720309Y760194D01*
X720303Y760242D01*
X720261Y760361D01*
X720226Y760482D01*
X720202Y760525D01*
X720186Y760570D01*
X720117Y760676D01*
X720056Y760787D01*
X720016Y760833D01*
X719997Y760863D01*
X719962Y760896D01*
X719897Y760973D01*
X687313Y793557D01*
X687214Y793636D01*
X687120Y793720D01*
X687078Y793744D01*
X687040Y793774D01*
X686926Y793828D01*
X686815Y793889D01*
X686768Y793902D01*
X686725Y793923D01*
X686601Y793949D01*
X686480Y793984D01*
X686419Y793989D01*
X686384Y793996D01*
X686336Y793995D01*
X686236Y794003D01*
X684587Y794003D01*
X682346Y794931D01*
X680631Y796646D01*
X679703Y798887D01*
X679703Y801313D01*
X680631Y803554D01*
X682346Y805269D01*
X684451Y806140D01*
X684582Y806213D01*
X684716Y806282D01*
X684735Y806298D01*
X684756Y806310D01*
X684867Y806411D01*
X684982Y806508D01*
X684996Y806528D01*
X685014Y806544D01*
X685099Y806667D01*
X685189Y806788D01*
X685198Y806811D01*
X685212Y806830D01*
X685267Y806970D01*
X685327Y807108D01*
X685331Y807132D01*
X685340Y807155D01*
X685362Y807303D01*
X685388Y807451D01*
X685387Y807476D01*
X685391Y807499D01*
X685378Y807649D01*
X685370Y807799D01*
X685364Y807823D01*
X685362Y807847D01*
X685316Y807990D01*
X685274Y808134D01*
X685262Y808155D01*
X685255Y808178D01*
X685177Y808308D01*
X685104Y808438D01*
X685085Y808461D01*
X685075Y808477D01*
X685042Y808511D01*
X684945Y808625D01*
X661913Y831657D01*
X661814Y831736D01*
X661720Y831820D01*
X661678Y831844D01*
X661640Y831874D01*
X661526Y831928D01*
X661415Y831989D01*
X661368Y832002D01*
X661325Y832023D01*
X661201Y832049D01*
X661080Y832084D01*
X661019Y832089D01*
X660984Y832096D01*
X660936Y832095D01*
X660836Y832103D01*
X659187Y832103D01*
X656946Y833031D01*
X655231Y834746D01*
X654303Y836987D01*
X654303Y839413D01*
X655231Y841654D01*
X656946Y843369D01*
X659187Y844297D01*
X661613Y844297D01*
X663854Y843369D01*
X665569Y841654D01*
X666497Y839413D01*
X666497Y837764D01*
X666511Y837639D01*
X666518Y837512D01*
X666531Y837466D01*
X666537Y837418D01*
X666579Y837299D01*
X666614Y837178D01*
X666638Y837135D01*
X666654Y837090D01*
X666723Y836984D01*
X666784Y836873D01*
X666824Y836827D01*
X666843Y836797D01*
X666878Y836764D01*
X666943Y836687D01*
X740157Y763473D01*
X740157Y640696D01*
X740171Y640571D01*
X740178Y640445D01*
X740191Y640398D01*
X740197Y640350D01*
X740239Y640231D01*
X740274Y640110D01*
X740298Y640068D01*
X740314Y640022D01*
X740383Y639916D01*
X740444Y639805D01*
X740484Y639759D01*
X740503Y639729D01*
X740538Y639696D01*
X740603Y639619D01*
X741769Y638454D01*
X742697Y636213D01*
X742697Y633787D01*
X741769Y631546D01*
X739949Y629727D01*
X739933Y629706D01*
X739913Y629690D01*
X739825Y629570D01*
X739733Y629454D01*
X739721Y629430D01*
X739706Y629409D01*
X739647Y629273D01*
X739584Y629139D01*
X739578Y629113D01*
X739568Y629089D01*
X739541Y628943D01*
X739510Y628798D01*
X739511Y628772D01*
X739506Y628746D01*
X739514Y628598D01*
X739516Y628450D01*
X739523Y628424D01*
X739524Y628398D01*
X739565Y628256D01*
X739601Y628112D01*
X739613Y628089D01*
X739621Y628063D01*
X739693Y627934D01*
X739761Y627802D01*
X739778Y627782D01*
X739791Y627759D01*
X739949Y627573D01*
X741769Y625754D01*
X742697Y623513D01*
X742697Y621087D01*
X741769Y618846D01*
X740054Y617131D01*
X737813Y616203D01*
X735387Y616203D01*
X733146Y617131D01*
X731431Y618846D01*
X730503Y621087D01*
X730503Y622736D01*
X730489Y622861D01*
X730482Y622988D01*
X730469Y623034D01*
X730463Y623082D01*
X730421Y623201D01*
X730386Y623322D01*
X730362Y623365D01*
X730346Y623410D01*
X730277Y623516D01*
X730216Y623627D01*
X730176Y623673D01*
X730157Y623703D01*
X730122Y623736D01*
X730057Y623813D01*
X720343Y633527D01*
X720343Y698900D01*
X720332Y699000D01*
X720330Y699100D01*
X720312Y699172D01*
X720303Y699246D01*
X720270Y699340D01*
X720245Y699438D01*
X720211Y699504D01*
X720186Y699574D01*
X720131Y699658D01*
X720085Y699748D01*
X720037Y699804D01*
X719997Y699867D01*
X719925Y699937D01*
X719860Y700013D01*
X719800Y700057D01*
X719746Y700109D01*
X719660Y700161D01*
X719579Y700220D01*
X719511Y700250D01*
X719447Y700288D01*
X719351Y700319D01*
X719259Y700358D01*
X719186Y700371D01*
X719115Y700394D01*
X719015Y700402D01*
X718916Y700420D01*
X718842Y700416D01*
X718768Y700422D01*
X718668Y700407D01*
X718568Y700402D01*
X718497Y700381D01*
X718423Y700370D01*
X718330Y700333D01*
X718233Y700305D01*
X718168Y700269D01*
X718099Y700242D01*
X718017Y700184D01*
X717929Y700135D01*
X717853Y700070D01*
X717813Y700043D01*
X717789Y700016D01*
X717743Y699977D01*
X717235Y699469D01*
X717156Y699370D01*
X717072Y699276D01*
X717048Y699234D01*
X717018Y699196D01*
X716964Y699082D01*
X716903Y698971D01*
X716890Y698924D01*
X716869Y698881D01*
X716843Y698757D01*
X716808Y698635D01*
X716803Y698575D01*
X716796Y698540D01*
X716797Y698492D01*
X716789Y698392D01*
X716789Y559888D01*
X716803Y559763D01*
X716810Y559636D01*
X716823Y559590D01*
X716829Y559542D01*
X716871Y559423D01*
X716906Y559302D01*
X716930Y559259D01*
X716946Y559214D01*
X717015Y559108D01*
X717076Y558997D01*
X717116Y558951D01*
X717135Y558921D01*
X717170Y558888D01*
X717235Y558811D01*
X750835Y525211D01*
X750934Y525132D01*
X751028Y525048D01*
X751070Y525024D01*
X751108Y524994D01*
X751222Y524940D01*
X751333Y524879D01*
X751380Y524866D01*
X751423Y524845D01*
X751547Y524819D01*
X751668Y524784D01*
X751729Y524779D01*
X751764Y524772D01*
X751812Y524773D01*
X751912Y524765D01*
X778707Y524765D01*
X778807Y524776D01*
X778907Y524778D01*
X778979Y524796D01*
X779053Y524805D01*
X779148Y524838D01*
X779245Y524863D01*
X779311Y524897D01*
X779381Y524922D01*
X779466Y524977D01*
X779555Y525023D01*
X779611Y525071D01*
X779674Y525111D01*
X779744Y525183D01*
X779820Y525248D01*
X779864Y525308D01*
X779916Y525362D01*
X779968Y525448D01*
X780027Y525529D01*
X780057Y525597D01*
X780095Y525661D01*
X780126Y525756D01*
X780165Y525849D01*
X780179Y525922D01*
X780201Y525993D01*
X780209Y526093D01*
X780227Y526192D01*
X780223Y526266D01*
X780229Y526340D01*
X780214Y526439D01*
X780209Y526540D01*
X780188Y526611D01*
X780177Y526685D01*
X780140Y526778D01*
X780113Y526875D01*
X780076Y526940D01*
X780049Y527009D01*
X779991Y527091D01*
X779942Y527179D01*
X779877Y527255D01*
X779850Y527295D01*
X779823Y527319D01*
X779784Y527365D01*
X779217Y527932D01*
X777747Y531480D01*
X777747Y535320D01*
X779217Y538868D01*
X781932Y541583D01*
X785480Y543053D01*
X789320Y543053D01*
X792868Y541583D01*
X795583Y538868D01*
X797053Y535320D01*
X797053Y531480D01*
X795583Y527932D01*
X795016Y527365D01*
X794954Y527286D01*
X794884Y527214D01*
X794846Y527150D01*
X794799Y527092D01*
X794757Y527001D01*
X794705Y526915D01*
X794682Y526844D01*
X794651Y526777D01*
X794629Y526679D01*
X794599Y526583D01*
X794593Y526509D01*
X794577Y526436D01*
X794579Y526336D01*
X794571Y526236D01*
X794582Y526162D01*
X794583Y526088D01*
X794608Y525991D01*
X794623Y525891D01*
X794650Y525822D01*
X794668Y525750D01*
X794714Y525661D01*
X794751Y525567D01*
X794794Y525506D01*
X794828Y525440D01*
X794893Y525363D01*
X794950Y525281D01*
X795005Y525231D01*
X795054Y525175D01*
X795134Y525115D01*
X795209Y525048D01*
X795274Y525012D01*
X795334Y524967D01*
X795426Y524928D01*
X795514Y524879D01*
X795586Y524859D01*
X795654Y524829D01*
X795753Y524812D01*
X795849Y524784D01*
X795949Y524776D01*
X795997Y524768D01*
X796033Y524770D01*
X796093Y524765D01*
X804107Y524765D01*
X804207Y524776D01*
X804307Y524778D01*
X804379Y524796D01*
X804453Y524805D01*
X804548Y524838D01*
X804645Y524863D01*
X804711Y524897D01*
X804781Y524922D01*
X804866Y524977D01*
X804955Y525023D01*
X805011Y525071D01*
X805074Y525111D01*
X805144Y525183D01*
X805220Y525248D01*
X805264Y525308D01*
X805316Y525362D01*
X805368Y525448D01*
X805427Y525529D01*
X805457Y525597D01*
X805495Y525661D01*
X805526Y525756D01*
X805565Y525849D01*
X805579Y525922D01*
X805601Y525993D01*
X805609Y526093D01*
X805627Y526192D01*
X805623Y526266D01*
X805629Y526340D01*
X805614Y526439D01*
X805609Y526540D01*
X805588Y526611D01*
X805577Y526685D01*
X805540Y526778D01*
X805513Y526875D01*
X805476Y526940D01*
X805449Y527009D01*
X805391Y527091D01*
X805342Y527179D01*
X805277Y527255D01*
X805250Y527295D01*
X805223Y527319D01*
X805184Y527365D01*
X804617Y527932D01*
X803147Y531480D01*
X803147Y535320D01*
X804617Y538868D01*
X807332Y541583D01*
X810880Y543053D01*
X814720Y543053D01*
X818268Y541583D01*
X820983Y538868D01*
X822453Y535320D01*
X822453Y531480D01*
X821806Y529919D01*
X821765Y529773D01*
X821719Y529631D01*
X821717Y529607D01*
X821710Y529584D01*
X821703Y529433D01*
X821691Y529284D01*
X821695Y529260D01*
X821693Y529236D01*
X821720Y529088D01*
X821743Y528939D01*
X821752Y528917D01*
X821756Y528893D01*
X821816Y528755D01*
X821871Y528615D01*
X821885Y528595D01*
X821895Y528573D01*
X821985Y528452D01*
X822070Y528329D01*
X822088Y528313D01*
X822103Y528293D01*
X822218Y528196D01*
X822329Y528096D01*
X822350Y528084D01*
X822369Y528068D01*
X822502Y528000D01*
X822634Y527927D01*
X822658Y527921D01*
X822679Y527910D01*
X822825Y527873D01*
X822970Y527832D01*
X822999Y527830D01*
X823017Y527825D01*
X823064Y527825D01*
X823213Y527813D01*
X849924Y527813D01*
X850072Y527830D01*
X850223Y527842D01*
X850246Y527850D01*
X850270Y527853D01*
X850411Y527903D01*
X850554Y527949D01*
X850575Y527962D01*
X850598Y527970D01*
X850724Y528052D01*
X850853Y528129D01*
X850870Y528146D01*
X850891Y528159D01*
X850995Y528267D01*
X851103Y528372D01*
X851116Y528392D01*
X851133Y528410D01*
X851210Y528539D01*
X851291Y528665D01*
X851299Y528688D01*
X851312Y528709D01*
X851357Y528852D01*
X851408Y528994D01*
X851411Y529018D01*
X851418Y529041D01*
X851430Y529190D01*
X851447Y529340D01*
X851444Y529364D01*
X851446Y529388D01*
X851424Y529536D01*
X851406Y529686D01*
X851397Y529714D01*
X851394Y529733D01*
X851377Y529776D01*
X851331Y529919D01*
X850391Y532187D01*
X850391Y534613D01*
X851319Y536854D01*
X853034Y538569D01*
X855275Y539497D01*
X857701Y539497D01*
X859942Y538569D01*
X861107Y537403D01*
X861206Y537324D01*
X861300Y537240D01*
X861342Y537216D01*
X861380Y537186D01*
X861494Y537132D01*
X861605Y537071D01*
X861652Y537058D01*
X861695Y537037D01*
X861819Y537011D01*
X861941Y536976D01*
X862001Y536971D01*
X862036Y536964D01*
X862084Y536965D01*
X862184Y536957D01*
X875720Y536957D01*
X875845Y536971D01*
X875972Y536978D01*
X876018Y536991D01*
X876066Y536997D01*
X876185Y537039D01*
X876306Y537074D01*
X876349Y537098D01*
X876394Y537114D01*
X876500Y537183D01*
X876611Y537244D01*
X876657Y537284D01*
X876687Y537303D01*
X876720Y537338D01*
X876797Y537403D01*
X882965Y543571D01*
X883044Y543670D01*
X883128Y543764D01*
X883152Y543806D01*
X883182Y543844D01*
X883236Y543958D01*
X883297Y544069D01*
X883310Y544116D01*
X883331Y544159D01*
X883357Y544283D01*
X883392Y544404D01*
X883397Y544465D01*
X883404Y544500D01*
X883403Y544548D01*
X883411Y544648D01*
X883411Y545992D01*
X883397Y546117D01*
X883390Y546243D01*
X883377Y546290D01*
X883371Y546338D01*
X883329Y546457D01*
X883294Y546578D01*
X883270Y546620D01*
X883254Y546666D01*
X883185Y546772D01*
X883124Y546883D01*
X883084Y546929D01*
X883065Y546959D01*
X883030Y546992D01*
X882965Y547069D01*
X881799Y548234D01*
X880871Y550475D01*
X880871Y552901D01*
X881799Y555142D01*
X883514Y556857D01*
X885755Y557785D01*
X888181Y557785D01*
X890449Y556845D01*
X890594Y556804D01*
X890737Y556758D01*
X890761Y556756D01*
X890784Y556749D01*
X890935Y556742D01*
X891084Y556730D01*
X891108Y556734D01*
X891132Y556733D01*
X891280Y556760D01*
X891429Y556782D01*
X891451Y556791D01*
X891475Y556795D01*
X891613Y556855D01*
X891753Y556911D01*
X891773Y556924D01*
X891795Y556934D01*
X891916Y557024D01*
X892039Y557109D01*
X892055Y557127D01*
X892075Y557142D01*
X892172Y557257D01*
X892272Y557368D01*
X892284Y557389D01*
X892300Y557408D01*
X892368Y557541D01*
X892441Y557673D01*
X892447Y557697D01*
X892458Y557718D01*
X892495Y557864D01*
X892536Y558009D01*
X892538Y558038D01*
X892543Y558056D01*
X892543Y558103D01*
X892555Y558252D01*
X892555Y570920D01*
X892541Y571045D01*
X892534Y571172D01*
X892521Y571218D01*
X892515Y571266D01*
X892473Y571385D01*
X892438Y571506D01*
X892414Y571549D01*
X892398Y571594D01*
X892329Y571700D01*
X892268Y571811D01*
X892228Y571857D01*
X892209Y571887D01*
X892174Y571920D01*
X892109Y571997D01*
X882893Y581213D01*
X882794Y581292D01*
X882700Y581376D01*
X882658Y581400D01*
X882620Y581430D01*
X882506Y581484D01*
X882395Y581545D01*
X882348Y581558D01*
X882305Y581579D01*
X882181Y581605D01*
X882060Y581640D01*
X881999Y581645D01*
X881964Y581652D01*
X881916Y581651D01*
X881816Y581659D01*
X862184Y581659D01*
X862059Y581645D01*
X861932Y581638D01*
X861886Y581625D01*
X861838Y581619D01*
X861719Y581577D01*
X861598Y581542D01*
X861555Y581518D01*
X861510Y581502D01*
X861404Y581433D01*
X861293Y581372D01*
X861247Y581332D01*
X861217Y581313D01*
X861184Y581278D01*
X861107Y581213D01*
X859942Y580047D01*
X857701Y579119D01*
X855275Y579119D01*
X853034Y580047D01*
X851319Y581762D01*
X850391Y584003D01*
X850391Y586429D01*
X851319Y588670D01*
X853034Y590385D01*
X855275Y591313D01*
X857701Y591313D01*
X859942Y590385D01*
X861107Y589219D01*
X861206Y589140D01*
X861300Y589056D01*
X861342Y589032D01*
X861380Y589002D01*
X861494Y588948D01*
X861605Y588887D01*
X861652Y588874D01*
X861695Y588853D01*
X861819Y588827D01*
X861941Y588792D01*
X862001Y588787D01*
X862036Y588780D01*
X862084Y588781D01*
X862184Y588773D01*
X885393Y588773D01*
X887923Y586243D01*
X899099Y575067D01*
X899177Y575005D01*
X899250Y574935D01*
X899314Y574897D01*
X899372Y574850D01*
X899463Y574808D01*
X899549Y574756D01*
X899620Y574733D01*
X899687Y574702D01*
X899785Y574680D01*
X899881Y574650D01*
X899955Y574644D01*
X900028Y574628D01*
X900128Y574630D01*
X900228Y574622D01*
X900302Y574633D01*
X900376Y574634D01*
X900473Y574659D01*
X900573Y574673D01*
X900642Y574701D01*
X900714Y574719D01*
X900804Y574765D01*
X900897Y574802D01*
X900958Y574845D01*
X901024Y574879D01*
X901101Y574944D01*
X901183Y575001D01*
X901233Y575056D01*
X901289Y575105D01*
X901349Y575185D01*
X901416Y575260D01*
X901452Y575325D01*
X901497Y575385D01*
X901536Y575477D01*
X901585Y575565D01*
X901605Y575637D01*
X901635Y575705D01*
X901652Y575804D01*
X901680Y575900D01*
X901688Y576000D01*
X901696Y576048D01*
X901694Y576084D01*
X901699Y576144D01*
X901699Y613592D01*
X901685Y613717D01*
X901678Y613844D01*
X901665Y613890D01*
X901659Y613938D01*
X901617Y614057D01*
X901582Y614178D01*
X901558Y614221D01*
X901542Y614266D01*
X901473Y614372D01*
X901412Y614483D01*
X901372Y614529D01*
X901353Y614559D01*
X901318Y614592D01*
X901253Y614669D01*
X836665Y679257D01*
X836566Y679336D01*
X836472Y679420D01*
X836430Y679444D01*
X836392Y679474D01*
X836278Y679528D01*
X836167Y679589D01*
X836120Y679602D01*
X836077Y679623D01*
X835953Y679649D01*
X835832Y679684D01*
X835771Y679689D01*
X835736Y679696D01*
X835688Y679695D01*
X835588Y679703D01*
X833939Y679703D01*
X831671Y680643D01*
X831526Y680684D01*
X831383Y680730D01*
X831359Y680732D01*
X831336Y680739D01*
X831185Y680746D01*
X831036Y680758D01*
X831012Y680754D01*
X830988Y680756D01*
X830840Y680729D01*
X830691Y680706D01*
X830669Y680697D01*
X830645Y680693D01*
X830507Y680633D01*
X830367Y680578D01*
X830347Y680564D01*
X830325Y680554D01*
X830204Y680464D01*
X830081Y680379D01*
X830065Y680361D01*
X830045Y680346D01*
X829948Y680231D01*
X829848Y680120D01*
X829836Y680099D01*
X829820Y680080D01*
X829752Y679946D01*
X829679Y679815D01*
X829673Y679791D01*
X829662Y679770D01*
X829625Y679624D01*
X829584Y679479D01*
X829582Y679450D01*
X829577Y679432D01*
X829577Y679385D01*
X829565Y679236D01*
X829565Y670160D01*
X829579Y670035D01*
X829586Y669909D01*
X829599Y669862D01*
X829605Y669814D01*
X829647Y669695D01*
X829682Y669574D01*
X829706Y669532D01*
X829722Y669486D01*
X829791Y669380D01*
X829852Y669269D01*
X829892Y669223D01*
X829911Y669193D01*
X829946Y669160D01*
X830011Y669083D01*
X831177Y667918D01*
X832105Y665677D01*
X832105Y663251D01*
X831177Y661010D01*
X829462Y659295D01*
X827221Y658367D01*
X824795Y658367D01*
X824163Y658629D01*
X824138Y658636D01*
X824115Y658648D01*
X823971Y658684D01*
X823828Y658725D01*
X823802Y658726D01*
X823776Y658732D01*
X823628Y658734D01*
X823480Y658742D01*
X823454Y658737D01*
X823428Y658737D01*
X823283Y658706D01*
X823137Y658679D01*
X823113Y658669D01*
X823087Y658663D01*
X822954Y658599D01*
X822818Y658540D01*
X822796Y658525D01*
X822773Y658513D01*
X822657Y658421D01*
X822538Y658332D01*
X822521Y658312D01*
X822500Y658296D01*
X822409Y658180D01*
X822313Y658066D01*
X822301Y658043D01*
X822284Y658022D01*
X822173Y657805D01*
X820983Y654932D01*
X818268Y652217D01*
X814720Y650747D01*
X810880Y650747D01*
X807332Y652217D01*
X804617Y654932D01*
X803147Y658480D01*
X803147Y662320D01*
X804617Y665868D01*
X807332Y668583D01*
X810880Y670053D01*
X814720Y670053D01*
X818268Y668583D01*
X818809Y668042D01*
X818830Y668025D01*
X818847Y668005D01*
X818966Y667917D01*
X819082Y667825D01*
X819106Y667814D01*
X819127Y667798D01*
X819263Y667740D01*
X819397Y667676D01*
X819423Y667671D01*
X819447Y667660D01*
X819593Y667634D01*
X819738Y667603D01*
X819764Y667603D01*
X819790Y667599D01*
X819939Y667606D01*
X820087Y667609D01*
X820112Y667615D01*
X820138Y667616D01*
X820280Y667657D01*
X820425Y667694D01*
X820448Y667706D01*
X820473Y667713D01*
X820602Y667785D01*
X820734Y667853D01*
X820754Y667870D01*
X820777Y667883D01*
X820964Y668042D01*
X822005Y669083D01*
X822084Y669182D01*
X822168Y669276D01*
X822192Y669318D01*
X822222Y669356D01*
X822276Y669470D01*
X822337Y669581D01*
X822350Y669628D01*
X822371Y669671D01*
X822397Y669795D01*
X822432Y669917D01*
X822437Y669977D01*
X822444Y670012D01*
X822443Y670060D01*
X822451Y670160D01*
X822451Y678123D01*
X822440Y678223D01*
X822438Y678323D01*
X822420Y678395D01*
X822411Y678469D01*
X822378Y678563D01*
X822353Y678661D01*
X822319Y678727D01*
X822294Y678797D01*
X822239Y678881D01*
X822193Y678971D01*
X822145Y679027D01*
X822105Y679090D01*
X822033Y679160D01*
X821968Y679236D01*
X821908Y679280D01*
X821854Y679332D01*
X821768Y679384D01*
X821687Y679443D01*
X821619Y679473D01*
X821555Y679511D01*
X821459Y679542D01*
X821367Y679581D01*
X821294Y679594D01*
X821223Y679617D01*
X821123Y679625D01*
X821024Y679643D01*
X820950Y679639D01*
X820876Y679645D01*
X820776Y679630D01*
X820676Y679625D01*
X820605Y679604D01*
X820531Y679593D01*
X820438Y679556D01*
X820341Y679529D01*
X820276Y679492D01*
X820207Y679465D01*
X820125Y679407D01*
X820037Y679358D01*
X819961Y679293D01*
X819921Y679266D01*
X819897Y679239D01*
X819851Y679200D01*
X818268Y677617D01*
X814720Y676147D01*
X810880Y676147D01*
X807332Y677617D01*
X804617Y680332D01*
X803147Y683880D01*
X803147Y687720D01*
X804617Y691268D01*
X807332Y693983D01*
X810880Y695453D01*
X814720Y695453D01*
X818268Y693983D01*
X819851Y692400D01*
X819930Y692338D01*
X820002Y692268D01*
X820066Y692230D01*
X820124Y692183D01*
X820215Y692141D01*
X820301Y692089D01*
X820372Y692066D01*
X820439Y692035D01*
X820537Y692013D01*
X820633Y691983D01*
X820707Y691977D01*
X820780Y691961D01*
X820880Y691963D01*
X820980Y691955D01*
X821054Y691966D01*
X821128Y691967D01*
X821225Y691992D01*
X821325Y692007D01*
X821394Y692034D01*
X821466Y692052D01*
X821555Y692098D01*
X821649Y692135D01*
X821710Y692178D01*
X821776Y692212D01*
X821852Y692277D01*
X821935Y692334D01*
X821985Y692389D01*
X822041Y692438D01*
X822101Y692518D01*
X822168Y692593D01*
X822204Y692658D01*
X822249Y692718D01*
X822288Y692810D01*
X822337Y692898D01*
X822357Y692970D01*
X822387Y693038D01*
X822404Y693137D01*
X822432Y693233D01*
X822440Y693333D01*
X822448Y693381D01*
X822446Y693417D01*
X822451Y693477D01*
X822451Y703523D01*
X822440Y703623D01*
X822438Y703723D01*
X822420Y703795D01*
X822411Y703869D01*
X822378Y703963D01*
X822353Y704061D01*
X822319Y704127D01*
X822294Y704197D01*
X822239Y704281D01*
X822193Y704371D01*
X822145Y704427D01*
X822105Y704490D01*
X822033Y704560D01*
X821968Y704636D01*
X821908Y704680D01*
X821854Y704732D01*
X821768Y704784D01*
X821687Y704843D01*
X821619Y704873D01*
X821555Y704911D01*
X821459Y704942D01*
X821367Y704981D01*
X821294Y704994D01*
X821223Y705017D01*
X821123Y705025D01*
X821024Y705043D01*
X820950Y705039D01*
X820876Y705045D01*
X820776Y705030D01*
X820676Y705025D01*
X820605Y705004D01*
X820531Y704993D01*
X820438Y704956D01*
X820341Y704929D01*
X820276Y704892D01*
X820207Y704865D01*
X820125Y704807D01*
X820037Y704758D01*
X819961Y704693D01*
X819921Y704666D01*
X819897Y704639D01*
X819851Y704600D01*
X818268Y703017D01*
X814720Y701547D01*
X810880Y701547D01*
X807332Y703017D01*
X804617Y705732D01*
X803147Y709280D01*
X803147Y713120D01*
X804617Y716668D01*
X807216Y719267D01*
X807278Y719345D01*
X807348Y719418D01*
X807386Y719482D01*
X807433Y719540D01*
X807475Y719631D01*
X807527Y719717D01*
X807550Y719788D01*
X807581Y719855D01*
X807603Y719953D01*
X807633Y720049D01*
X807639Y720123D01*
X807655Y720196D01*
X807653Y720296D01*
X807661Y720396D01*
X807650Y720470D01*
X807649Y720544D01*
X807624Y720641D01*
X807609Y720741D01*
X807582Y720810D01*
X807564Y720882D01*
X807518Y720971D01*
X807481Y721065D01*
X807438Y721126D01*
X807404Y721192D01*
X807339Y721268D01*
X807282Y721351D01*
X807227Y721401D01*
X807178Y721457D01*
X807098Y721517D01*
X807023Y721584D01*
X806958Y721620D01*
X806898Y721665D01*
X806806Y721704D01*
X806718Y721753D01*
X806646Y721773D01*
X806578Y721803D01*
X806479Y721820D01*
X806383Y721848D01*
X806283Y721856D01*
X806235Y721864D01*
X806199Y721862D01*
X806139Y721867D01*
X794692Y721867D01*
X794647Y721862D01*
X794602Y721865D01*
X794474Y721842D01*
X794346Y721827D01*
X794303Y721812D01*
X794258Y721804D01*
X794140Y721753D01*
X794018Y721710D01*
X793980Y721685D01*
X793938Y721667D01*
X793834Y721591D01*
X793725Y721521D01*
X793693Y721488D01*
X793657Y721461D01*
X793573Y721363D01*
X793483Y721270D01*
X793460Y721231D01*
X793430Y721197D01*
X793370Y721082D01*
X793304Y720971D01*
X793290Y720928D01*
X793269Y720887D01*
X793237Y720762D01*
X793198Y720639D01*
X793194Y720594D01*
X793183Y720550D01*
X793180Y720420D01*
X793170Y720292D01*
X793177Y720247D01*
X793176Y720201D01*
X793202Y720075D01*
X793222Y719947D01*
X793239Y719905D01*
X793248Y719860D01*
X793303Y719743D01*
X793350Y719623D01*
X793376Y719586D01*
X793396Y719545D01*
X793476Y719443D01*
X793549Y719337D01*
X793583Y719307D01*
X793611Y719271D01*
X793797Y719112D01*
X794019Y718950D01*
X795150Y717819D01*
X796090Y716525D01*
X796816Y715100D01*
X797259Y713739D01*
X788416Y713739D01*
X788390Y713736D01*
X788364Y713738D01*
X788217Y713716D01*
X788070Y713699D01*
X788045Y713691D01*
X788019Y713687D01*
X787882Y713632D01*
X787742Y713582D01*
X787720Y713568D01*
X787695Y713558D01*
X787574Y713473D01*
X787449Y713393D01*
X787431Y713374D01*
X787409Y713359D01*
X787395Y713343D01*
X787310Y713425D01*
X787287Y713439D01*
X787268Y713456D01*
X787138Y713528D01*
X787011Y713604D01*
X786986Y713612D01*
X786963Y713625D01*
X786820Y713665D01*
X786679Y713710D01*
X786653Y713712D01*
X786628Y713720D01*
X786384Y713739D01*
X777541Y713739D01*
X777984Y715100D01*
X778710Y716525D01*
X779650Y717819D01*
X780781Y718950D01*
X781003Y719112D01*
X781037Y719142D01*
X781075Y719167D01*
X781165Y719260D01*
X781260Y719347D01*
X781285Y719385D01*
X781317Y719418D01*
X781383Y719529D01*
X781456Y719635D01*
X781473Y719678D01*
X781496Y719717D01*
X781535Y719840D01*
X781582Y719960D01*
X781588Y720005D01*
X781602Y720049D01*
X781612Y720178D01*
X781630Y720305D01*
X781626Y720351D01*
X781630Y720396D01*
X781611Y720524D01*
X781599Y720653D01*
X781585Y720696D01*
X781578Y720741D01*
X781531Y720861D01*
X781490Y720984D01*
X781466Y721022D01*
X781450Y721065D01*
X781376Y721171D01*
X781309Y721281D01*
X781277Y721314D01*
X781251Y721351D01*
X781155Y721437D01*
X781064Y721529D01*
X781026Y721554D01*
X780992Y721584D01*
X780879Y721647D01*
X780770Y721716D01*
X780727Y721731D01*
X780687Y721753D01*
X780563Y721788D01*
X780441Y721830D01*
X780395Y721835D01*
X780351Y721848D01*
X780108Y721867D01*
X751383Y721867D01*
X748781Y724469D01*
X746251Y726999D01*
X746251Y857432D01*
X746237Y857557D01*
X746230Y857684D01*
X746217Y857730D01*
X746211Y857778D01*
X746169Y857897D01*
X746134Y858018D01*
X746110Y858061D01*
X746094Y858106D01*
X746025Y858212D01*
X745964Y858323D01*
X745924Y858369D01*
X745905Y858399D01*
X745870Y858432D01*
X745805Y858509D01*
X712205Y892109D01*
X712106Y892188D01*
X712012Y892272D01*
X711970Y892296D01*
X711932Y892326D01*
X711818Y892380D01*
X711707Y892441D01*
X711660Y892454D01*
X711617Y892475D01*
X711493Y892501D01*
X711372Y892536D01*
X711311Y892541D01*
X711276Y892548D01*
X711228Y892547D01*
X711128Y892555D01*
X651328Y892555D01*
X651203Y892541D01*
X651076Y892534D01*
X651030Y892521D01*
X650982Y892515D01*
X650863Y892473D01*
X650742Y892438D01*
X650699Y892414D01*
X650654Y892398D01*
X650548Y892329D01*
X650437Y892268D01*
X650391Y892228D01*
X650361Y892209D01*
X650328Y892174D01*
X650251Y892109D01*
X646623Y888481D01*
X646544Y888382D01*
X646460Y888288D01*
X646436Y888246D01*
X646406Y888208D01*
X646352Y888094D01*
X646291Y887983D01*
X646278Y887936D01*
X646257Y887893D01*
X646231Y887769D01*
X646196Y887648D01*
X646191Y887587D01*
X646184Y887552D01*
X646185Y887504D01*
X646177Y887404D01*
X646177Y885755D01*
X645249Y883514D01*
X643534Y881799D01*
X641293Y880871D01*
X638867Y880871D01*
X636626Y881799D01*
X634911Y883514D01*
X633983Y885755D01*
X633983Y888181D01*
X634911Y890422D01*
X636626Y892137D01*
X638867Y893065D01*
X640516Y893065D01*
X640641Y893079D01*
X640768Y893086D01*
X640814Y893099D01*
X640862Y893105D01*
X640981Y893147D01*
X641102Y893182D01*
X641145Y893206D01*
X641190Y893222D01*
X641296Y893291D01*
X641407Y893352D01*
X641453Y893392D01*
X641483Y893411D01*
X641516Y893446D01*
X641593Y893511D01*
X647751Y899669D01*
X714705Y899669D01*
X753365Y861009D01*
X753365Y776934D01*
X753370Y776884D01*
X753368Y776834D01*
X753390Y776711D01*
X753405Y776588D01*
X753422Y776541D01*
X753431Y776491D01*
X753480Y776377D01*
X753522Y776260D01*
X753549Y776217D01*
X753569Y776171D01*
X753644Y776071D01*
X753711Y775967D01*
X753747Y775932D01*
X753777Y775892D01*
X753872Y775811D01*
X753962Y775725D01*
X754005Y775699D01*
X754043Y775666D01*
X754154Y775610D01*
X754261Y775546D01*
X754309Y775531D01*
X754354Y775508D01*
X754474Y775478D01*
X754593Y775440D01*
X754643Y775436D01*
X754692Y775423D01*
X754816Y775422D01*
X754940Y775412D01*
X754990Y775419D01*
X755040Y775418D01*
X755162Y775445D01*
X755285Y775463D01*
X755332Y775482D01*
X755381Y775493D01*
X755493Y775546D01*
X755609Y775592D01*
X755650Y775621D01*
X755696Y775642D01*
X755793Y775720D01*
X755895Y775791D01*
X755929Y775828D01*
X755968Y775860D01*
X756045Y775957D01*
X756128Y776050D01*
X756153Y776094D01*
X756184Y776133D01*
X756295Y776351D01*
X756831Y777646D01*
X758546Y779361D01*
X760787Y780289D01*
X763213Y780289D01*
X765454Y779361D01*
X766619Y778195D01*
X766718Y778116D01*
X766812Y778032D01*
X766854Y778008D01*
X766892Y777978D01*
X767006Y777924D01*
X767117Y777863D01*
X767164Y777850D01*
X767207Y777829D01*
X767331Y777803D01*
X767453Y777768D01*
X767513Y777763D01*
X767548Y777756D01*
X767596Y777757D01*
X767696Y777749D01*
X779723Y777749D01*
X779823Y777760D01*
X779923Y777762D01*
X779995Y777780D01*
X780069Y777789D01*
X780163Y777822D01*
X780261Y777847D01*
X780327Y777881D01*
X780397Y777906D01*
X780481Y777961D01*
X780571Y778007D01*
X780627Y778055D01*
X780690Y778095D01*
X780760Y778167D01*
X780836Y778232D01*
X780880Y778292D01*
X780932Y778346D01*
X780984Y778432D01*
X781043Y778513D01*
X781073Y778581D01*
X781111Y778645D01*
X781142Y778741D01*
X781181Y778833D01*
X781194Y778906D01*
X781217Y778977D01*
X781225Y779077D01*
X781243Y779176D01*
X781239Y779250D01*
X781245Y779324D01*
X781230Y779424D01*
X781225Y779524D01*
X781204Y779595D01*
X781193Y779669D01*
X781156Y779762D01*
X781129Y779859D01*
X781092Y779924D01*
X781065Y779993D01*
X781007Y780075D01*
X780958Y780163D01*
X780893Y780239D01*
X780866Y780279D01*
X780839Y780303D01*
X780800Y780349D01*
X779217Y781932D01*
X777747Y785480D01*
X777747Y789320D01*
X779217Y792868D01*
X781932Y795583D01*
X785480Y797053D01*
X789320Y797053D01*
X792868Y795583D01*
X795583Y792868D01*
X797053Y789320D01*
X797053Y785480D01*
X795583Y781932D01*
X794000Y780349D01*
X793938Y780270D01*
X793868Y780198D01*
X793830Y780134D01*
X793783Y780076D01*
X793741Y779985D01*
X793689Y779899D01*
X793666Y779828D01*
X793635Y779761D01*
X793613Y779663D01*
X793583Y779567D01*
X793577Y779493D01*
X793561Y779420D01*
X793563Y779320D01*
X793555Y779220D01*
X793566Y779146D01*
X793567Y779072D01*
X793592Y778975D01*
X793607Y778875D01*
X793634Y778806D01*
X793652Y778734D01*
X793698Y778645D01*
X793735Y778551D01*
X793778Y778490D01*
X793812Y778424D01*
X793877Y778348D01*
X793934Y778265D01*
X793989Y778215D01*
X794038Y778159D01*
X794118Y778099D01*
X794193Y778032D01*
X794258Y777996D01*
X794318Y777951D01*
X794410Y777912D01*
X794498Y777863D01*
X794570Y777843D01*
X794638Y777813D01*
X794737Y777796D01*
X794833Y777768D01*
X794933Y777760D01*
X794981Y777752D01*
X795017Y777754D01*
X795077Y777749D01*
X805123Y777749D01*
X805223Y777760D01*
X805323Y777762D01*
X805395Y777780D01*
X805469Y777789D01*
X805563Y777822D01*
X805661Y777847D01*
X805727Y777881D01*
X805797Y777906D01*
X805881Y777961D01*
X805971Y778007D01*
X806027Y778055D01*
X806090Y778095D01*
X806160Y778167D01*
X806236Y778232D01*
X806280Y778292D01*
X806332Y778346D01*
X806384Y778432D01*
X806443Y778513D01*
X806473Y778581D01*
X806511Y778645D01*
X806542Y778741D01*
X806581Y778833D01*
X806594Y778906D01*
X806617Y778977D01*
X806625Y779077D01*
X806643Y779176D01*
X806639Y779250D01*
X806645Y779324D01*
X806630Y779424D01*
X806625Y779524D01*
X806604Y779595D01*
X806593Y779669D01*
X806556Y779762D01*
X806529Y779859D01*
X806492Y779924D01*
X806465Y779993D01*
X806407Y780075D01*
X806358Y780163D01*
X806293Y780239D01*
X806266Y780279D01*
X806239Y780303D01*
X806200Y780349D01*
X804617Y781932D01*
X803147Y785480D01*
X803147Y789320D01*
X804617Y792868D01*
X807332Y795583D01*
X810880Y797053D01*
X814720Y797053D01*
X818268Y795583D01*
X820983Y792868D01*
X822453Y789320D01*
X822453Y785480D01*
X820983Y781932D01*
X819400Y780349D01*
X819338Y780270D01*
X819268Y780198D01*
X819230Y780134D01*
X819183Y780076D01*
X819141Y779985D01*
X819089Y779899D01*
X819066Y779828D01*
X819035Y779761D01*
X819013Y779663D01*
X818983Y779567D01*
X818977Y779493D01*
X818961Y779420D01*
X818963Y779320D01*
X818955Y779220D01*
X818966Y779146D01*
X818967Y779072D01*
X818992Y778975D01*
X819007Y778875D01*
X819034Y778806D01*
X819052Y778734D01*
X819098Y778645D01*
X819135Y778551D01*
X819178Y778490D01*
X819212Y778424D01*
X819277Y778348D01*
X819334Y778265D01*
X819389Y778215D01*
X819438Y778159D01*
X819518Y778099D01*
X819593Y778032D01*
X819658Y777996D01*
X819718Y777951D01*
X819810Y777912D01*
X819898Y777863D01*
X819970Y777843D01*
X820038Y777813D01*
X820137Y777796D01*
X820233Y777768D01*
X820333Y777760D01*
X820381Y777752D01*
X820417Y777754D01*
X820477Y777749D01*
X876249Y777749D01*
X879359Y774639D01*
X879458Y774560D01*
X879552Y774476D01*
X879594Y774452D01*
X879632Y774422D01*
X879746Y774368D01*
X879857Y774307D01*
X879904Y774294D01*
X879947Y774273D01*
X880071Y774247D01*
X880192Y774212D01*
X880253Y774207D01*
X880288Y774200D01*
X880336Y774201D01*
X880436Y774193D01*
X882085Y774193D01*
X884326Y773265D01*
X886041Y771550D01*
X886969Y769309D01*
X886969Y766883D01*
X886041Y764642D01*
X884326Y762927D01*
X882085Y761999D01*
X879659Y761999D01*
X877418Y762927D01*
X875703Y764642D01*
X874775Y766883D01*
X874775Y768532D01*
X874761Y768657D01*
X874754Y768784D01*
X874741Y768830D01*
X874735Y768878D01*
X874693Y768997D01*
X874658Y769118D01*
X874634Y769161D01*
X874618Y769206D01*
X874549Y769312D01*
X874488Y769423D01*
X874448Y769469D01*
X874429Y769499D01*
X874394Y769532D01*
X874329Y769609D01*
X873749Y770189D01*
X873650Y770268D01*
X873556Y770352D01*
X873514Y770376D01*
X873476Y770406D01*
X873362Y770460D01*
X873251Y770521D01*
X873204Y770534D01*
X873161Y770555D01*
X873037Y770581D01*
X872916Y770616D01*
X872855Y770621D01*
X872820Y770628D01*
X872772Y770627D01*
X872672Y770635D01*
X821493Y770635D01*
X821393Y770624D01*
X821293Y770622D01*
X821221Y770604D01*
X821147Y770595D01*
X821052Y770562D01*
X820955Y770537D01*
X820889Y770503D01*
X820819Y770478D01*
X820734Y770423D01*
X820645Y770377D01*
X820589Y770329D01*
X820526Y770289D01*
X820456Y770217D01*
X820380Y770152D01*
X820336Y770092D01*
X820284Y770038D01*
X820232Y769952D01*
X820173Y769871D01*
X820143Y769803D01*
X820105Y769739D01*
X820074Y769644D01*
X820035Y769551D01*
X820021Y769478D01*
X819999Y769407D01*
X819991Y769307D01*
X819973Y769208D01*
X819977Y769134D01*
X819971Y769060D01*
X819986Y768961D01*
X819991Y768860D01*
X820012Y768789D01*
X820023Y768715D01*
X820060Y768622D01*
X820087Y768525D01*
X820124Y768460D01*
X820151Y768391D01*
X820209Y768309D01*
X820258Y768221D01*
X820323Y768145D01*
X820350Y768105D01*
X820377Y768081D01*
X820416Y768035D01*
X820983Y767468D01*
X822453Y763920D01*
X822453Y760080D01*
X820983Y756532D01*
X818268Y753817D01*
X814720Y752347D01*
X810880Y752347D01*
X807332Y753817D01*
X804617Y756532D01*
X803147Y760080D01*
X803147Y763920D01*
X804617Y767468D01*
X805184Y768035D01*
X805246Y768114D01*
X805316Y768186D01*
X805354Y768250D01*
X805401Y768308D01*
X805443Y768399D01*
X805495Y768485D01*
X805518Y768556D01*
X805549Y768623D01*
X805571Y768721D01*
X805601Y768817D01*
X805607Y768891D01*
X805623Y768964D01*
X805621Y769064D01*
X805629Y769164D01*
X805618Y769238D01*
X805617Y769312D01*
X805592Y769409D01*
X805577Y769509D01*
X805550Y769578D01*
X805532Y769650D01*
X805486Y769739D01*
X805449Y769833D01*
X805406Y769894D01*
X805372Y769960D01*
X805307Y770037D01*
X805250Y770119D01*
X805195Y770169D01*
X805146Y770225D01*
X805066Y770285D01*
X804991Y770352D01*
X804926Y770388D01*
X804866Y770433D01*
X804774Y770472D01*
X804686Y770521D01*
X804614Y770541D01*
X804546Y770571D01*
X804447Y770588D01*
X804351Y770616D01*
X804251Y770624D01*
X804203Y770632D01*
X804167Y770630D01*
X804107Y770635D01*
X796093Y770635D01*
X795993Y770624D01*
X795893Y770622D01*
X795821Y770604D01*
X795747Y770595D01*
X795652Y770562D01*
X795555Y770537D01*
X795489Y770503D01*
X795419Y770478D01*
X795334Y770423D01*
X795245Y770377D01*
X795189Y770329D01*
X795126Y770289D01*
X795056Y770217D01*
X794980Y770152D01*
X794936Y770092D01*
X794884Y770038D01*
X794832Y769952D01*
X794773Y769871D01*
X794743Y769803D01*
X794705Y769739D01*
X794674Y769644D01*
X794635Y769551D01*
X794621Y769478D01*
X794599Y769407D01*
X794591Y769307D01*
X794573Y769208D01*
X794577Y769134D01*
X794571Y769060D01*
X794586Y768961D01*
X794591Y768860D01*
X794612Y768789D01*
X794623Y768715D01*
X794660Y768622D01*
X794687Y768525D01*
X794724Y768460D01*
X794751Y768391D01*
X794809Y768309D01*
X794858Y768221D01*
X794923Y768145D01*
X794950Y768105D01*
X794977Y768081D01*
X795016Y768035D01*
X795583Y767468D01*
X797053Y763920D01*
X797053Y760080D01*
X795583Y756532D01*
X792868Y753817D01*
X789320Y752347D01*
X785480Y752347D01*
X781932Y753817D01*
X779217Y756532D01*
X777747Y760080D01*
X777747Y763920D01*
X779217Y767468D01*
X779784Y768035D01*
X779846Y768114D01*
X779916Y768186D01*
X779954Y768250D01*
X780001Y768308D01*
X780043Y768399D01*
X780095Y768485D01*
X780118Y768556D01*
X780149Y768623D01*
X780171Y768721D01*
X780201Y768817D01*
X780207Y768891D01*
X780223Y768964D01*
X780221Y769064D01*
X780229Y769164D01*
X780218Y769238D01*
X780217Y769312D01*
X780192Y769409D01*
X780177Y769509D01*
X780150Y769578D01*
X780132Y769650D01*
X780086Y769739D01*
X780049Y769833D01*
X780006Y769894D01*
X779972Y769960D01*
X779907Y770037D01*
X779850Y770119D01*
X779795Y770169D01*
X779746Y770225D01*
X779666Y770285D01*
X779591Y770352D01*
X779526Y770388D01*
X779466Y770433D01*
X779374Y770472D01*
X779286Y770521D01*
X779214Y770541D01*
X779146Y770571D01*
X779047Y770588D01*
X778951Y770616D01*
X778851Y770624D01*
X778803Y770632D01*
X778767Y770630D01*
X778707Y770635D01*
X767696Y770635D01*
X767571Y770621D01*
X767445Y770614D01*
X767398Y770601D01*
X767350Y770595D01*
X767231Y770553D01*
X767110Y770518D01*
X767068Y770494D01*
X767022Y770478D01*
X766916Y770409D01*
X766805Y770348D01*
X766759Y770308D01*
X766729Y770289D01*
X766696Y770254D01*
X766619Y770189D01*
X765454Y769023D01*
X763213Y768095D01*
X760787Y768095D01*
X758546Y769023D01*
X756831Y770738D01*
X756295Y772033D01*
X756271Y772077D01*
X756254Y772124D01*
X756186Y772229D01*
X756126Y772337D01*
X756092Y772375D01*
X756065Y772417D01*
X755975Y772504D01*
X755892Y772596D01*
X755850Y772624D01*
X755814Y772659D01*
X755707Y772723D01*
X755605Y772794D01*
X755558Y772812D01*
X755515Y772838D01*
X755397Y772876D01*
X755281Y772922D01*
X755231Y772929D01*
X755183Y772944D01*
X755059Y772954D01*
X754936Y772972D01*
X754886Y772968D01*
X754836Y772972D01*
X754713Y772954D01*
X754589Y772944D01*
X754541Y772928D01*
X754491Y772921D01*
X754376Y772875D01*
X754257Y772836D01*
X754214Y772810D01*
X754167Y772792D01*
X754065Y772721D01*
X753959Y772657D01*
X753922Y772622D01*
X753881Y772593D01*
X753798Y772501D01*
X753709Y772414D01*
X753681Y772372D01*
X753648Y772334D01*
X753588Y772225D01*
X753520Y772121D01*
X753503Y772073D01*
X753479Y772029D01*
X753445Y771909D01*
X753404Y771792D01*
X753398Y771742D01*
X753384Y771694D01*
X753365Y771450D01*
X753365Y730576D01*
X753379Y730451D01*
X753386Y730324D01*
X753399Y730278D01*
X753405Y730230D01*
X753447Y730111D01*
X753482Y729989D01*
X753506Y729947D01*
X753522Y729902D01*
X753591Y729795D01*
X753653Y729685D01*
X753692Y729639D01*
X753711Y729609D01*
X753746Y729576D01*
X753811Y729499D01*
X753883Y729427D01*
X753982Y729348D01*
X754076Y729264D01*
X754118Y729240D01*
X754156Y729210D01*
X754270Y729156D01*
X754381Y729095D01*
X754428Y729082D01*
X754472Y729061D01*
X754595Y729035D01*
X754716Y729000D01*
X754777Y728995D01*
X754812Y728988D01*
X754860Y728989D01*
X754960Y728981D01*
X777393Y728981D01*
X777429Y728985D01*
X777464Y728982D01*
X777601Y729005D01*
X777739Y729021D01*
X777773Y729033D01*
X777808Y729038D01*
X777937Y729091D01*
X778067Y729138D01*
X778097Y729158D01*
X778131Y729171D01*
X778243Y729252D01*
X778360Y729327D01*
X778385Y729353D01*
X778414Y729374D01*
X778506Y729478D01*
X778602Y729578D01*
X778621Y729609D01*
X778644Y729636D01*
X778710Y729758D01*
X778781Y729877D01*
X778792Y729911D01*
X778809Y729943D01*
X778845Y730077D01*
X778887Y730209D01*
X778890Y730245D01*
X778899Y730279D01*
X778904Y730418D01*
X778915Y730556D01*
X778910Y730592D01*
X778911Y730628D01*
X778884Y730763D01*
X778864Y730901D01*
X778850Y730934D01*
X778843Y730969D01*
X778750Y731196D01*
X777984Y732700D01*
X777541Y734061D01*
X786384Y734061D01*
X786410Y734064D01*
X786436Y734062D01*
X786583Y734084D01*
X786730Y734101D01*
X786755Y734109D01*
X786781Y734113D01*
X786918Y734168D01*
X787058Y734218D01*
X787080Y734232D01*
X787105Y734242D01*
X787226Y734327D01*
X787351Y734407D01*
X787369Y734426D01*
X787391Y734441D01*
X787405Y734457D01*
X787490Y734375D01*
X787513Y734361D01*
X787532Y734344D01*
X787662Y734272D01*
X787789Y734196D01*
X787814Y734188D01*
X787837Y734175D01*
X787980Y734135D01*
X788121Y734090D01*
X788147Y734087D01*
X788172Y734080D01*
X788416Y734061D01*
X797259Y734061D01*
X796816Y732700D01*
X796050Y731196D01*
X796037Y731162D01*
X796019Y731131D01*
X795977Y730999D01*
X795928Y730869D01*
X795924Y730833D01*
X795913Y730799D01*
X795902Y730661D01*
X795884Y730523D01*
X795888Y730488D01*
X795885Y730452D01*
X795905Y730315D01*
X795919Y730177D01*
X795931Y730143D01*
X795936Y730107D01*
X795988Y729978D01*
X796033Y729847D01*
X796052Y729817D01*
X796065Y729783D01*
X796144Y729669D01*
X796218Y729552D01*
X796244Y729527D01*
X796264Y729497D01*
X796367Y729404D01*
X796466Y729307D01*
X796496Y729288D01*
X796523Y729264D01*
X796644Y729197D01*
X796762Y729124D01*
X796797Y729112D01*
X796828Y729095D01*
X796961Y729057D01*
X797093Y729013D01*
X797129Y729010D01*
X797163Y729000D01*
X797407Y728981D01*
X803228Y728981D01*
X803377Y728998D01*
X803527Y729010D01*
X803551Y729018D01*
X803574Y729021D01*
X803716Y729071D01*
X803859Y729117D01*
X803880Y729130D01*
X803903Y729138D01*
X804029Y729220D01*
X804158Y729297D01*
X804175Y729314D01*
X804195Y729327D01*
X804300Y729436D01*
X804408Y729540D01*
X804421Y729560D01*
X804438Y729578D01*
X804515Y729707D01*
X804596Y729833D01*
X804604Y729856D01*
X804616Y729877D01*
X804662Y730020D01*
X804713Y730162D01*
X804715Y730186D01*
X804723Y730209D01*
X804735Y730358D01*
X804752Y730508D01*
X804749Y730532D01*
X804751Y730556D01*
X804728Y730705D01*
X804711Y730854D01*
X804702Y730882D01*
X804699Y730901D01*
X804681Y730945D01*
X804636Y731087D01*
X803147Y734680D01*
X803147Y738520D01*
X804617Y742068D01*
X807332Y744783D01*
X810880Y746253D01*
X814720Y746253D01*
X818268Y744783D01*
X820983Y742068D01*
X822453Y738520D01*
X822453Y734680D01*
X820983Y731132D01*
X819662Y729811D01*
X819645Y729790D01*
X819625Y729773D01*
X819537Y729654D01*
X819445Y729538D01*
X819434Y729514D01*
X819418Y729493D01*
X819359Y729357D01*
X819296Y729222D01*
X819291Y729197D01*
X819280Y729173D01*
X819254Y729027D01*
X819223Y728882D01*
X819223Y728856D01*
X819218Y728830D01*
X819226Y728681D01*
X819229Y728533D01*
X819235Y728508D01*
X819236Y728482D01*
X819278Y728339D01*
X819314Y728195D01*
X819326Y728172D01*
X819333Y728147D01*
X819405Y728017D01*
X819473Y727886D01*
X819490Y727866D01*
X819503Y727843D01*
X819662Y727656D01*
X829565Y717753D01*
X829565Y692364D01*
X829582Y692216D01*
X829594Y692065D01*
X829602Y692042D01*
X829605Y692018D01*
X829655Y691877D01*
X829701Y691734D01*
X829714Y691713D01*
X829722Y691690D01*
X829804Y691564D01*
X829881Y691435D01*
X829898Y691418D01*
X829911Y691397D01*
X830019Y691293D01*
X830124Y691185D01*
X830144Y691172D01*
X830162Y691155D01*
X830291Y691078D01*
X830417Y690997D01*
X830440Y690989D01*
X830461Y690976D01*
X830604Y690931D01*
X830746Y690880D01*
X830770Y690877D01*
X830793Y690870D01*
X830942Y690858D01*
X831092Y690841D01*
X831116Y690844D01*
X831140Y690842D01*
X831289Y690864D01*
X831438Y690882D01*
X831466Y690891D01*
X831485Y690894D01*
X831529Y690911D01*
X831671Y690957D01*
X833939Y691897D01*
X836365Y691897D01*
X838606Y690969D01*
X840321Y689254D01*
X841249Y687013D01*
X841249Y685364D01*
X841263Y685239D01*
X841270Y685112D01*
X841283Y685066D01*
X841289Y685018D01*
X841331Y684899D01*
X841366Y684778D01*
X841390Y684735D01*
X841406Y684690D01*
X841475Y684584D01*
X841536Y684473D01*
X841576Y684427D01*
X841595Y684397D01*
X841630Y684364D01*
X841695Y684287D01*
X908813Y617169D01*
X908813Y272847D01*
X875990Y240024D01*
X875897Y239906D01*
X875799Y239791D01*
X875788Y239770D01*
X875773Y239751D01*
X875709Y239615D01*
X875641Y239481D01*
X875635Y239458D01*
X875624Y239436D01*
X875593Y239289D01*
X875556Y239143D01*
X875556Y239119D01*
X875551Y239095D01*
X875554Y238945D01*
X875551Y238794D01*
X875557Y238771D01*
X875557Y238747D01*
X875594Y238601D01*
X875626Y238454D01*
X875636Y238432D01*
X875642Y238409D01*
X875711Y238275D01*
X875775Y238139D01*
X875791Y238120D01*
X875802Y238099D01*
X875899Y237984D01*
X875993Y237867D01*
X876012Y237852D01*
X876027Y237833D01*
X876148Y237744D01*
X876266Y237651D01*
X876292Y237638D01*
X876308Y237626D01*
X876351Y237608D01*
X876484Y237540D01*
X878230Y236817D01*
X879945Y235102D01*
X880873Y232861D01*
X880873Y230435D01*
X879945Y228194D01*
X878230Y226479D01*
X875989Y225551D01*
X874340Y225551D01*
X874215Y225537D01*
X874088Y225530D01*
X874042Y225517D01*
X873994Y225511D01*
X873875Y225469D01*
X873754Y225434D01*
X873711Y225410D01*
X873666Y225394D01*
X873560Y225325D01*
X873449Y225264D01*
X873403Y225224D01*
X873373Y225205D01*
X873340Y225170D01*
X873263Y225105D01*
X856437Y208279D01*
X591363Y208279D01*
G37*
%LPD*%
G36*
X692929Y232171D02*
X692929Y232171D01*
X693055Y232178D01*
X693102Y232191D01*
X693150Y232197D01*
X693269Y232239D01*
X693390Y232274D01*
X693432Y232298D01*
X693478Y232314D01*
X693584Y232383D01*
X693695Y232444D01*
X693741Y232484D01*
X693771Y232503D01*
X693804Y232538D01*
X693881Y232603D01*
X695046Y233769D01*
X696341Y234305D01*
X696385Y234329D01*
X696432Y234346D01*
X696537Y234414D01*
X696645Y234474D01*
X696683Y234508D01*
X696725Y234535D01*
X696812Y234625D01*
X696904Y234708D01*
X696932Y234750D01*
X696967Y234786D01*
X697031Y234893D01*
X697102Y234995D01*
X697120Y235042D01*
X697146Y235085D01*
X697184Y235203D01*
X697230Y235319D01*
X697237Y235369D01*
X697252Y235417D01*
X697262Y235541D01*
X697280Y235664D01*
X697276Y235714D01*
X697280Y235764D01*
X697262Y235887D01*
X697252Y236011D01*
X697236Y236059D01*
X697229Y236109D01*
X697183Y236224D01*
X697144Y236343D01*
X697118Y236386D01*
X697100Y236433D01*
X697029Y236535D01*
X696965Y236641D01*
X696930Y236678D01*
X696901Y236719D01*
X696809Y236802D01*
X696722Y236891D01*
X696680Y236919D01*
X696642Y236952D01*
X696533Y237012D01*
X696429Y237080D01*
X696381Y237097D01*
X696337Y237121D01*
X696217Y237155D01*
X696100Y237196D01*
X696050Y237202D01*
X696002Y237216D01*
X695758Y237235D01*
X681279Y237235D01*
X618235Y300279D01*
X618235Y326442D01*
X618230Y326492D01*
X618232Y326542D01*
X618210Y326665D01*
X618195Y326788D01*
X618178Y326836D01*
X618169Y326885D01*
X618120Y326999D01*
X618078Y327116D01*
X618051Y327159D01*
X618030Y327205D01*
X617956Y327304D01*
X617889Y327409D01*
X617853Y327444D01*
X617823Y327485D01*
X617728Y327565D01*
X617638Y327651D01*
X617595Y327677D01*
X617557Y327710D01*
X617446Y327766D01*
X617339Y327830D01*
X617291Y327845D01*
X617246Y327868D01*
X617126Y327898D01*
X617007Y327936D01*
X616957Y327940D01*
X616908Y327953D01*
X616784Y327954D01*
X616660Y327964D01*
X616610Y327957D01*
X616560Y327958D01*
X616438Y327931D01*
X616315Y327913D01*
X616268Y327894D01*
X616219Y327883D01*
X616107Y327830D01*
X615991Y327784D01*
X615950Y327755D01*
X615904Y327734D01*
X615807Y327656D01*
X615705Y327585D01*
X615672Y327548D01*
X615632Y327516D01*
X615555Y327418D01*
X615472Y327326D01*
X615447Y327282D01*
X615416Y327243D01*
X615305Y327025D01*
X614769Y325730D01*
X613054Y324015D01*
X610813Y323087D01*
X608387Y323087D01*
X606146Y324015D01*
X604431Y325730D01*
X603503Y327971D01*
X603503Y330397D01*
X604431Y332638D01*
X606146Y334353D01*
X608151Y335183D01*
X608218Y335220D01*
X608289Y335248D01*
X608370Y335304D01*
X608456Y335352D01*
X608512Y335404D01*
X608575Y335447D01*
X608641Y335520D01*
X608714Y335586D01*
X608757Y335649D01*
X608808Y335706D01*
X608856Y335792D01*
X608912Y335873D01*
X608940Y335944D01*
X608977Y336011D01*
X609004Y336106D01*
X609040Y336197D01*
X609051Y336273D01*
X609072Y336346D01*
X609084Y336495D01*
X609091Y336542D01*
X609089Y336561D01*
X609091Y336590D01*
X609091Y350920D01*
X609077Y351045D01*
X609070Y351171D01*
X609057Y351218D01*
X609051Y351266D01*
X609009Y351385D01*
X608974Y351506D01*
X608950Y351548D01*
X608934Y351594D01*
X608865Y351700D01*
X608804Y351811D01*
X608764Y351857D01*
X608745Y351887D01*
X608710Y351920D01*
X608645Y351997D01*
X607479Y353162D01*
X606551Y355403D01*
X606551Y357829D01*
X607479Y360070D01*
X609194Y361785D01*
X611435Y362713D01*
X613861Y362713D01*
X616129Y361773D01*
X616274Y361732D01*
X616417Y361686D01*
X616441Y361684D01*
X616464Y361677D01*
X616615Y361670D01*
X616764Y361658D01*
X616788Y361662D01*
X616812Y361660D01*
X616960Y361687D01*
X617109Y361710D01*
X617131Y361719D01*
X617155Y361723D01*
X617293Y361783D01*
X617433Y361838D01*
X617453Y361852D01*
X617475Y361862D01*
X617596Y361952D01*
X617719Y362037D01*
X617735Y362055D01*
X617755Y362070D01*
X617852Y362185D01*
X617952Y362296D01*
X617964Y362317D01*
X617980Y362336D01*
X618048Y362470D01*
X618121Y362601D01*
X618127Y362625D01*
X618138Y362646D01*
X618175Y362792D01*
X618216Y362937D01*
X618218Y362966D01*
X618223Y362984D01*
X618223Y363031D01*
X618235Y363180D01*
X618235Y363656D01*
X618221Y363781D01*
X618214Y363908D01*
X618201Y363954D01*
X618195Y364002D01*
X618153Y364121D01*
X618118Y364242D01*
X618094Y364285D01*
X618078Y364330D01*
X618009Y364436D01*
X617948Y364547D01*
X617908Y364593D01*
X617889Y364623D01*
X617854Y364656D01*
X617789Y364733D01*
X596899Y385623D01*
X596899Y452577D01*
X599429Y455107D01*
X619821Y475499D01*
X619900Y475598D01*
X619984Y475692D01*
X620008Y475734D01*
X620038Y475772D01*
X620092Y475886D01*
X620153Y475997D01*
X620166Y476044D01*
X620187Y476087D01*
X620213Y476211D01*
X620248Y476332D01*
X620253Y476393D01*
X620260Y476428D01*
X620259Y476476D01*
X620267Y476576D01*
X620267Y478225D01*
X621195Y480466D01*
X622910Y482181D01*
X625151Y483109D01*
X627577Y483109D01*
X629337Y482380D01*
X629482Y482338D01*
X629625Y482292D01*
X629649Y482291D01*
X629672Y482284D01*
X629823Y482277D01*
X629972Y482265D01*
X629996Y482268D01*
X630020Y482267D01*
X630168Y482294D01*
X630317Y482316D01*
X630339Y482325D01*
X630363Y482329D01*
X630501Y482389D01*
X630641Y482445D01*
X630661Y482459D01*
X630683Y482468D01*
X630804Y482558D01*
X630927Y482644D01*
X630943Y482662D01*
X630963Y482676D01*
X631060Y482791D01*
X631160Y482903D01*
X631172Y482924D01*
X631188Y482942D01*
X631256Y483076D01*
X631329Y483208D01*
X631335Y483231D01*
X631346Y483253D01*
X631383Y483398D01*
X631424Y483543D01*
X631426Y483572D01*
X631431Y483591D01*
X631431Y483638D01*
X631443Y483787D01*
X631443Y553104D01*
X631429Y553229D01*
X631422Y553356D01*
X631409Y553402D01*
X631403Y553450D01*
X631361Y553569D01*
X631326Y553690D01*
X631302Y553733D01*
X631286Y553778D01*
X631217Y553884D01*
X631156Y553995D01*
X631116Y554041D01*
X631097Y554071D01*
X631062Y554104D01*
X630997Y554181D01*
X629831Y555346D01*
X628903Y557587D01*
X628903Y560013D01*
X629831Y562254D01*
X631546Y563969D01*
X633787Y564897D01*
X636213Y564897D01*
X638454Y563969D01*
X640169Y562254D01*
X641097Y560013D01*
X641097Y557587D01*
X640169Y555346D01*
X639003Y554181D01*
X638924Y554082D01*
X638840Y553988D01*
X638816Y553946D01*
X638786Y553908D01*
X638732Y553794D01*
X638671Y553683D01*
X638658Y553636D01*
X638637Y553593D01*
X638611Y553469D01*
X638576Y553347D01*
X638571Y553287D01*
X638564Y553252D01*
X638565Y553204D01*
X638557Y553104D01*
X638557Y306904D01*
X638571Y306779D01*
X638578Y306652D01*
X638591Y306606D01*
X638597Y306558D01*
X638639Y306439D01*
X638674Y306318D01*
X638698Y306275D01*
X638714Y306230D01*
X638783Y306124D01*
X638844Y306013D01*
X638884Y305967D01*
X638903Y305937D01*
X638938Y305903D01*
X639003Y305827D01*
X674127Y270703D01*
X674226Y270624D01*
X674320Y270540D01*
X674362Y270516D01*
X674400Y270486D01*
X674514Y270432D01*
X674625Y270371D01*
X674672Y270358D01*
X674715Y270337D01*
X674839Y270311D01*
X674960Y270276D01*
X675021Y270271D01*
X675056Y270264D01*
X675104Y270265D01*
X675204Y270257D01*
X692804Y270257D01*
X692929Y270271D01*
X693055Y270278D01*
X693102Y270291D01*
X693150Y270297D01*
X693269Y270339D01*
X693390Y270374D01*
X693432Y270398D01*
X693478Y270414D01*
X693584Y270483D01*
X693695Y270544D01*
X693741Y270584D01*
X693771Y270603D01*
X693804Y270638D01*
X693881Y270703D01*
X695046Y271869D01*
X697287Y272797D01*
X699713Y272797D01*
X701954Y271869D01*
X703669Y270154D01*
X704597Y267913D01*
X704597Y265487D01*
X703669Y263246D01*
X701954Y261531D01*
X699713Y260603D01*
X697287Y260603D01*
X695046Y261531D01*
X693881Y262697D01*
X693782Y262776D01*
X693688Y262860D01*
X693646Y262884D01*
X693608Y262914D01*
X693494Y262968D01*
X693383Y263029D01*
X693336Y263042D01*
X693293Y263063D01*
X693169Y263089D01*
X693047Y263124D01*
X692987Y263129D01*
X692952Y263136D01*
X692904Y263135D01*
X692804Y263143D01*
X671627Y263143D01*
X669097Y265673D01*
X631443Y303327D01*
X631443Y470237D01*
X631426Y470386D01*
X631414Y470536D01*
X631406Y470559D01*
X631403Y470583D01*
X631353Y470725D01*
X631307Y470868D01*
X631294Y470889D01*
X631286Y470911D01*
X631204Y471038D01*
X631127Y471167D01*
X631110Y471184D01*
X631097Y471204D01*
X630988Y471309D01*
X630884Y471417D01*
X630864Y471430D01*
X630846Y471446D01*
X630717Y471524D01*
X630591Y471605D01*
X630568Y471613D01*
X630547Y471625D01*
X630404Y471671D01*
X630262Y471721D01*
X630238Y471724D01*
X630215Y471732D01*
X630066Y471744D01*
X629916Y471760D01*
X629892Y471758D01*
X629868Y471759D01*
X629719Y471737D01*
X629570Y471720D01*
X629542Y471711D01*
X629523Y471708D01*
X629479Y471690D01*
X629337Y471644D01*
X627577Y470915D01*
X625928Y470915D01*
X625803Y470901D01*
X625676Y470894D01*
X625630Y470881D01*
X625582Y470875D01*
X625463Y470833D01*
X625342Y470798D01*
X625299Y470774D01*
X625254Y470758D01*
X625148Y470689D01*
X625037Y470628D01*
X624991Y470588D01*
X624961Y470569D01*
X624928Y470534D01*
X624851Y470469D01*
X604459Y450077D01*
X604380Y449978D01*
X604296Y449884D01*
X604272Y449842D01*
X604242Y449804D01*
X604188Y449690D01*
X604127Y449579D01*
X604114Y449532D01*
X604093Y449489D01*
X604067Y449365D01*
X604032Y449244D01*
X604027Y449183D01*
X604020Y449148D01*
X604021Y449100D01*
X604013Y449000D01*
X604013Y389200D01*
X604027Y389075D01*
X604034Y388948D01*
X604047Y388902D01*
X604053Y388854D01*
X604095Y388735D01*
X604130Y388614D01*
X604154Y388571D01*
X604170Y388526D01*
X604239Y388420D01*
X604300Y388309D01*
X604340Y388263D01*
X604359Y388233D01*
X604394Y388200D01*
X604459Y388123D01*
X625349Y367233D01*
X625349Y303856D01*
X625363Y303731D01*
X625370Y303604D01*
X625383Y303558D01*
X625389Y303510D01*
X625431Y303391D01*
X625466Y303270D01*
X625490Y303227D01*
X625506Y303182D01*
X625575Y303076D01*
X625636Y302965D01*
X625676Y302919D01*
X625695Y302889D01*
X625730Y302856D01*
X625795Y302779D01*
X683779Y244795D01*
X683878Y244716D01*
X683972Y244632D01*
X684014Y244608D01*
X684052Y244578D01*
X684166Y244524D01*
X684277Y244463D01*
X684324Y244450D01*
X684367Y244429D01*
X684491Y244403D01*
X684612Y244368D01*
X684673Y244363D01*
X684708Y244356D01*
X684756Y244357D01*
X684856Y244349D01*
X779723Y244349D01*
X779823Y244360D01*
X779923Y244362D01*
X779995Y244380D01*
X780069Y244389D01*
X780163Y244422D01*
X780261Y244447D01*
X780327Y244481D01*
X780397Y244506D01*
X780481Y244561D01*
X780571Y244607D01*
X780627Y244655D01*
X780690Y244695D01*
X780760Y244767D01*
X780836Y244832D01*
X780880Y244892D01*
X780932Y244946D01*
X780984Y245032D01*
X781043Y245113D01*
X781073Y245181D01*
X781111Y245245D01*
X781142Y245341D01*
X781181Y245433D01*
X781194Y245506D01*
X781217Y245577D01*
X781225Y245677D01*
X781243Y245776D01*
X781239Y245850D01*
X781245Y245924D01*
X781230Y246024D01*
X781225Y246124D01*
X781204Y246195D01*
X781193Y246269D01*
X781156Y246362D01*
X781129Y246459D01*
X781092Y246524D01*
X781065Y246593D01*
X781007Y246675D01*
X780958Y246763D01*
X780893Y246839D01*
X780866Y246879D01*
X780839Y246903D01*
X780800Y246949D01*
X779217Y248532D01*
X777747Y252080D01*
X777747Y255920D01*
X779217Y259468D01*
X781932Y262183D01*
X785480Y263653D01*
X789320Y263653D01*
X792868Y262183D01*
X795583Y259468D01*
X797053Y255920D01*
X797053Y252080D01*
X795583Y248532D01*
X794000Y246949D01*
X793938Y246870D01*
X793868Y246798D01*
X793830Y246734D01*
X793783Y246676D01*
X793741Y246585D01*
X793689Y246499D01*
X793666Y246428D01*
X793635Y246361D01*
X793613Y246263D01*
X793583Y246167D01*
X793577Y246093D01*
X793561Y246020D01*
X793563Y245920D01*
X793555Y245820D01*
X793566Y245746D01*
X793567Y245672D01*
X793592Y245575D01*
X793607Y245475D01*
X793634Y245406D01*
X793652Y245334D01*
X793698Y245245D01*
X793735Y245151D01*
X793778Y245090D01*
X793812Y245024D01*
X793877Y244948D01*
X793934Y244865D01*
X793989Y244815D01*
X794038Y244759D01*
X794118Y244699D01*
X794193Y244632D01*
X794258Y244596D01*
X794318Y244551D01*
X794410Y244512D01*
X794498Y244463D01*
X794570Y244443D01*
X794638Y244413D01*
X794737Y244396D01*
X794833Y244368D01*
X794933Y244360D01*
X794981Y244352D01*
X795017Y244354D01*
X795077Y244349D01*
X805123Y244349D01*
X805223Y244360D01*
X805323Y244362D01*
X805395Y244380D01*
X805469Y244389D01*
X805563Y244422D01*
X805661Y244447D01*
X805727Y244481D01*
X805797Y244506D01*
X805881Y244561D01*
X805971Y244607D01*
X806027Y244655D01*
X806090Y244695D01*
X806160Y244767D01*
X806236Y244832D01*
X806280Y244892D01*
X806332Y244946D01*
X806384Y245032D01*
X806443Y245113D01*
X806473Y245181D01*
X806511Y245245D01*
X806542Y245341D01*
X806581Y245433D01*
X806594Y245506D01*
X806617Y245577D01*
X806625Y245677D01*
X806643Y245776D01*
X806639Y245850D01*
X806645Y245924D01*
X806630Y246024D01*
X806625Y246124D01*
X806604Y246195D01*
X806593Y246269D01*
X806556Y246362D01*
X806529Y246459D01*
X806492Y246524D01*
X806465Y246593D01*
X806407Y246675D01*
X806358Y246763D01*
X806293Y246839D01*
X806266Y246879D01*
X806239Y246903D01*
X806200Y246949D01*
X804617Y248532D01*
X803147Y252080D01*
X803147Y255920D01*
X804617Y259468D01*
X807332Y262183D01*
X810880Y263653D01*
X814720Y263653D01*
X818268Y262183D01*
X820983Y259468D01*
X822453Y255920D01*
X822453Y252080D01*
X820983Y248532D01*
X819400Y246949D01*
X819338Y246870D01*
X819268Y246798D01*
X819230Y246734D01*
X819183Y246676D01*
X819141Y246585D01*
X819089Y246499D01*
X819066Y246428D01*
X819035Y246361D01*
X819013Y246263D01*
X818983Y246167D01*
X818977Y246093D01*
X818961Y246020D01*
X818963Y245920D01*
X818955Y245820D01*
X818966Y245746D01*
X818967Y245672D01*
X818992Y245575D01*
X819007Y245475D01*
X819034Y245406D01*
X819052Y245334D01*
X819098Y245245D01*
X819135Y245151D01*
X819178Y245090D01*
X819212Y245024D01*
X819277Y244948D01*
X819334Y244865D01*
X819389Y244815D01*
X819438Y244759D01*
X819518Y244699D01*
X819593Y244632D01*
X819658Y244596D01*
X819718Y244551D01*
X819810Y244512D01*
X819898Y244463D01*
X819970Y244443D01*
X820038Y244413D01*
X820137Y244396D01*
X820233Y244368D01*
X820333Y244360D01*
X820381Y244352D01*
X820417Y244354D01*
X820477Y244349D01*
X869624Y244349D01*
X869749Y244363D01*
X869876Y244370D01*
X869922Y244383D01*
X869970Y244389D01*
X870089Y244431D01*
X870210Y244466D01*
X870253Y244490D01*
X870298Y244506D01*
X870404Y244575D01*
X870515Y244636D01*
X870561Y244676D01*
X870591Y244695D01*
X870624Y244730D01*
X870701Y244795D01*
X901253Y275347D01*
X901332Y275446D01*
X901416Y275540D01*
X901440Y275582D01*
X901470Y275620D01*
X901524Y275734D01*
X901585Y275845D01*
X901598Y275892D01*
X901619Y275935D01*
X901645Y276059D01*
X901680Y276180D01*
X901685Y276241D01*
X901692Y276276D01*
X901691Y276324D01*
X901699Y276424D01*
X901699Y511992D01*
X901688Y512092D01*
X901686Y512192D01*
X901668Y512264D01*
X901659Y512338D01*
X901626Y512433D01*
X901601Y512530D01*
X901567Y512596D01*
X901542Y512666D01*
X901487Y512751D01*
X901441Y512840D01*
X901393Y512896D01*
X901353Y512959D01*
X901281Y513029D01*
X901216Y513105D01*
X901156Y513149D01*
X901102Y513201D01*
X901016Y513253D01*
X900935Y513312D01*
X900867Y513342D01*
X900803Y513380D01*
X900707Y513411D01*
X900615Y513450D01*
X900542Y513464D01*
X900471Y513486D01*
X900371Y513494D01*
X900272Y513512D01*
X900198Y513508D01*
X900124Y513514D01*
X900024Y513499D01*
X899924Y513494D01*
X899853Y513474D01*
X899779Y513463D01*
X899686Y513425D01*
X899589Y513398D01*
X899524Y513361D01*
X899455Y513334D01*
X899373Y513277D01*
X899285Y513227D01*
X899209Y513162D01*
X899169Y513135D01*
X899145Y513108D01*
X899099Y513069D01*
X897139Y511109D01*
X876249Y490219D01*
X855544Y490219D01*
X855419Y490205D01*
X855292Y490198D01*
X855246Y490185D01*
X855198Y490179D01*
X855079Y490137D01*
X854958Y490102D01*
X854915Y490078D01*
X854870Y490062D01*
X854764Y489993D01*
X854653Y489932D01*
X854607Y489892D01*
X854577Y489873D01*
X854544Y489838D01*
X854467Y489773D01*
X842203Y477509D01*
X842124Y477410D01*
X842040Y477316D01*
X842016Y477274D01*
X841986Y477236D01*
X841932Y477122D01*
X841871Y477011D01*
X841858Y476964D01*
X841837Y476921D01*
X841811Y476797D01*
X841776Y476676D01*
X841771Y476615D01*
X841764Y476580D01*
X841765Y476532D01*
X841757Y476432D01*
X841757Y385623D01*
X821385Y365251D01*
X821196Y365251D01*
X821096Y365240D01*
X820995Y365238D01*
X820923Y365220D01*
X820849Y365211D01*
X820755Y365178D01*
X820657Y365153D01*
X820591Y365119D01*
X820521Y365094D01*
X820437Y365039D01*
X820348Y364993D01*
X820291Y364945D01*
X820228Y364905D01*
X820159Y364833D01*
X820082Y364768D01*
X820038Y364708D01*
X819986Y364654D01*
X819935Y364568D01*
X819875Y364487D01*
X819846Y364419D01*
X819807Y364355D01*
X819777Y364260D01*
X819737Y364167D01*
X819724Y364094D01*
X819701Y364023D01*
X819693Y363923D01*
X819675Y363824D01*
X819679Y363750D01*
X819673Y363676D01*
X819688Y363577D01*
X819693Y363476D01*
X819714Y363405D01*
X819725Y363331D01*
X819762Y363238D01*
X819790Y363141D01*
X819826Y363076D01*
X819854Y363007D01*
X819911Y362925D01*
X819960Y362837D01*
X820025Y362761D01*
X820053Y362721D01*
X820079Y362697D01*
X820119Y362651D01*
X820550Y362219D01*
X821490Y360925D01*
X822216Y359500D01*
X822659Y358139D01*
X813816Y358139D01*
X813790Y358136D01*
X813764Y358138D01*
X813617Y358116D01*
X813470Y358099D01*
X813445Y358091D01*
X813419Y358087D01*
X813282Y358032D01*
X813142Y357982D01*
X813120Y357968D01*
X813095Y357958D01*
X812974Y357873D01*
X812849Y357793D01*
X812831Y357774D01*
X812809Y357759D01*
X812795Y357743D01*
X812710Y357825D01*
X812687Y357839D01*
X812668Y357856D01*
X812538Y357928D01*
X812411Y358004D01*
X812386Y358012D01*
X812363Y358025D01*
X812220Y358065D01*
X812079Y358110D01*
X812053Y358112D01*
X812028Y358120D01*
X811784Y358139D01*
X802941Y358139D01*
X803384Y359500D01*
X804110Y360925D01*
X805050Y362219D01*
X805481Y362651D01*
X805544Y362729D01*
X805614Y362802D01*
X805652Y362866D01*
X805698Y362924D01*
X805741Y363015D01*
X805793Y363101D01*
X805815Y363172D01*
X805847Y363239D01*
X805868Y363337D01*
X805899Y363433D01*
X805905Y363507D01*
X805920Y363580D01*
X805919Y363680D01*
X805927Y363780D01*
X805916Y363854D01*
X805914Y363928D01*
X805890Y364026D01*
X805875Y364125D01*
X805848Y364194D01*
X805829Y364266D01*
X805784Y364355D01*
X805746Y364449D01*
X805704Y364510D01*
X805670Y364576D01*
X805605Y364652D01*
X805547Y364735D01*
X805492Y364785D01*
X805444Y364841D01*
X805363Y364901D01*
X805289Y364968D01*
X805223Y365004D01*
X805164Y365049D01*
X805072Y365088D01*
X804984Y365137D01*
X804912Y365157D01*
X804844Y365187D01*
X804745Y365204D01*
X804648Y365232D01*
X804548Y365240D01*
X804501Y365248D01*
X804465Y365246D01*
X804404Y365251D01*
X795077Y365251D01*
X794977Y365240D01*
X794877Y365238D01*
X794805Y365220D01*
X794731Y365211D01*
X794637Y365178D01*
X794539Y365153D01*
X794473Y365119D01*
X794403Y365094D01*
X794319Y365039D01*
X794229Y364993D01*
X794173Y364945D01*
X794110Y364905D01*
X794040Y364833D01*
X793964Y364768D01*
X793920Y364708D01*
X793868Y364654D01*
X793816Y364568D01*
X793757Y364487D01*
X793727Y364419D01*
X793689Y364355D01*
X793658Y364259D01*
X793619Y364167D01*
X793606Y364094D01*
X793583Y364023D01*
X793575Y363923D01*
X793557Y363824D01*
X793561Y363750D01*
X793555Y363676D01*
X793570Y363576D01*
X793575Y363476D01*
X793596Y363405D01*
X793607Y363331D01*
X793644Y363238D01*
X793671Y363141D01*
X793708Y363076D01*
X793735Y363007D01*
X793793Y362925D01*
X793842Y362837D01*
X793907Y362761D01*
X793934Y362721D01*
X793961Y362697D01*
X794000Y362651D01*
X795583Y361068D01*
X797053Y357520D01*
X797053Y353680D01*
X795583Y350132D01*
X792984Y347533D01*
X792922Y347455D01*
X792852Y347382D01*
X792814Y347318D01*
X792767Y347260D01*
X792725Y347169D01*
X792673Y347083D01*
X792650Y347012D01*
X792619Y346945D01*
X792597Y346847D01*
X792567Y346751D01*
X792561Y346677D01*
X792545Y346604D01*
X792547Y346504D01*
X792539Y346404D01*
X792550Y346330D01*
X792551Y346256D01*
X792576Y346159D01*
X792591Y346059D01*
X792618Y345990D01*
X792636Y345918D01*
X792682Y345829D01*
X792719Y345735D01*
X792762Y345674D01*
X792796Y345608D01*
X792861Y345532D01*
X792918Y345449D01*
X792973Y345399D01*
X793022Y345343D01*
X793102Y345283D01*
X793177Y345216D01*
X793242Y345180D01*
X793302Y345135D01*
X793394Y345096D01*
X793482Y345047D01*
X793554Y345027D01*
X793622Y344997D01*
X793721Y344980D01*
X793817Y344952D01*
X793917Y344944D01*
X793965Y344936D01*
X794001Y344938D01*
X794061Y344933D01*
X805508Y344933D01*
X805553Y344938D01*
X805599Y344935D01*
X805726Y344958D01*
X805854Y344973D01*
X805897Y344988D01*
X805942Y344996D01*
X806060Y345047D01*
X806182Y345090D01*
X806220Y345115D01*
X806262Y345133D01*
X806366Y345209D01*
X806475Y345279D01*
X806507Y345312D01*
X806543Y345339D01*
X806627Y345437D01*
X806717Y345530D01*
X806740Y345569D01*
X806770Y345604D01*
X806830Y345718D01*
X806896Y345829D01*
X806910Y345872D01*
X806931Y345913D01*
X806963Y346038D01*
X807002Y346161D01*
X807006Y346206D01*
X807017Y346250D01*
X807020Y346380D01*
X807030Y346508D01*
X807023Y346553D01*
X807024Y346599D01*
X806998Y346725D01*
X806978Y346853D01*
X806962Y346895D01*
X806952Y346940D01*
X806897Y347057D01*
X806850Y347177D01*
X806824Y347214D01*
X806804Y347255D01*
X806724Y347357D01*
X806651Y347463D01*
X806617Y347493D01*
X806589Y347529D01*
X806403Y347688D01*
X806181Y347850D01*
X805050Y348981D01*
X804110Y350275D01*
X803384Y351700D01*
X802941Y353061D01*
X811784Y353061D01*
X811810Y353064D01*
X811836Y353062D01*
X811983Y353084D01*
X812130Y353101D01*
X812155Y353109D01*
X812181Y353113D01*
X812318Y353168D01*
X812458Y353218D01*
X812480Y353232D01*
X812505Y353242D01*
X812626Y353327D01*
X812751Y353407D01*
X812769Y353426D01*
X812791Y353441D01*
X812805Y353457D01*
X812890Y353375D01*
X812913Y353361D01*
X812932Y353344D01*
X813062Y353272D01*
X813189Y353196D01*
X813214Y353188D01*
X813237Y353175D01*
X813380Y353135D01*
X813521Y353090D01*
X813547Y353087D01*
X813572Y353080D01*
X813816Y353061D01*
X822659Y353061D01*
X822216Y351700D01*
X821490Y350275D01*
X820550Y348981D01*
X819419Y347850D01*
X819197Y347688D01*
X819163Y347658D01*
X819125Y347633D01*
X819035Y347540D01*
X818940Y347453D01*
X818915Y347415D01*
X818883Y347382D01*
X818817Y347271D01*
X818744Y347165D01*
X818727Y347122D01*
X818704Y347083D01*
X818665Y346960D01*
X818618Y346840D01*
X818612Y346795D01*
X818598Y346751D01*
X818588Y346623D01*
X818570Y346495D01*
X818574Y346449D01*
X818570Y346404D01*
X818589Y346276D01*
X818601Y346148D01*
X818615Y346104D01*
X818622Y346059D01*
X818669Y345939D01*
X818710Y345817D01*
X818733Y345778D01*
X818750Y345735D01*
X818824Y345629D01*
X818891Y345519D01*
X818923Y345486D01*
X818949Y345449D01*
X819045Y345363D01*
X819136Y345271D01*
X819174Y345246D01*
X819208Y345216D01*
X819321Y345153D01*
X819430Y345084D01*
X819473Y345069D01*
X819513Y345047D01*
X819637Y345012D01*
X819759Y344970D01*
X819805Y344965D01*
X819848Y344952D01*
X820092Y344933D01*
X826952Y344933D01*
X827077Y344947D01*
X827204Y344954D01*
X827250Y344967D01*
X827298Y344973D01*
X827417Y345015D01*
X827538Y345050D01*
X827581Y345074D01*
X827626Y345090D01*
X827732Y345159D01*
X827843Y345220D01*
X827889Y345260D01*
X827919Y345279D01*
X827952Y345314D01*
X828029Y345379D01*
X861629Y378979D01*
X861708Y379078D01*
X861792Y379172D01*
X861816Y379214D01*
X861846Y379252D01*
X861900Y379366D01*
X861961Y379477D01*
X861974Y379524D01*
X861995Y379567D01*
X862021Y379691D01*
X862056Y379812D01*
X862061Y379873D01*
X862068Y379908D01*
X862067Y379956D01*
X862075Y380056D01*
X862075Y418520D01*
X862061Y418645D01*
X862054Y418772D01*
X862041Y418818D01*
X862035Y418866D01*
X861993Y418985D01*
X861958Y419107D01*
X861934Y419149D01*
X861918Y419194D01*
X861849Y419300D01*
X861788Y419411D01*
X861748Y419457D01*
X861729Y419487D01*
X861694Y419520D01*
X861629Y419597D01*
X858001Y423225D01*
X857902Y423304D01*
X857808Y423388D01*
X857766Y423412D01*
X857728Y423442D01*
X857614Y423496D01*
X857503Y423557D01*
X857456Y423570D01*
X857413Y423591D01*
X857289Y423617D01*
X857168Y423652D01*
X857107Y423657D01*
X857072Y423664D01*
X857024Y423663D01*
X856924Y423671D01*
X855275Y423671D01*
X853034Y424599D01*
X851319Y426314D01*
X850391Y428555D01*
X850391Y430981D01*
X851319Y433222D01*
X853034Y434937D01*
X855275Y435865D01*
X857701Y435865D01*
X859942Y434937D01*
X861657Y433222D01*
X862585Y430981D01*
X862585Y429332D01*
X862599Y429207D01*
X862606Y429080D01*
X862619Y429034D01*
X862625Y428986D01*
X862667Y428867D01*
X862702Y428746D01*
X862726Y428703D01*
X862742Y428658D01*
X862811Y428552D01*
X862872Y428441D01*
X862912Y428395D01*
X862931Y428365D01*
X862966Y428331D01*
X863031Y428255D01*
X866659Y424627D01*
X869189Y422097D01*
X869189Y376479D01*
X830529Y337819D01*
X822372Y337819D01*
X822223Y337802D01*
X822073Y337790D01*
X822049Y337782D01*
X822026Y337779D01*
X821884Y337729D01*
X821741Y337683D01*
X821720Y337670D01*
X821697Y337662D01*
X821571Y337580D01*
X821442Y337503D01*
X821425Y337486D01*
X821405Y337473D01*
X821300Y337364D01*
X821192Y337260D01*
X821179Y337240D01*
X821162Y337222D01*
X821085Y337093D01*
X821004Y336967D01*
X820996Y336944D01*
X820984Y336923D01*
X820938Y336780D01*
X820887Y336638D01*
X820885Y336614D01*
X820877Y336591D01*
X820865Y336442D01*
X820848Y336292D01*
X820851Y336268D01*
X820849Y336244D01*
X820872Y336095D01*
X820889Y335946D01*
X820898Y335918D01*
X820901Y335899D01*
X820919Y335855D01*
X820964Y335713D01*
X822453Y332120D01*
X822453Y328280D01*
X820983Y324732D01*
X818268Y322017D01*
X814720Y320547D01*
X810880Y320547D01*
X807332Y322017D01*
X804617Y324732D01*
X803147Y328280D01*
X803147Y332120D01*
X804636Y335713D01*
X804677Y335858D01*
X804723Y336001D01*
X804725Y336025D01*
X804731Y336048D01*
X804739Y336199D01*
X804751Y336348D01*
X804747Y336372D01*
X804748Y336396D01*
X804721Y336544D01*
X804699Y336693D01*
X804690Y336715D01*
X804686Y336739D01*
X804626Y336877D01*
X804570Y337017D01*
X804556Y337037D01*
X804547Y337059D01*
X804457Y337180D01*
X804371Y337303D01*
X804353Y337319D01*
X804339Y337339D01*
X804224Y337436D01*
X804112Y337536D01*
X804091Y337548D01*
X804073Y337564D01*
X803939Y337632D01*
X803807Y337705D01*
X803784Y337711D01*
X803763Y337722D01*
X803617Y337759D01*
X803472Y337800D01*
X803443Y337802D01*
X803424Y337807D01*
X803377Y337807D01*
X803228Y337819D01*
X797407Y337819D01*
X797371Y337815D01*
X797336Y337818D01*
X797199Y337795D01*
X797061Y337779D01*
X797027Y337767D01*
X796992Y337762D01*
X796863Y337709D01*
X796733Y337662D01*
X796703Y337642D01*
X796669Y337629D01*
X796557Y337548D01*
X796440Y337473D01*
X796415Y337447D01*
X796386Y337426D01*
X796294Y337322D01*
X796198Y337222D01*
X796179Y337191D01*
X796156Y337164D01*
X796090Y337042D01*
X796019Y336923D01*
X796008Y336889D01*
X795991Y336857D01*
X795955Y336723D01*
X795913Y336591D01*
X795910Y336555D01*
X795901Y336521D01*
X795896Y336382D01*
X795885Y336244D01*
X795890Y336208D01*
X795889Y336172D01*
X795916Y336036D01*
X795936Y335899D01*
X795950Y335866D01*
X795957Y335831D01*
X796050Y335604D01*
X796816Y334100D01*
X797259Y332739D01*
X788416Y332739D01*
X788390Y332736D01*
X788364Y332738D01*
X788217Y332716D01*
X788070Y332699D01*
X788045Y332691D01*
X788019Y332687D01*
X787882Y332632D01*
X787742Y332582D01*
X787720Y332568D01*
X787695Y332558D01*
X787574Y332473D01*
X787449Y332393D01*
X787431Y332374D01*
X787409Y332359D01*
X787395Y332343D01*
X787310Y332425D01*
X787287Y332439D01*
X787268Y332456D01*
X787138Y332528D01*
X787011Y332604D01*
X786986Y332612D01*
X786963Y332625D01*
X786820Y332665D01*
X786679Y332710D01*
X786653Y332712D01*
X786628Y332720D01*
X786384Y332739D01*
X777541Y332739D01*
X777984Y334100D01*
X778750Y335604D01*
X778763Y335638D01*
X778781Y335669D01*
X778823Y335801D01*
X778872Y335931D01*
X778876Y335967D01*
X778887Y336001D01*
X778898Y336139D01*
X778916Y336277D01*
X778912Y336312D01*
X778915Y336348D01*
X778895Y336485D01*
X778881Y336623D01*
X778869Y336657D01*
X778864Y336693D01*
X778812Y336822D01*
X778767Y336953D01*
X778748Y336983D01*
X778735Y337017D01*
X778656Y337131D01*
X778582Y337248D01*
X778556Y337273D01*
X778536Y337303D01*
X778433Y337396D01*
X778334Y337493D01*
X778304Y337512D01*
X778277Y337536D01*
X778156Y337603D01*
X778038Y337676D01*
X778003Y337688D01*
X777972Y337705D01*
X777839Y337743D01*
X777707Y337787D01*
X777671Y337790D01*
X777637Y337800D01*
X777393Y337819D01*
X678231Y337819D01*
X659881Y356169D01*
X659782Y356248D01*
X659688Y356332D01*
X659646Y356356D01*
X659608Y356386D01*
X659494Y356440D01*
X659383Y356501D01*
X659336Y356514D01*
X659293Y356535D01*
X659169Y356561D01*
X659048Y356596D01*
X658987Y356601D01*
X658952Y356608D01*
X658904Y356607D01*
X658804Y356615D01*
X657155Y356615D01*
X654914Y357543D01*
X653857Y358601D01*
X653778Y358663D01*
X653706Y358733D01*
X653642Y358771D01*
X653584Y358817D01*
X653493Y358860D01*
X653407Y358912D01*
X653336Y358935D01*
X653269Y358966D01*
X653171Y358987D01*
X653075Y359018D01*
X653001Y359024D01*
X652928Y359040D01*
X652828Y359038D01*
X652728Y359046D01*
X652654Y359035D01*
X652580Y359034D01*
X652483Y359009D01*
X652383Y358994D01*
X652314Y358967D01*
X652242Y358949D01*
X652153Y358903D01*
X652059Y358866D01*
X651998Y358823D01*
X651932Y358789D01*
X651856Y358724D01*
X651773Y358667D01*
X651723Y358612D01*
X651667Y358563D01*
X651607Y358482D01*
X651540Y358408D01*
X651504Y358343D01*
X651459Y358283D01*
X651420Y358191D01*
X651371Y358103D01*
X651351Y358031D01*
X651321Y357963D01*
X651304Y357864D01*
X651276Y357768D01*
X651268Y357668D01*
X651260Y357620D01*
X651262Y357584D01*
X651257Y357524D01*
X651257Y332304D01*
X651271Y332179D01*
X651278Y332052D01*
X651291Y332006D01*
X651297Y331958D01*
X651339Y331839D01*
X651374Y331718D01*
X651398Y331675D01*
X651414Y331630D01*
X651483Y331524D01*
X651544Y331413D01*
X651584Y331367D01*
X651603Y331337D01*
X651638Y331304D01*
X651703Y331227D01*
X686827Y296103D01*
X686926Y296024D01*
X687020Y295940D01*
X687062Y295916D01*
X687100Y295886D01*
X687214Y295832D01*
X687325Y295771D01*
X687372Y295758D01*
X687415Y295737D01*
X687539Y295711D01*
X687660Y295676D01*
X687721Y295671D01*
X687756Y295664D01*
X687804Y295665D01*
X687904Y295657D01*
X779215Y295657D01*
X779315Y295668D01*
X779415Y295670D01*
X779487Y295688D01*
X779561Y295697D01*
X779655Y295730D01*
X779753Y295755D01*
X779819Y295789D01*
X779889Y295814D01*
X779973Y295869D01*
X780063Y295915D01*
X780119Y295963D01*
X780182Y296003D01*
X780252Y296075D01*
X780328Y296140D01*
X780372Y296200D01*
X780424Y296254D01*
X780476Y296340D01*
X780535Y296421D01*
X780565Y296489D01*
X780603Y296553D01*
X780634Y296649D01*
X780673Y296741D01*
X780686Y296814D01*
X780709Y296885D01*
X780717Y296985D01*
X780735Y297084D01*
X780731Y297158D01*
X780737Y297232D01*
X780722Y297332D01*
X780717Y297432D01*
X780696Y297503D01*
X780685Y297577D01*
X780648Y297670D01*
X780621Y297767D01*
X780584Y297832D01*
X780557Y297901D01*
X780499Y297983D01*
X780450Y298071D01*
X780385Y298147D01*
X780358Y298187D01*
X780331Y298211D01*
X780292Y298257D01*
X779217Y299332D01*
X777747Y302880D01*
X777747Y306720D01*
X779217Y310268D01*
X781932Y312983D01*
X785480Y314453D01*
X789320Y314453D01*
X792868Y312983D01*
X795583Y310268D01*
X797053Y306720D01*
X797053Y302880D01*
X795583Y299332D01*
X794508Y298257D01*
X794446Y298178D01*
X794376Y298106D01*
X794338Y298042D01*
X794291Y297984D01*
X794249Y297893D01*
X794197Y297807D01*
X794174Y297736D01*
X794143Y297669D01*
X794121Y297571D01*
X794091Y297475D01*
X794085Y297401D01*
X794069Y297328D01*
X794071Y297228D01*
X794063Y297128D01*
X794074Y297054D01*
X794075Y296980D01*
X794100Y296883D01*
X794115Y296783D01*
X794142Y296714D01*
X794160Y296642D01*
X794206Y296553D01*
X794243Y296459D01*
X794286Y296398D01*
X794320Y296332D01*
X794385Y296256D01*
X794442Y296173D01*
X794497Y296123D01*
X794546Y296067D01*
X794626Y296007D01*
X794701Y295940D01*
X794766Y295904D01*
X794826Y295859D01*
X794918Y295820D01*
X795006Y295771D01*
X795078Y295751D01*
X795146Y295721D01*
X795245Y295704D01*
X795341Y295676D01*
X795441Y295668D01*
X795489Y295660D01*
X795525Y295662D01*
X795585Y295657D01*
X804615Y295657D01*
X804715Y295668D01*
X804815Y295670D01*
X804887Y295688D01*
X804961Y295697D01*
X805055Y295730D01*
X805153Y295755D01*
X805219Y295789D01*
X805289Y295814D01*
X805373Y295869D01*
X805463Y295915D01*
X805519Y295963D01*
X805582Y296003D01*
X805652Y296075D01*
X805728Y296140D01*
X805772Y296200D01*
X805824Y296254D01*
X805876Y296340D01*
X805935Y296421D01*
X805965Y296489D01*
X806003Y296553D01*
X806034Y296649D01*
X806073Y296741D01*
X806086Y296814D01*
X806109Y296885D01*
X806117Y296985D01*
X806135Y297084D01*
X806131Y297158D01*
X806137Y297232D01*
X806122Y297332D01*
X806117Y297432D01*
X806096Y297503D01*
X806085Y297577D01*
X806048Y297670D01*
X806021Y297767D01*
X805984Y297832D01*
X805957Y297901D01*
X805899Y297983D01*
X805850Y298071D01*
X805785Y298147D01*
X805758Y298187D01*
X805731Y298211D01*
X805692Y298257D01*
X804617Y299332D01*
X803147Y302880D01*
X803147Y306720D01*
X804617Y310268D01*
X807332Y312983D01*
X810880Y314453D01*
X814720Y314453D01*
X818268Y312983D01*
X820983Y310268D01*
X822453Y306720D01*
X822453Y302880D01*
X820983Y299332D01*
X819908Y298257D01*
X819846Y298178D01*
X819776Y298106D01*
X819738Y298042D01*
X819691Y297984D01*
X819649Y297893D01*
X819597Y297807D01*
X819574Y297736D01*
X819543Y297669D01*
X819521Y297571D01*
X819491Y297475D01*
X819485Y297401D01*
X819469Y297328D01*
X819471Y297228D01*
X819463Y297128D01*
X819474Y297054D01*
X819475Y296980D01*
X819500Y296883D01*
X819515Y296783D01*
X819542Y296714D01*
X819560Y296642D01*
X819606Y296553D01*
X819643Y296459D01*
X819686Y296398D01*
X819720Y296332D01*
X819785Y296256D01*
X819842Y296173D01*
X819897Y296123D01*
X819946Y296067D01*
X820026Y296007D01*
X820101Y295940D01*
X820166Y295904D01*
X820226Y295859D01*
X820318Y295820D01*
X820406Y295771D01*
X820478Y295751D01*
X820546Y295721D01*
X820645Y295704D01*
X820741Y295676D01*
X820841Y295668D01*
X820889Y295660D01*
X820925Y295662D01*
X820985Y295657D01*
X865073Y295657D01*
X879857Y280873D01*
X879857Y265227D01*
X870143Y255513D01*
X870064Y255414D01*
X869980Y255320D01*
X869956Y255278D01*
X869926Y255240D01*
X869872Y255126D01*
X869811Y255015D01*
X869798Y254968D01*
X869777Y254925D01*
X869751Y254801D01*
X869716Y254680D01*
X869711Y254619D01*
X869704Y254584D01*
X869705Y254536D01*
X869697Y254436D01*
X869697Y252787D01*
X868769Y250546D01*
X867054Y248831D01*
X864813Y247903D01*
X862387Y247903D01*
X860146Y248831D01*
X858431Y250546D01*
X857503Y252787D01*
X857503Y255213D01*
X858431Y257454D01*
X860146Y259169D01*
X862387Y260097D01*
X864036Y260097D01*
X864161Y260111D01*
X864288Y260118D01*
X864334Y260131D01*
X864382Y260137D01*
X864501Y260179D01*
X864622Y260214D01*
X864665Y260238D01*
X864710Y260254D01*
X864816Y260323D01*
X864927Y260384D01*
X864973Y260424D01*
X865003Y260443D01*
X865036Y260478D01*
X865113Y260543D01*
X872297Y267727D01*
X872376Y267826D01*
X872460Y267920D01*
X872484Y267962D01*
X872514Y268000D01*
X872568Y268114D01*
X872629Y268225D01*
X872642Y268272D01*
X872663Y268315D01*
X872689Y268439D01*
X872724Y268560D01*
X872729Y268621D01*
X872736Y268656D01*
X872735Y268704D01*
X872743Y268804D01*
X872743Y277296D01*
X872742Y277308D01*
X872742Y277315D01*
X872737Y277353D01*
X872729Y277421D01*
X872722Y277548D01*
X872709Y277594D01*
X872703Y277642D01*
X872661Y277761D01*
X872626Y277882D01*
X872602Y277925D01*
X872586Y277970D01*
X872517Y278076D01*
X872456Y278187D01*
X872416Y278233D01*
X872397Y278263D01*
X872362Y278296D01*
X872297Y278373D01*
X862573Y288097D01*
X862474Y288176D01*
X862380Y288260D01*
X862338Y288284D01*
X862300Y288314D01*
X862186Y288368D01*
X862075Y288429D01*
X862028Y288442D01*
X861985Y288463D01*
X861861Y288489D01*
X861740Y288524D01*
X861679Y288529D01*
X861644Y288536D01*
X861596Y288535D01*
X861496Y288543D01*
X820985Y288543D01*
X820885Y288532D01*
X820785Y288530D01*
X820713Y288512D01*
X820639Y288503D01*
X820545Y288470D01*
X820447Y288445D01*
X820381Y288411D01*
X820311Y288386D01*
X820227Y288331D01*
X820137Y288285D01*
X820081Y288237D01*
X820018Y288197D01*
X819948Y288125D01*
X819872Y288060D01*
X819828Y288000D01*
X819776Y287946D01*
X819724Y287860D01*
X819665Y287779D01*
X819635Y287711D01*
X819597Y287647D01*
X819566Y287551D01*
X819527Y287459D01*
X819514Y287386D01*
X819491Y287315D01*
X819483Y287215D01*
X819465Y287116D01*
X819469Y287042D01*
X819463Y286968D01*
X819478Y286868D01*
X819483Y286768D01*
X819504Y286697D01*
X819515Y286623D01*
X819552Y286530D01*
X819579Y286433D01*
X819616Y286368D01*
X819643Y286299D01*
X819701Y286217D01*
X819750Y286129D01*
X819815Y286053D01*
X819842Y286013D01*
X819869Y285989D01*
X819908Y285943D01*
X820983Y284868D01*
X822453Y281320D01*
X822453Y277480D01*
X820983Y273932D01*
X818268Y271217D01*
X814720Y269747D01*
X810880Y269747D01*
X807332Y271217D01*
X804617Y273932D01*
X803147Y277480D01*
X803147Y281320D01*
X804617Y284868D01*
X805692Y285943D01*
X805754Y286022D01*
X805824Y286094D01*
X805862Y286158D01*
X805909Y286216D01*
X805951Y286307D01*
X806003Y286393D01*
X806026Y286464D01*
X806057Y286531D01*
X806079Y286629D01*
X806109Y286725D01*
X806115Y286799D01*
X806131Y286872D01*
X806129Y286972D01*
X806137Y287072D01*
X806126Y287146D01*
X806125Y287220D01*
X806100Y287317D01*
X806085Y287417D01*
X806058Y287486D01*
X806040Y287558D01*
X805994Y287647D01*
X805957Y287741D01*
X805914Y287802D01*
X805880Y287868D01*
X805815Y287944D01*
X805758Y288027D01*
X805703Y288077D01*
X805654Y288133D01*
X805574Y288193D01*
X805499Y288260D01*
X805434Y288296D01*
X805374Y288341D01*
X805282Y288380D01*
X805194Y288429D01*
X805122Y288449D01*
X805054Y288479D01*
X804955Y288496D01*
X804859Y288524D01*
X804759Y288532D01*
X804711Y288540D01*
X804675Y288538D01*
X804615Y288543D01*
X795585Y288543D01*
X795485Y288532D01*
X795385Y288530D01*
X795313Y288512D01*
X795239Y288503D01*
X795145Y288470D01*
X795047Y288445D01*
X794981Y288411D01*
X794911Y288386D01*
X794827Y288331D01*
X794737Y288285D01*
X794681Y288237D01*
X794618Y288197D01*
X794548Y288125D01*
X794472Y288060D01*
X794428Y288000D01*
X794376Y287946D01*
X794324Y287860D01*
X794265Y287779D01*
X794235Y287711D01*
X794197Y287647D01*
X794166Y287551D01*
X794127Y287459D01*
X794114Y287386D01*
X794091Y287315D01*
X794083Y287215D01*
X794065Y287116D01*
X794069Y287042D01*
X794063Y286968D01*
X794078Y286868D01*
X794083Y286768D01*
X794104Y286697D01*
X794115Y286623D01*
X794152Y286530D01*
X794179Y286433D01*
X794216Y286368D01*
X794243Y286299D01*
X794301Y286217D01*
X794350Y286129D01*
X794415Y286053D01*
X794442Y286013D01*
X794469Y285989D01*
X794508Y285943D01*
X795583Y284868D01*
X797053Y281320D01*
X797053Y277480D01*
X795583Y273932D01*
X792868Y271217D01*
X789320Y269747D01*
X785480Y269747D01*
X781932Y271217D01*
X779217Y273932D01*
X777747Y277480D01*
X777747Y281320D01*
X779217Y284868D01*
X780292Y285943D01*
X780354Y286022D01*
X780424Y286094D01*
X780462Y286158D01*
X780509Y286216D01*
X780551Y286307D01*
X780603Y286393D01*
X780626Y286464D01*
X780657Y286531D01*
X780679Y286629D01*
X780709Y286725D01*
X780715Y286799D01*
X780731Y286872D01*
X780729Y286972D01*
X780737Y287072D01*
X780726Y287146D01*
X780725Y287220D01*
X780700Y287317D01*
X780685Y287417D01*
X780658Y287486D01*
X780640Y287558D01*
X780594Y287647D01*
X780557Y287741D01*
X780514Y287802D01*
X780480Y287868D01*
X780415Y287944D01*
X780358Y288027D01*
X780303Y288077D01*
X780254Y288133D01*
X780174Y288193D01*
X780099Y288260D01*
X780034Y288296D01*
X779974Y288341D01*
X779882Y288380D01*
X779794Y288429D01*
X779722Y288449D01*
X779654Y288479D01*
X779555Y288496D01*
X779459Y288524D01*
X779359Y288532D01*
X779311Y288540D01*
X779275Y288538D01*
X779215Y288543D01*
X684327Y288543D01*
X644143Y328727D01*
X644143Y569396D01*
X644129Y569521D01*
X644122Y569648D01*
X644109Y569694D01*
X644103Y569742D01*
X644061Y569861D01*
X644026Y569982D01*
X644002Y570025D01*
X643986Y570070D01*
X643917Y570176D01*
X643856Y570287D01*
X643816Y570333D01*
X643797Y570363D01*
X643762Y570396D01*
X643697Y570473D01*
X636513Y577657D01*
X636414Y577736D01*
X636320Y577820D01*
X636278Y577844D01*
X636240Y577874D01*
X636126Y577928D01*
X636015Y577989D01*
X635968Y578002D01*
X635925Y578023D01*
X635801Y578049D01*
X635680Y578084D01*
X635619Y578089D01*
X635584Y578096D01*
X635536Y578095D01*
X635436Y578103D01*
X633787Y578103D01*
X631546Y579031D01*
X629831Y580746D01*
X628903Y582987D01*
X628903Y585413D01*
X629831Y587654D01*
X631546Y589369D01*
X633787Y590297D01*
X636213Y590297D01*
X638454Y589369D01*
X640169Y587654D01*
X641097Y585413D01*
X641097Y583764D01*
X641111Y583639D01*
X641118Y583512D01*
X641131Y583466D01*
X641137Y583418D01*
X641179Y583299D01*
X641214Y583178D01*
X641238Y583135D01*
X641254Y583090D01*
X641323Y582984D01*
X641384Y582873D01*
X641424Y582827D01*
X641443Y582797D01*
X641478Y582764D01*
X641543Y582687D01*
X651257Y572973D01*
X651257Y367900D01*
X651268Y367801D01*
X651270Y367700D01*
X651288Y367628D01*
X651297Y367554D01*
X651330Y367460D01*
X651355Y367362D01*
X651389Y367296D01*
X651414Y367226D01*
X651469Y367142D01*
X651515Y367052D01*
X651563Y366996D01*
X651603Y366933D01*
X651675Y366863D01*
X651740Y366787D01*
X651800Y366743D01*
X651854Y366691D01*
X651940Y366639D01*
X652021Y366580D01*
X652089Y366550D01*
X652153Y366512D01*
X652249Y366481D01*
X652341Y366442D01*
X652414Y366429D01*
X652485Y366406D01*
X652585Y366398D01*
X652684Y366380D01*
X652758Y366384D01*
X652832Y366378D01*
X652932Y366393D01*
X653032Y366398D01*
X653103Y366419D01*
X653177Y366430D01*
X653270Y366467D01*
X653367Y366495D01*
X653432Y366531D01*
X653501Y366558D01*
X653583Y366616D01*
X653671Y366665D01*
X653747Y366730D01*
X653787Y366757D01*
X653811Y366784D01*
X653857Y366823D01*
X654914Y367881D01*
X657155Y368809D01*
X659581Y368809D01*
X661822Y367881D01*
X663537Y366166D01*
X664465Y363925D01*
X664465Y362276D01*
X664479Y362151D01*
X664486Y362024D01*
X664499Y361978D01*
X664505Y361930D01*
X664547Y361811D01*
X664582Y361690D01*
X664606Y361647D01*
X664622Y361602D01*
X664691Y361496D01*
X664752Y361385D01*
X664792Y361339D01*
X664811Y361309D01*
X664846Y361276D01*
X664911Y361199D01*
X680731Y345379D01*
X680830Y345300D01*
X680924Y345216D01*
X680966Y345192D01*
X681004Y345162D01*
X681118Y345108D01*
X681229Y345047D01*
X681276Y345034D01*
X681319Y345013D01*
X681443Y344987D01*
X681564Y344952D01*
X681625Y344947D01*
X681660Y344940D01*
X681708Y344941D01*
X681808Y344933D01*
X780739Y344933D01*
X780839Y344944D01*
X780939Y344946D01*
X781011Y344964D01*
X781085Y344973D01*
X781179Y345006D01*
X781277Y345031D01*
X781343Y345065D01*
X781413Y345090D01*
X781497Y345145D01*
X781587Y345191D01*
X781643Y345239D01*
X781706Y345279D01*
X781776Y345351D01*
X781852Y345416D01*
X781896Y345476D01*
X781948Y345530D01*
X782000Y345616D01*
X782059Y345697D01*
X782089Y345765D01*
X782127Y345829D01*
X782158Y345925D01*
X782197Y346017D01*
X782210Y346090D01*
X782233Y346161D01*
X782241Y346261D01*
X782259Y346360D01*
X782255Y346434D01*
X782261Y346508D01*
X782246Y346608D01*
X782241Y346708D01*
X782220Y346779D01*
X782209Y346853D01*
X782172Y346946D01*
X782145Y347043D01*
X782108Y347108D01*
X782081Y347177D01*
X782023Y347259D01*
X781974Y347347D01*
X781909Y347423D01*
X781882Y347463D01*
X781855Y347487D01*
X781816Y347533D01*
X779217Y350132D01*
X777747Y353680D01*
X777747Y357520D01*
X779217Y361068D01*
X780800Y362651D01*
X780862Y362730D01*
X780932Y362802D01*
X780970Y362866D01*
X781017Y362924D01*
X781059Y363015D01*
X781111Y363101D01*
X781134Y363172D01*
X781165Y363239D01*
X781187Y363337D01*
X781217Y363433D01*
X781223Y363507D01*
X781239Y363580D01*
X781237Y363680D01*
X781245Y363780D01*
X781234Y363854D01*
X781233Y363928D01*
X781208Y364025D01*
X781193Y364125D01*
X781166Y364194D01*
X781148Y364266D01*
X781102Y364355D01*
X781065Y364449D01*
X781022Y364510D01*
X780988Y364576D01*
X780923Y364652D01*
X780866Y364735D01*
X780811Y364785D01*
X780762Y364841D01*
X780682Y364901D01*
X780607Y364968D01*
X780542Y365004D01*
X780482Y365049D01*
X780390Y365088D01*
X780302Y365137D01*
X780230Y365157D01*
X780162Y365187D01*
X780063Y365204D01*
X779967Y365232D01*
X779867Y365240D01*
X779819Y365248D01*
X779783Y365246D01*
X779723Y365251D01*
X733095Y365251D01*
X715771Y382575D01*
X715771Y458144D01*
X715757Y458269D01*
X715750Y458396D01*
X715737Y458442D01*
X715731Y458490D01*
X715689Y458609D01*
X715654Y458730D01*
X715630Y458773D01*
X715614Y458818D01*
X715545Y458924D01*
X715484Y459035D01*
X715444Y459081D01*
X715425Y459111D01*
X715390Y459144D01*
X715325Y459221D01*
X706109Y468437D01*
X706010Y468516D01*
X705916Y468600D01*
X705874Y468624D01*
X705836Y468654D01*
X705722Y468708D01*
X705611Y468769D01*
X705564Y468782D01*
X705521Y468803D01*
X705397Y468829D01*
X705276Y468864D01*
X705215Y468869D01*
X705180Y468876D01*
X705132Y468875D01*
X705032Y468883D01*
X697048Y468883D01*
X696923Y468869D01*
X696796Y468862D01*
X696750Y468849D01*
X696702Y468843D01*
X696583Y468801D01*
X696462Y468766D01*
X696419Y468742D01*
X696374Y468726D01*
X696268Y468657D01*
X696157Y468596D01*
X696111Y468556D01*
X696081Y468537D01*
X696048Y468502D01*
X695971Y468437D01*
X677611Y450077D01*
X677532Y449978D01*
X677448Y449884D01*
X677424Y449842D01*
X677394Y449804D01*
X677340Y449690D01*
X677279Y449579D01*
X677266Y449532D01*
X677245Y449489D01*
X677219Y449365D01*
X677184Y449244D01*
X677179Y449183D01*
X677172Y449148D01*
X677173Y449100D01*
X677165Y449000D01*
X677165Y438512D01*
X677179Y438387D01*
X677186Y438261D01*
X677199Y438214D01*
X677205Y438166D01*
X677247Y438047D01*
X677282Y437926D01*
X677306Y437884D01*
X677322Y437838D01*
X677391Y437732D01*
X677452Y437621D01*
X677492Y437575D01*
X677511Y437545D01*
X677546Y437512D01*
X677611Y437435D01*
X678777Y436270D01*
X679705Y434029D01*
X679705Y431603D01*
X678777Y429362D01*
X677062Y427647D01*
X674821Y426719D01*
X672395Y426719D01*
X670154Y427647D01*
X668439Y429362D01*
X667511Y431603D01*
X667511Y434029D01*
X668439Y436270D01*
X669605Y437435D01*
X669684Y437534D01*
X669768Y437628D01*
X669792Y437670D01*
X669822Y437708D01*
X669876Y437822D01*
X669937Y437933D01*
X669950Y437980D01*
X669971Y438023D01*
X669997Y438147D01*
X670032Y438269D01*
X670037Y438329D01*
X670044Y438364D01*
X670043Y438412D01*
X670051Y438512D01*
X670051Y452577D01*
X693471Y475997D01*
X709096Y475997D01*
X709196Y476008D01*
X709296Y476010D01*
X709368Y476028D01*
X709442Y476037D01*
X709537Y476070D01*
X709634Y476095D01*
X709700Y476129D01*
X709770Y476154D01*
X709855Y476209D01*
X709944Y476255D01*
X710001Y476303D01*
X710063Y476343D01*
X710133Y476415D01*
X710209Y476480D01*
X710253Y476540D01*
X710305Y476594D01*
X710357Y476680D01*
X710416Y476761D01*
X710446Y476829D01*
X710484Y476893D01*
X710515Y476988D01*
X710554Y477081D01*
X710568Y477154D01*
X710590Y477225D01*
X710598Y477325D01*
X710616Y477424D01*
X710612Y477498D01*
X710618Y477572D01*
X710603Y477672D01*
X710598Y477772D01*
X710578Y477843D01*
X710567Y477917D01*
X710529Y478010D01*
X710502Y478107D01*
X710465Y478172D01*
X710438Y478241D01*
X710381Y478323D01*
X710331Y478411D01*
X710266Y478487D01*
X710239Y478527D01*
X710212Y478551D01*
X710173Y478597D01*
X672073Y516697D01*
X669543Y519227D01*
X669543Y645596D01*
X669529Y645721D01*
X669522Y645848D01*
X669509Y645894D01*
X669503Y645942D01*
X669461Y646061D01*
X669426Y646182D01*
X669402Y646225D01*
X669386Y646270D01*
X669317Y646376D01*
X669256Y646487D01*
X669216Y646533D01*
X669197Y646563D01*
X669162Y646596D01*
X669097Y646673D01*
X667065Y648705D01*
X666987Y648767D01*
X666914Y648837D01*
X666850Y648875D01*
X666792Y648922D01*
X666701Y648964D01*
X666615Y649016D01*
X666544Y649039D01*
X666477Y649070D01*
X666379Y649092D01*
X666283Y649122D01*
X666209Y649128D01*
X666136Y649144D01*
X666036Y649142D01*
X665936Y649150D01*
X665862Y649139D01*
X665788Y649138D01*
X665691Y649113D01*
X665591Y649099D01*
X665522Y649071D01*
X665450Y649053D01*
X665361Y649007D01*
X665267Y648970D01*
X665206Y648927D01*
X665140Y648893D01*
X665064Y648828D01*
X664981Y648771D01*
X664931Y648716D01*
X664875Y648667D01*
X664815Y648587D01*
X664748Y648512D01*
X664712Y648447D01*
X664667Y648387D01*
X664628Y648295D01*
X664579Y648207D01*
X664559Y648135D01*
X664529Y648067D01*
X664512Y647968D01*
X664484Y647872D01*
X664476Y647772D01*
X664468Y647724D01*
X664470Y647688D01*
X664465Y647628D01*
X664465Y644963D01*
X663537Y642722D01*
X661822Y641007D01*
X659581Y640079D01*
X657155Y640079D01*
X654914Y641007D01*
X653749Y642173D01*
X653650Y642252D01*
X653556Y642336D01*
X653514Y642360D01*
X653476Y642390D01*
X653362Y642444D01*
X653251Y642505D01*
X653204Y642518D01*
X653161Y642539D01*
X653037Y642565D01*
X652915Y642600D01*
X652855Y642605D01*
X652820Y642612D01*
X652772Y642611D01*
X652672Y642619D01*
X652380Y642619D01*
X652280Y642608D01*
X652180Y642606D01*
X652108Y642588D01*
X652034Y642579D01*
X651940Y642546D01*
X651842Y642521D01*
X651776Y642487D01*
X651706Y642462D01*
X651622Y642407D01*
X651532Y642361D01*
X651476Y642313D01*
X651413Y642273D01*
X651343Y642201D01*
X651267Y642136D01*
X651223Y642076D01*
X651171Y642022D01*
X651119Y641936D01*
X651060Y641855D01*
X651030Y641787D01*
X650992Y641723D01*
X650961Y641627D01*
X650922Y641535D01*
X650909Y641462D01*
X650886Y641391D01*
X650878Y641291D01*
X650860Y641192D01*
X650864Y641118D01*
X650858Y641044D01*
X650873Y640944D01*
X650878Y640844D01*
X650899Y640773D01*
X650910Y640699D01*
X650947Y640606D01*
X650975Y640509D01*
X651011Y640444D01*
X651038Y640375D01*
X651096Y640293D01*
X651145Y640205D01*
X651210Y640129D01*
X651237Y640089D01*
X651264Y640065D01*
X651303Y640019D01*
X652869Y638454D01*
X653797Y636213D01*
X653797Y634564D01*
X653811Y634439D01*
X653818Y634312D01*
X653831Y634266D01*
X653837Y634218D01*
X653879Y634099D01*
X653914Y633978D01*
X653938Y633935D01*
X653954Y633890D01*
X654023Y633784D01*
X654084Y633673D01*
X654124Y633627D01*
X654143Y633597D01*
X654178Y633564D01*
X654243Y633487D01*
X663957Y623773D01*
X663957Y383104D01*
X663971Y382979D01*
X663978Y382852D01*
X663991Y382806D01*
X663997Y382758D01*
X664039Y382639D01*
X664074Y382518D01*
X664098Y382475D01*
X664114Y382430D01*
X664183Y382324D01*
X664244Y382213D01*
X664284Y382167D01*
X664303Y382137D01*
X664338Y382104D01*
X664403Y382027D01*
X686827Y359603D01*
X686926Y359524D01*
X687020Y359440D01*
X687062Y359416D01*
X687100Y359386D01*
X687214Y359332D01*
X687325Y359271D01*
X687372Y359258D01*
X687415Y359237D01*
X687539Y359211D01*
X687660Y359176D01*
X687721Y359171D01*
X687756Y359164D01*
X687804Y359165D01*
X687904Y359157D01*
X692804Y359157D01*
X692929Y359171D01*
X693055Y359178D01*
X693102Y359191D01*
X693150Y359197D01*
X693269Y359239D01*
X693390Y359274D01*
X693432Y359298D01*
X693478Y359314D01*
X693584Y359383D01*
X693695Y359444D01*
X693741Y359484D01*
X693771Y359503D01*
X693804Y359538D01*
X693881Y359603D01*
X695046Y360769D01*
X697287Y361697D01*
X699713Y361697D01*
X701954Y360769D01*
X703669Y359054D01*
X704597Y356813D01*
X704597Y354387D01*
X703669Y352146D01*
X701954Y350431D01*
X699713Y349503D01*
X697287Y349503D01*
X695046Y350431D01*
X693881Y351597D01*
X693782Y351676D01*
X693688Y351760D01*
X693646Y351784D01*
X693608Y351814D01*
X693494Y351868D01*
X693383Y351929D01*
X693336Y351942D01*
X693293Y351963D01*
X693169Y351989D01*
X693047Y352024D01*
X692987Y352029D01*
X692952Y352036D01*
X692904Y352035D01*
X692804Y352043D01*
X684327Y352043D01*
X656843Y379527D01*
X656843Y620196D01*
X656829Y620321D01*
X656822Y620448D01*
X656809Y620494D01*
X656803Y620542D01*
X656761Y620661D01*
X656726Y620782D01*
X656702Y620825D01*
X656686Y620870D01*
X656617Y620976D01*
X656556Y621087D01*
X656516Y621133D01*
X656497Y621163D01*
X656462Y621196D01*
X656397Y621273D01*
X649213Y628457D01*
X649114Y628536D01*
X649020Y628620D01*
X648978Y628644D01*
X648940Y628674D01*
X648826Y628728D01*
X648715Y628789D01*
X648668Y628802D01*
X648625Y628823D01*
X648501Y628849D01*
X648380Y628884D01*
X648319Y628889D01*
X648284Y628896D01*
X648236Y628895D01*
X648136Y628903D01*
X646487Y628903D01*
X644246Y629831D01*
X642531Y631546D01*
X641603Y633787D01*
X641603Y636213D01*
X642531Y638454D01*
X644097Y640019D01*
X644159Y640098D01*
X644229Y640170D01*
X644267Y640234D01*
X644313Y640292D01*
X644356Y640383D01*
X644408Y640469D01*
X644431Y640540D01*
X644462Y640607D01*
X644483Y640705D01*
X644514Y640801D01*
X644520Y640875D01*
X644536Y640948D01*
X644534Y641048D01*
X644542Y641148D01*
X644531Y641222D01*
X644530Y641296D01*
X644505Y641393D01*
X644490Y641493D01*
X644463Y641562D01*
X644445Y641634D01*
X644399Y641723D01*
X644362Y641817D01*
X644319Y641878D01*
X644285Y641944D01*
X644220Y642020D01*
X644163Y642103D01*
X644108Y642153D01*
X644059Y642209D01*
X643978Y642269D01*
X643904Y642336D01*
X643839Y642372D01*
X643779Y642417D01*
X643687Y642456D01*
X643599Y642505D01*
X643527Y642525D01*
X643459Y642555D01*
X643360Y642572D01*
X643264Y642600D01*
X643163Y642608D01*
X643116Y642616D01*
X643080Y642614D01*
X643020Y642619D01*
X636088Y642619D01*
X635963Y642605D01*
X635836Y642598D01*
X635790Y642585D01*
X635742Y642579D01*
X635623Y642537D01*
X635502Y642502D01*
X635459Y642478D01*
X635414Y642462D01*
X635308Y642393D01*
X635197Y642332D01*
X635151Y642292D01*
X635121Y642273D01*
X635088Y642238D01*
X635011Y642173D01*
X625795Y632957D01*
X625716Y632858D01*
X625632Y632764D01*
X625608Y632722D01*
X625578Y632684D01*
X625524Y632570D01*
X625463Y632459D01*
X625450Y632412D01*
X625429Y632369D01*
X625403Y632245D01*
X625368Y632124D01*
X625363Y632063D01*
X625356Y632028D01*
X625357Y631980D01*
X625349Y631880D01*
X625349Y525831D01*
X614121Y514603D01*
X600056Y514603D01*
X599931Y514589D01*
X599805Y514582D01*
X599758Y514569D01*
X599710Y514563D01*
X599591Y514521D01*
X599470Y514486D01*
X599428Y514462D01*
X599382Y514446D01*
X599276Y514377D01*
X599165Y514316D01*
X599119Y514276D01*
X599089Y514257D01*
X599056Y514222D01*
X598979Y514157D01*
X597814Y512991D01*
X595573Y512063D01*
X593147Y512063D01*
X590906Y512991D01*
X590357Y513541D01*
X590278Y513603D01*
X590206Y513673D01*
X590142Y513711D01*
X590084Y513757D01*
X589993Y513800D01*
X589907Y513852D01*
X589836Y513875D01*
X589769Y513906D01*
X589671Y513928D01*
X589575Y513958D01*
X589501Y513964D01*
X589428Y513980D01*
X589328Y513978D01*
X589228Y513986D01*
X589154Y513975D01*
X589080Y513974D01*
X588983Y513949D01*
X588883Y513934D01*
X588814Y513907D01*
X588742Y513889D01*
X588653Y513843D01*
X588559Y513806D01*
X588498Y513763D01*
X588432Y513729D01*
X588355Y513664D01*
X588273Y513607D01*
X588223Y513552D01*
X588167Y513503D01*
X588107Y513422D01*
X588040Y513348D01*
X588004Y513283D01*
X587959Y513223D01*
X587920Y513131D01*
X587871Y513043D01*
X587851Y512971D01*
X587821Y512903D01*
X587804Y512804D01*
X587776Y512708D01*
X587768Y512608D01*
X587760Y512560D01*
X587762Y512524D01*
X587757Y512464D01*
X587757Y319604D01*
X587771Y319479D01*
X587778Y319352D01*
X587791Y319306D01*
X587797Y319258D01*
X587839Y319139D01*
X587874Y319018D01*
X587898Y318975D01*
X587914Y318930D01*
X587983Y318824D01*
X588044Y318713D01*
X588084Y318667D01*
X588103Y318637D01*
X588138Y318604D01*
X588203Y318527D01*
X674127Y232603D01*
X674226Y232524D01*
X674320Y232440D01*
X674362Y232416D01*
X674400Y232386D01*
X674514Y232332D01*
X674625Y232271D01*
X674672Y232258D01*
X674715Y232237D01*
X674839Y232211D01*
X674960Y232176D01*
X675021Y232171D01*
X675056Y232164D01*
X675104Y232165D01*
X675204Y232157D01*
X692804Y232157D01*
X692929Y232171D01*
G37*
%LPC*%
G36*
X584003Y707135D02*
X584003Y707135D01*
X581762Y708063D01*
X580047Y709778D01*
X579119Y712019D01*
X579119Y714445D01*
X580047Y716686D01*
X581213Y717851D01*
X581292Y717950D01*
X581376Y718044D01*
X581400Y718086D01*
X581430Y718124D01*
X581484Y718238D01*
X581545Y718349D01*
X581558Y718396D01*
X581579Y718439D01*
X581605Y718563D01*
X581640Y718685D01*
X581645Y718745D01*
X581652Y718780D01*
X581651Y718828D01*
X581659Y718928D01*
X581659Y882345D01*
X611175Y911861D01*
X728872Y911861D01*
X728997Y911875D01*
X729123Y911882D01*
X729170Y911895D01*
X729218Y911901D01*
X729337Y911943D01*
X729458Y911978D01*
X729500Y912002D01*
X729546Y912018D01*
X729652Y912087D01*
X729763Y912148D01*
X729809Y912188D01*
X729839Y912207D01*
X729872Y912242D01*
X729949Y912307D01*
X731114Y913473D01*
X733355Y914401D01*
X735781Y914401D01*
X738022Y913473D01*
X739737Y911758D01*
X740665Y909517D01*
X740665Y907091D01*
X739737Y904850D01*
X738022Y903135D01*
X735781Y902207D01*
X733355Y902207D01*
X731114Y903135D01*
X729949Y904301D01*
X729850Y904380D01*
X729756Y904464D01*
X729714Y904488D01*
X729676Y904518D01*
X729562Y904572D01*
X729451Y904633D01*
X729404Y904646D01*
X729361Y904667D01*
X729237Y904693D01*
X729115Y904728D01*
X729055Y904733D01*
X729020Y904740D01*
X728972Y904739D01*
X728872Y904747D01*
X614752Y904747D01*
X614627Y904733D01*
X614500Y904726D01*
X614454Y904713D01*
X614406Y904707D01*
X614287Y904665D01*
X614166Y904630D01*
X614123Y904606D01*
X614078Y904590D01*
X613972Y904521D01*
X613861Y904460D01*
X613815Y904420D01*
X613785Y904401D01*
X613752Y904366D01*
X613675Y904301D01*
X589219Y879845D01*
X589140Y879746D01*
X589056Y879652D01*
X589032Y879610D01*
X589002Y879572D01*
X588948Y879458D01*
X588887Y879347D01*
X588874Y879300D01*
X588853Y879257D01*
X588827Y879133D01*
X588792Y879012D01*
X588787Y878951D01*
X588780Y878916D01*
X588781Y878868D01*
X588773Y878768D01*
X588773Y718928D01*
X588787Y718803D01*
X588794Y718677D01*
X588807Y718630D01*
X588813Y718582D01*
X588855Y718463D01*
X588890Y718342D01*
X588914Y718300D01*
X588930Y718254D01*
X588999Y718148D01*
X589060Y718037D01*
X589100Y717991D01*
X589119Y717961D01*
X589154Y717928D01*
X589219Y717851D01*
X590385Y716686D01*
X591313Y714445D01*
X591313Y712019D01*
X590385Y709778D01*
X588670Y708063D01*
X586429Y707135D01*
X584003Y707135D01*
G37*
%LPD*%
%LPC*%
G36*
X735387Y501903D02*
X735387Y501903D01*
X733146Y502831D01*
X731431Y504546D01*
X730503Y506787D01*
X730503Y508436D01*
X730489Y508561D01*
X730482Y508688D01*
X730469Y508734D01*
X730463Y508782D01*
X730421Y508901D01*
X730386Y509022D01*
X730362Y509065D01*
X730346Y509110D01*
X730277Y509216D01*
X730216Y509327D01*
X730176Y509373D01*
X730157Y509403D01*
X730122Y509436D01*
X730057Y509513D01*
X694943Y544627D01*
X694943Y743604D01*
X694929Y743729D01*
X694922Y743855D01*
X694909Y743902D01*
X694903Y743950D01*
X694861Y744069D01*
X694826Y744190D01*
X694802Y744232D01*
X694786Y744278D01*
X694717Y744384D01*
X694656Y744495D01*
X694616Y744541D01*
X694597Y744571D01*
X694562Y744604D01*
X694497Y744681D01*
X693331Y745846D01*
X692403Y748087D01*
X692403Y750513D01*
X693331Y752754D01*
X695046Y754469D01*
X697287Y755397D01*
X699713Y755397D01*
X701954Y754469D01*
X703669Y752754D01*
X704597Y750513D01*
X704597Y748087D01*
X703669Y745846D01*
X702503Y744681D01*
X702424Y744582D01*
X702340Y744488D01*
X702316Y744446D01*
X702286Y744408D01*
X702232Y744294D01*
X702171Y744183D01*
X702158Y744136D01*
X702137Y744093D01*
X702111Y743969D01*
X702076Y743847D01*
X702071Y743787D01*
X702064Y743752D01*
X702065Y743704D01*
X702057Y743604D01*
X702057Y548204D01*
X702071Y548079D01*
X702078Y547952D01*
X702091Y547906D01*
X702097Y547858D01*
X702139Y547739D01*
X702174Y547618D01*
X702198Y547575D01*
X702214Y547530D01*
X702283Y547424D01*
X702344Y547313D01*
X702384Y547267D01*
X702403Y547237D01*
X702438Y547204D01*
X702503Y547127D01*
X735087Y514543D01*
X735186Y514464D01*
X735280Y514380D01*
X735322Y514356D01*
X735360Y514326D01*
X735474Y514272D01*
X735585Y514211D01*
X735632Y514198D01*
X735675Y514177D01*
X735799Y514151D01*
X735920Y514116D01*
X735981Y514111D01*
X736016Y514104D01*
X736064Y514105D01*
X736164Y514097D01*
X737813Y514097D01*
X740054Y513169D01*
X741769Y511454D01*
X742697Y509213D01*
X742697Y506787D01*
X741769Y504546D01*
X740054Y502831D01*
X737813Y501903D01*
X735387Y501903D01*
G37*
%LPD*%
%LPC*%
G36*
X684587Y679703D02*
X684587Y679703D01*
X682346Y680631D01*
X680631Y682346D01*
X679703Y684587D01*
X679703Y687013D01*
X680631Y689254D01*
X681797Y690419D01*
X681876Y690518D01*
X681960Y690612D01*
X681984Y690654D01*
X682014Y690692D01*
X682068Y690806D01*
X682129Y690917D01*
X682142Y690964D01*
X682163Y691007D01*
X682189Y691131D01*
X682224Y691253D01*
X682229Y691313D01*
X682236Y691348D01*
X682235Y691396D01*
X682243Y691496D01*
X682243Y698936D01*
X682229Y699061D01*
X682222Y699188D01*
X682209Y699234D01*
X682203Y699282D01*
X682161Y699401D01*
X682126Y699522D01*
X682102Y699565D01*
X682086Y699610D01*
X682017Y699716D01*
X681956Y699827D01*
X681916Y699873D01*
X681897Y699903D01*
X681862Y699936D01*
X681797Y700013D01*
X636523Y745287D01*
X636523Y848817D01*
X651317Y863611D01*
X651396Y863710D01*
X651480Y863804D01*
X651504Y863846D01*
X651534Y863884D01*
X651588Y863998D01*
X651649Y864109D01*
X651662Y864156D01*
X651683Y864199D01*
X651709Y864323D01*
X651744Y864444D01*
X651749Y864505D01*
X651756Y864540D01*
X651755Y864588D01*
X651763Y864688D01*
X651763Y872128D01*
X651749Y872253D01*
X651742Y872379D01*
X651729Y872426D01*
X651723Y872474D01*
X651681Y872593D01*
X651646Y872714D01*
X651622Y872756D01*
X651606Y872802D01*
X651537Y872908D01*
X651476Y873019D01*
X651436Y873065D01*
X651417Y873095D01*
X651382Y873128D01*
X651317Y873205D01*
X650151Y874370D01*
X649223Y876611D01*
X649223Y879037D01*
X650151Y881278D01*
X651866Y882993D01*
X654107Y883921D01*
X656533Y883921D01*
X658774Y882993D01*
X660489Y881278D01*
X661417Y879037D01*
X661417Y876611D01*
X660489Y874370D01*
X659323Y873205D01*
X659244Y873106D01*
X659160Y873012D01*
X659136Y872970D01*
X659106Y872932D01*
X659052Y872818D01*
X658991Y872707D01*
X658978Y872660D01*
X658957Y872617D01*
X658931Y872493D01*
X658896Y872371D01*
X658891Y872311D01*
X658884Y872276D01*
X658885Y872228D01*
X658877Y872128D01*
X658877Y861111D01*
X644083Y846317D01*
X644004Y846218D01*
X643920Y846124D01*
X643896Y846082D01*
X643866Y846044D01*
X643812Y845930D01*
X643751Y845819D01*
X643738Y845772D01*
X643717Y845729D01*
X643691Y845605D01*
X643656Y845484D01*
X643651Y845423D01*
X643644Y845388D01*
X643645Y845340D01*
X643637Y845240D01*
X643637Y748864D01*
X643651Y748739D01*
X643658Y748612D01*
X643671Y748566D01*
X643677Y748518D01*
X643719Y748399D01*
X643754Y748278D01*
X643778Y748235D01*
X643794Y748190D01*
X643863Y748084D01*
X643924Y747973D01*
X643964Y747927D01*
X643983Y747897D01*
X644018Y747864D01*
X644083Y747787D01*
X689357Y702513D01*
X689357Y691496D01*
X689371Y691371D01*
X689378Y691245D01*
X689391Y691198D01*
X689397Y691150D01*
X689439Y691031D01*
X689474Y690910D01*
X689498Y690868D01*
X689514Y690822D01*
X689583Y690716D01*
X689644Y690605D01*
X689684Y690559D01*
X689703Y690529D01*
X689738Y690496D01*
X689803Y690419D01*
X690969Y689254D01*
X691897Y687013D01*
X691897Y684587D01*
X690969Y682346D01*
X689254Y680631D01*
X687013Y679703D01*
X684587Y679703D01*
G37*
%LPD*%
%LPC*%
G36*
X836987Y731519D02*
X836987Y731519D01*
X834746Y732447D01*
X833031Y734162D01*
X832103Y736403D01*
X832103Y738829D01*
X833031Y741070D01*
X834746Y742785D01*
X836987Y743713D01*
X839413Y743713D01*
X841654Y742785D01*
X842819Y741619D01*
X842918Y741540D01*
X843012Y741456D01*
X843054Y741432D01*
X843092Y741402D01*
X843206Y741348D01*
X843317Y741287D01*
X843364Y741274D01*
X843407Y741253D01*
X843531Y741227D01*
X843653Y741192D01*
X843713Y741187D01*
X843748Y741180D01*
X843796Y741181D01*
X843896Y741173D01*
X911752Y741173D01*
X911877Y741187D01*
X912003Y741194D01*
X912050Y741207D01*
X912098Y741213D01*
X912217Y741255D01*
X912338Y741290D01*
X912380Y741314D01*
X912426Y741330D01*
X912532Y741399D01*
X912643Y741460D01*
X912689Y741500D01*
X912719Y741519D01*
X912752Y741554D01*
X912829Y741619D01*
X913994Y742785D01*
X916235Y743713D01*
X918661Y743713D01*
X920902Y742785D01*
X922617Y741070D01*
X923545Y738829D01*
X923545Y736403D01*
X922617Y734162D01*
X920902Y732447D01*
X918661Y731519D01*
X916235Y731519D01*
X913994Y732447D01*
X912829Y733613D01*
X912730Y733692D01*
X912636Y733776D01*
X912594Y733800D01*
X912556Y733830D01*
X912442Y733884D01*
X912331Y733945D01*
X912284Y733958D01*
X912241Y733979D01*
X912117Y734005D01*
X911995Y734040D01*
X911935Y734045D01*
X911900Y734052D01*
X911852Y734051D01*
X911752Y734059D01*
X843896Y734059D01*
X843771Y734045D01*
X843645Y734038D01*
X843598Y734025D01*
X843550Y734019D01*
X843431Y733977D01*
X843310Y733942D01*
X843268Y733918D01*
X843222Y733902D01*
X843116Y733833D01*
X843005Y733772D01*
X842959Y733732D01*
X842929Y733713D01*
X842896Y733678D01*
X842819Y733613D01*
X841654Y732447D01*
X839413Y731519D01*
X836987Y731519D01*
G37*
%LPD*%
%LPC*%
G36*
X675443Y387095D02*
X675443Y387095D01*
X673202Y388023D01*
X671487Y389738D01*
X670559Y391979D01*
X670559Y394405D01*
X671487Y396646D01*
X673202Y398361D01*
X675443Y399289D01*
X677092Y399289D01*
X677217Y399303D01*
X677344Y399310D01*
X677390Y399323D01*
X677438Y399329D01*
X677557Y399371D01*
X677678Y399406D01*
X677721Y399430D01*
X677766Y399446D01*
X677872Y399515D01*
X677983Y399576D01*
X678029Y399616D01*
X678059Y399635D01*
X678092Y399670D01*
X678169Y399735D01*
X693989Y415555D01*
X694068Y415654D01*
X694152Y415748D01*
X694176Y415790D01*
X694206Y415828D01*
X694260Y415942D01*
X694321Y416053D01*
X694334Y416100D01*
X694355Y416143D01*
X694381Y416267D01*
X694416Y416388D01*
X694421Y416449D01*
X694428Y416484D01*
X694427Y416532D01*
X694435Y416632D01*
X694435Y448456D01*
X694421Y448581D01*
X694414Y448707D01*
X694401Y448754D01*
X694395Y448802D01*
X694353Y448921D01*
X694318Y449042D01*
X694294Y449084D01*
X694278Y449130D01*
X694209Y449236D01*
X694148Y449347D01*
X694108Y449393D01*
X694089Y449423D01*
X694054Y449456D01*
X693989Y449533D01*
X692823Y450698D01*
X691895Y452939D01*
X691895Y455365D01*
X692823Y457606D01*
X694538Y459321D01*
X696779Y460249D01*
X699205Y460249D01*
X701446Y459321D01*
X703161Y457606D01*
X704089Y455365D01*
X704089Y452939D01*
X703161Y450698D01*
X701995Y449533D01*
X701916Y449434D01*
X701832Y449340D01*
X701808Y449298D01*
X701778Y449260D01*
X701724Y449146D01*
X701663Y449035D01*
X701650Y448988D01*
X701629Y448945D01*
X701603Y448821D01*
X701568Y448699D01*
X701563Y448639D01*
X701556Y448604D01*
X701557Y448556D01*
X701549Y448456D01*
X701549Y413055D01*
X683199Y394705D01*
X683120Y394606D01*
X683036Y394512D01*
X683012Y394470D01*
X682982Y394432D01*
X682928Y394318D01*
X682867Y394207D01*
X682854Y394160D01*
X682833Y394117D01*
X682807Y393993D01*
X682772Y393872D01*
X682767Y393811D01*
X682760Y393776D01*
X682761Y393728D01*
X682753Y393628D01*
X682753Y391979D01*
X681825Y389738D01*
X680110Y388023D01*
X677869Y387095D01*
X675443Y387095D01*
G37*
%LPD*%
%LPC*%
G36*
X595687Y222503D02*
X595687Y222503D01*
X593446Y223431D01*
X591731Y225146D01*
X590803Y227387D01*
X590803Y229813D01*
X591731Y232054D01*
X593446Y233769D01*
X595687Y234697D01*
X597336Y234697D01*
X597461Y234711D01*
X597588Y234718D01*
X597634Y234731D01*
X597682Y234737D01*
X597801Y234779D01*
X597922Y234814D01*
X597965Y234838D01*
X598010Y234854D01*
X598116Y234923D01*
X598227Y234984D01*
X598273Y235024D01*
X598303Y235043D01*
X598336Y235078D01*
X598413Y235143D01*
X608127Y244857D01*
X623773Y244857D01*
X633487Y235143D01*
X633586Y235064D01*
X633680Y234980D01*
X633722Y234956D01*
X633760Y234926D01*
X633874Y234872D01*
X633985Y234811D01*
X634032Y234798D01*
X634075Y234777D01*
X634199Y234751D01*
X634320Y234716D01*
X634381Y234711D01*
X634416Y234704D01*
X634464Y234705D01*
X634564Y234697D01*
X636213Y234697D01*
X638454Y233769D01*
X640169Y232054D01*
X641097Y229813D01*
X641097Y227387D01*
X640169Y225146D01*
X638454Y223431D01*
X636213Y222503D01*
X633787Y222503D01*
X631546Y223431D01*
X629831Y225146D01*
X628903Y227387D01*
X628903Y229036D01*
X628889Y229161D01*
X628882Y229288D01*
X628869Y229334D01*
X628863Y229382D01*
X628821Y229501D01*
X628786Y229622D01*
X628762Y229665D01*
X628746Y229710D01*
X628677Y229816D01*
X628616Y229927D01*
X628576Y229973D01*
X628557Y230003D01*
X628522Y230036D01*
X628457Y230113D01*
X621273Y237297D01*
X621174Y237376D01*
X621080Y237460D01*
X621038Y237484D01*
X621000Y237514D01*
X620886Y237568D01*
X620775Y237629D01*
X620728Y237642D01*
X620685Y237663D01*
X620561Y237689D01*
X620440Y237724D01*
X620379Y237729D01*
X620344Y237736D01*
X620296Y237735D01*
X620196Y237743D01*
X611704Y237743D01*
X611579Y237729D01*
X611452Y237722D01*
X611406Y237709D01*
X611358Y237703D01*
X611239Y237661D01*
X611118Y237626D01*
X611075Y237602D01*
X611030Y237586D01*
X610924Y237517D01*
X610813Y237456D01*
X610767Y237416D01*
X610737Y237397D01*
X610704Y237362D01*
X610627Y237297D01*
X603443Y230113D01*
X603364Y230014D01*
X603280Y229920D01*
X603256Y229878D01*
X603226Y229840D01*
X603172Y229726D01*
X603111Y229615D01*
X603098Y229568D01*
X603077Y229525D01*
X603051Y229401D01*
X603016Y229280D01*
X603011Y229219D01*
X603004Y229184D01*
X603005Y229136D01*
X602997Y229036D01*
X602997Y227387D01*
X602069Y225146D01*
X600354Y223431D01*
X598113Y222503D01*
X595687Y222503D01*
G37*
%LPD*%
%LPC*%
G36*
X269480Y527811D02*
X269480Y527811D01*
X262635Y534656D01*
X262635Y544336D01*
X269480Y551181D01*
X279160Y551181D01*
X286005Y544336D01*
X286005Y534656D01*
X279160Y527811D01*
X269480Y527811D01*
G37*
%LPD*%
%LPC*%
G36*
X933944Y725931D02*
X933944Y725931D01*
X927099Y732776D01*
X927099Y742456D01*
X933944Y749301D01*
X943624Y749301D01*
X950469Y742456D01*
X950469Y732776D01*
X943624Y725931D01*
X933944Y725931D01*
G37*
%LPD*%
%LPC*%
G36*
X106474Y836929D02*
X106474Y836929D01*
X100075Y843328D01*
X100075Y852376D01*
X106474Y858775D01*
X115522Y858775D01*
X121921Y852376D01*
X121921Y843328D01*
X115522Y836929D01*
X106474Y836929D01*
G37*
%LPD*%
%LPC*%
G36*
X103934Y709929D02*
X103934Y709929D01*
X97535Y716328D01*
X97535Y725376D01*
X103934Y731775D01*
X112982Y731775D01*
X119381Y725376D01*
X119381Y716328D01*
X112982Y709929D01*
X103934Y709929D01*
G37*
%LPD*%
%LPC*%
G36*
X112570Y330961D02*
X112570Y330961D01*
X106171Y337360D01*
X106171Y346408D01*
X112570Y352807D01*
X121618Y352807D01*
X128017Y346408D01*
X128017Y337360D01*
X121618Y330961D01*
X112570Y330961D01*
G37*
%LPD*%
%LPC*%
G36*
X110030Y356361D02*
X110030Y356361D01*
X103631Y362760D01*
X103631Y371808D01*
X110030Y378207D01*
X119078Y378207D01*
X125477Y371808D01*
X125477Y362760D01*
X119078Y356361D01*
X110030Y356361D01*
G37*
%LPD*%
%LPC*%
G36*
X106474Y684529D02*
X106474Y684529D01*
X100075Y690928D01*
X100075Y699976D01*
X106474Y706375D01*
X115522Y706375D01*
X121921Y699976D01*
X121921Y690928D01*
X115522Y684529D01*
X106474Y684529D01*
G37*
%LPD*%
%LPC*%
G36*
X103934Y811529D02*
X103934Y811529D01*
X97535Y817928D01*
X97535Y826976D01*
X103934Y833375D01*
X112982Y833375D01*
X119381Y826976D01*
X119381Y817928D01*
X112982Y811529D01*
X103934Y811529D01*
G37*
%LPD*%
%LPC*%
G36*
X106474Y735329D02*
X106474Y735329D01*
X100075Y741728D01*
X100075Y750776D01*
X106474Y757175D01*
X115522Y757175D01*
X121921Y750776D01*
X121921Y741728D01*
X115522Y735329D01*
X106474Y735329D01*
G37*
%LPD*%
%LPC*%
G36*
X110030Y407161D02*
X110030Y407161D01*
X103631Y413560D01*
X103631Y422608D01*
X110030Y429007D01*
X119078Y429007D01*
X125477Y422608D01*
X125477Y413560D01*
X119078Y407161D01*
X110030Y407161D01*
G37*
%LPD*%
%LPC*%
G36*
X103934Y659129D02*
X103934Y659129D01*
X97535Y665528D01*
X97535Y674576D01*
X103934Y680975D01*
X112982Y680975D01*
X119381Y674576D01*
X119381Y665528D01*
X112982Y659129D01*
X103934Y659129D01*
G37*
%LPD*%
%LPC*%
G36*
X110030Y457961D02*
X110030Y457961D01*
X103631Y464360D01*
X103631Y473408D01*
X110030Y479807D01*
X119078Y479807D01*
X125477Y473408D01*
X125477Y464360D01*
X119078Y457961D01*
X110030Y457961D01*
G37*
%LPD*%
%LPC*%
G36*
X112570Y381761D02*
X112570Y381761D01*
X106171Y388160D01*
X106171Y397208D01*
X112570Y403607D01*
X121618Y403607D01*
X128017Y397208D01*
X128017Y388160D01*
X121618Y381761D01*
X112570Y381761D01*
G37*
%LPD*%
%LPC*%
G36*
X112570Y432561D02*
X112570Y432561D01*
X106171Y438960D01*
X106171Y448008D01*
X112570Y454407D01*
X121618Y454407D01*
X128017Y448008D01*
X128017Y438960D01*
X121618Y432561D01*
X112570Y432561D01*
G37*
%LPD*%
%LPC*%
G36*
X112570Y483361D02*
X112570Y483361D01*
X106171Y489760D01*
X106171Y498808D01*
X112570Y505207D01*
X121618Y505207D01*
X128017Y498808D01*
X128017Y489760D01*
X121618Y483361D01*
X112570Y483361D01*
G37*
%LPD*%
%LPC*%
G36*
X106474Y786129D02*
X106474Y786129D01*
X100075Y792528D01*
X100075Y801576D01*
X106474Y807975D01*
X115522Y807975D01*
X121921Y801576D01*
X121921Y792528D01*
X115522Y786129D01*
X106474Y786129D01*
G37*
%LPD*%
%LPC*%
G36*
X103934Y760729D02*
X103934Y760729D01*
X97535Y767128D01*
X97535Y776176D01*
X103934Y782575D01*
X112982Y782575D01*
X119381Y776176D01*
X119381Y767128D01*
X112982Y760729D01*
X103934Y760729D01*
G37*
%LPD*%
%LPC*%
G36*
X110030Y305561D02*
X110030Y305561D01*
X103631Y311960D01*
X103631Y321008D01*
X110030Y327407D01*
X119078Y327407D01*
X125477Y321008D01*
X125477Y311960D01*
X119078Y305561D01*
X110030Y305561D01*
G37*
%LPD*%
%LPC*%
G36*
X810880Y625347D02*
X810880Y625347D01*
X807332Y626817D01*
X804617Y629532D01*
X803147Y633080D01*
X803147Y636920D01*
X804617Y640468D01*
X807332Y643183D01*
X810880Y644653D01*
X814720Y644653D01*
X818268Y643183D01*
X820983Y640468D01*
X822453Y636920D01*
X822453Y633080D01*
X820983Y629532D01*
X818268Y626817D01*
X814720Y625347D01*
X810880Y625347D01*
G37*
%LPD*%
%LPC*%
G36*
X785480Y625347D02*
X785480Y625347D01*
X781932Y626817D01*
X779217Y629532D01*
X777747Y633080D01*
X777747Y636920D01*
X779217Y640468D01*
X781932Y643183D01*
X785480Y644653D01*
X789320Y644653D01*
X792868Y643183D01*
X795583Y640468D01*
X797053Y636920D01*
X797053Y633080D01*
X795583Y629532D01*
X792868Y626817D01*
X789320Y625347D01*
X785480Y625347D01*
G37*
%LPD*%
%LPC*%
G36*
X785480Y828547D02*
X785480Y828547D01*
X781932Y830017D01*
X779217Y832732D01*
X777747Y836280D01*
X777747Y840120D01*
X779217Y843668D01*
X781932Y846383D01*
X785480Y847853D01*
X789320Y847853D01*
X792868Y846383D01*
X795583Y843668D01*
X797053Y840120D01*
X797053Y836280D01*
X795583Y832732D01*
X792868Y830017D01*
X789320Y828547D01*
X785480Y828547D01*
G37*
%LPD*%
%LPC*%
G36*
X810880Y549147D02*
X810880Y549147D01*
X807332Y550617D01*
X804617Y553332D01*
X803147Y556880D01*
X803147Y560720D01*
X804617Y564268D01*
X807332Y566983D01*
X810880Y568453D01*
X814720Y568453D01*
X818268Y566983D01*
X820983Y564268D01*
X822453Y560720D01*
X822453Y556880D01*
X820983Y553332D01*
X818268Y550617D01*
X814720Y549147D01*
X810880Y549147D01*
G37*
%LPD*%
%LPC*%
G36*
X785480Y599947D02*
X785480Y599947D01*
X781932Y601417D01*
X779217Y604132D01*
X777747Y607680D01*
X777747Y611520D01*
X779217Y615068D01*
X781932Y617783D01*
X785480Y619253D01*
X789320Y619253D01*
X792868Y617783D01*
X795583Y615068D01*
X797053Y611520D01*
X797053Y607680D01*
X795583Y604132D01*
X792868Y601417D01*
X789320Y599947D01*
X785480Y599947D01*
G37*
%LPD*%
%LPC*%
G36*
X810880Y574547D02*
X810880Y574547D01*
X807332Y576017D01*
X804617Y578732D01*
X803147Y582280D01*
X803147Y586120D01*
X804617Y589668D01*
X807332Y592383D01*
X810880Y593853D01*
X814720Y593853D01*
X818268Y592383D01*
X820983Y589668D01*
X822453Y586120D01*
X822453Y582280D01*
X820983Y578732D01*
X818268Y576017D01*
X814720Y574547D01*
X810880Y574547D01*
G37*
%LPD*%
%LPC*%
G36*
X810880Y803147D02*
X810880Y803147D01*
X807332Y804617D01*
X804617Y807332D01*
X803147Y810880D01*
X803147Y814720D01*
X804617Y818268D01*
X807332Y820983D01*
X810880Y822453D01*
X814720Y822453D01*
X818268Y820983D01*
X820983Y818268D01*
X822453Y814720D01*
X822453Y810880D01*
X820983Y807332D01*
X818268Y804617D01*
X814720Y803147D01*
X810880Y803147D01*
G37*
%LPD*%
%LPC*%
G36*
X785480Y549147D02*
X785480Y549147D01*
X781932Y550617D01*
X779217Y553332D01*
X777747Y556880D01*
X777747Y560720D01*
X779217Y564268D01*
X781932Y566983D01*
X785480Y568453D01*
X789320Y568453D01*
X792868Y566983D01*
X795583Y564268D01*
X797053Y560720D01*
X797053Y556880D01*
X795583Y553332D01*
X792868Y550617D01*
X789320Y549147D01*
X785480Y549147D01*
G37*
%LPD*%
%LPC*%
G36*
X785480Y472947D02*
X785480Y472947D01*
X781932Y474417D01*
X779217Y477132D01*
X777747Y480680D01*
X777747Y484520D01*
X779217Y488068D01*
X781932Y490783D01*
X785480Y492253D01*
X789320Y492253D01*
X792868Y490783D01*
X795583Y488068D01*
X797053Y484520D01*
X797053Y480680D01*
X795583Y477132D01*
X792868Y474417D01*
X789320Y472947D01*
X785480Y472947D01*
G37*
%LPD*%
%LPC*%
G36*
X810880Y422147D02*
X810880Y422147D01*
X807332Y423617D01*
X804617Y426332D01*
X803147Y429880D01*
X803147Y433720D01*
X804617Y437268D01*
X807332Y439983D01*
X810880Y441453D01*
X814720Y441453D01*
X818268Y439983D01*
X820983Y437268D01*
X822453Y433720D01*
X822453Y429880D01*
X820983Y426332D01*
X818268Y423617D01*
X814720Y422147D01*
X810880Y422147D01*
G37*
%LPD*%
%LPC*%
G36*
X785480Y422147D02*
X785480Y422147D01*
X781932Y423617D01*
X779217Y426332D01*
X777747Y429880D01*
X777747Y433720D01*
X779217Y437268D01*
X781932Y439983D01*
X785480Y441453D01*
X789320Y441453D01*
X792868Y439983D01*
X795583Y437268D01*
X797053Y433720D01*
X797053Y429880D01*
X795583Y426332D01*
X792868Y423617D01*
X789320Y422147D01*
X785480Y422147D01*
G37*
%LPD*%
%LPC*%
G36*
X810880Y447547D02*
X810880Y447547D01*
X807332Y449017D01*
X804617Y451732D01*
X803147Y455280D01*
X803147Y459120D01*
X804617Y462668D01*
X807332Y465383D01*
X810880Y466853D01*
X814720Y466853D01*
X818268Y465383D01*
X820983Y462668D01*
X822453Y459120D01*
X822453Y455280D01*
X820983Y451732D01*
X818268Y449017D01*
X814720Y447547D01*
X810880Y447547D01*
G37*
%LPD*%
%LPC*%
G36*
X810880Y396747D02*
X810880Y396747D01*
X807332Y398217D01*
X804617Y400932D01*
X803147Y404480D01*
X803147Y408320D01*
X804617Y411868D01*
X807332Y414583D01*
X810880Y416053D01*
X814720Y416053D01*
X818268Y414583D01*
X820983Y411868D01*
X822453Y408320D01*
X822453Y404480D01*
X820983Y400932D01*
X818268Y398217D01*
X814720Y396747D01*
X810880Y396747D01*
G37*
%LPD*%
%LPC*%
G36*
X785480Y396747D02*
X785480Y396747D01*
X781932Y398217D01*
X779217Y400932D01*
X777747Y404480D01*
X777747Y408320D01*
X779217Y411868D01*
X781932Y414583D01*
X785480Y416053D01*
X789320Y416053D01*
X792868Y414583D01*
X795583Y411868D01*
X797053Y408320D01*
X797053Y404480D01*
X795583Y400932D01*
X792868Y398217D01*
X789320Y396747D01*
X785480Y396747D01*
G37*
%LPD*%
%LPC*%
G36*
X785480Y676147D02*
X785480Y676147D01*
X781932Y677617D01*
X779217Y680332D01*
X777747Y683880D01*
X777747Y687720D01*
X779217Y691268D01*
X781932Y693983D01*
X785480Y695453D01*
X789320Y695453D01*
X792868Y693983D01*
X795583Y691268D01*
X797053Y687720D01*
X797053Y683880D01*
X795583Y680332D01*
X792868Y677617D01*
X789320Y676147D01*
X785480Y676147D01*
G37*
%LPD*%
%LPC*%
G36*
X785480Y650747D02*
X785480Y650747D01*
X781932Y652217D01*
X779217Y654932D01*
X777747Y658480D01*
X777747Y662320D01*
X779217Y665868D01*
X781932Y668583D01*
X785480Y670053D01*
X789320Y670053D01*
X792868Y668583D01*
X795583Y665868D01*
X797053Y662320D01*
X797053Y658480D01*
X795583Y654932D01*
X792868Y652217D01*
X789320Y650747D01*
X785480Y650747D01*
G37*
%LPD*%
%LPC*%
G36*
X270763Y633475D02*
X270763Y633475D01*
X270763Y643129D01*
X273274Y643129D01*
X280417Y635986D01*
X280417Y633475D01*
X270763Y633475D01*
G37*
%LPD*%
%LPC*%
G36*
X256031Y633475D02*
X256031Y633475D01*
X256031Y635986D01*
X263174Y643129D01*
X265685Y643129D01*
X265685Y633475D01*
X256031Y633475D01*
G37*
%LPD*%
%LPC*%
G36*
X270763Y618743D02*
X270763Y618743D01*
X270763Y628397D01*
X280417Y628397D01*
X280417Y625886D01*
X273274Y618743D01*
X270763Y618743D01*
G37*
%LPD*%
%LPC*%
G36*
X263174Y618743D02*
X263174Y618743D01*
X256031Y625886D01*
X256031Y628397D01*
X265685Y628397D01*
X265685Y618743D01*
X263174Y618743D01*
G37*
%LPD*%
%LPC*%
G36*
X789939Y815339D02*
X789939Y815339D01*
X789939Y822659D01*
X791300Y822216D01*
X792725Y821490D01*
X794019Y820550D01*
X795150Y819419D01*
X796090Y818125D01*
X796816Y816700D01*
X797259Y815339D01*
X789939Y815339D01*
G37*
%LPD*%
%LPC*%
G36*
X815339Y840739D02*
X815339Y840739D01*
X815339Y848059D01*
X816700Y847616D01*
X818125Y846890D01*
X819419Y845950D01*
X820550Y844819D01*
X821490Y843525D01*
X822216Y842100D01*
X822659Y840739D01*
X815339Y840739D01*
G37*
%LPD*%
%LPC*%
G36*
X815339Y612139D02*
X815339Y612139D01*
X815339Y619459D01*
X816700Y619016D01*
X818125Y618290D01*
X819419Y617350D01*
X820550Y616219D01*
X821490Y614925D01*
X822216Y613500D01*
X822659Y612139D01*
X815339Y612139D01*
G37*
%LPD*%
%LPC*%
G36*
X789939Y459739D02*
X789939Y459739D01*
X789939Y467059D01*
X791300Y466616D01*
X792725Y465890D01*
X794019Y464950D01*
X795150Y463819D01*
X796090Y462525D01*
X796816Y461100D01*
X797259Y459739D01*
X789939Y459739D01*
G37*
%LPD*%
%LPC*%
G36*
X789939Y586739D02*
X789939Y586739D01*
X789939Y594059D01*
X791300Y593616D01*
X792725Y592890D01*
X794019Y591950D01*
X795150Y590819D01*
X796090Y589525D01*
X796816Y588100D01*
X797259Y586739D01*
X789939Y586739D01*
G37*
%LPD*%
%LPC*%
G36*
X815339Y485139D02*
X815339Y485139D01*
X815339Y492459D01*
X816700Y492016D01*
X818125Y491290D01*
X819419Y490350D01*
X820550Y489219D01*
X821490Y487925D01*
X822216Y486500D01*
X822659Y485139D01*
X815339Y485139D01*
G37*
%LPD*%
%LPC*%
G36*
X789939Y739139D02*
X789939Y739139D01*
X789939Y746459D01*
X791300Y746016D01*
X792725Y745290D01*
X794019Y744350D01*
X795150Y743219D01*
X796090Y741925D01*
X796816Y740500D01*
X797259Y739139D01*
X789939Y739139D01*
G37*
%LPD*%
%LPC*%
G36*
X802941Y840739D02*
X802941Y840739D01*
X803384Y842100D01*
X804110Y843525D01*
X805050Y844819D01*
X806181Y845950D01*
X807475Y846890D01*
X808900Y847616D01*
X810261Y848059D01*
X810261Y840739D01*
X802941Y840739D01*
G37*
%LPD*%
%LPC*%
G36*
X815339Y835661D02*
X815339Y835661D01*
X822659Y835661D01*
X822216Y834300D01*
X821490Y832875D01*
X820550Y831581D01*
X819419Y830450D01*
X818125Y829510D01*
X816700Y828784D01*
X815339Y828341D01*
X815339Y835661D01*
G37*
%LPD*%
%LPC*%
G36*
X789939Y581661D02*
X789939Y581661D01*
X797259Y581661D01*
X796816Y580300D01*
X796090Y578875D01*
X795150Y577581D01*
X794019Y576450D01*
X792725Y575510D01*
X791300Y574784D01*
X789939Y574341D01*
X789939Y581661D01*
G37*
%LPD*%
%LPC*%
G36*
X777541Y815339D02*
X777541Y815339D01*
X777984Y816700D01*
X778710Y818125D01*
X779650Y819419D01*
X780781Y820550D01*
X782075Y821490D01*
X783500Y822216D01*
X784861Y822659D01*
X784861Y815339D01*
X777541Y815339D01*
G37*
%LPD*%
%LPC*%
G36*
X789939Y327661D02*
X789939Y327661D01*
X797259Y327661D01*
X796816Y326300D01*
X796090Y324875D01*
X795150Y323581D01*
X794019Y322450D01*
X792725Y321510D01*
X791300Y320784D01*
X789939Y320341D01*
X789939Y327661D01*
G37*
%LPD*%
%LPC*%
G36*
X789939Y810261D02*
X789939Y810261D01*
X797259Y810261D01*
X796816Y808900D01*
X796090Y807475D01*
X795150Y806181D01*
X794019Y805050D01*
X792725Y804110D01*
X791300Y803384D01*
X789939Y802941D01*
X789939Y810261D01*
G37*
%LPD*%
%LPC*%
G36*
X777541Y739139D02*
X777541Y739139D01*
X777984Y740500D01*
X778710Y741925D01*
X779650Y743219D01*
X780781Y744350D01*
X782075Y745290D01*
X783500Y746016D01*
X784861Y746459D01*
X784861Y739139D01*
X777541Y739139D01*
G37*
%LPD*%
%LPC*%
G36*
X815339Y226061D02*
X815339Y226061D01*
X822659Y226061D01*
X822216Y224700D01*
X821490Y223275D01*
X820550Y221981D01*
X819419Y220850D01*
X818125Y219910D01*
X816700Y219184D01*
X815339Y218741D01*
X815339Y226061D01*
G37*
%LPD*%
%LPC*%
G36*
X802941Y612139D02*
X802941Y612139D01*
X803384Y613500D01*
X804110Y614925D01*
X805050Y616219D01*
X806181Y617350D01*
X807475Y618290D01*
X808900Y619016D01*
X810261Y619459D01*
X810261Y612139D01*
X802941Y612139D01*
G37*
%LPD*%
%LPC*%
G36*
X802941Y485139D02*
X802941Y485139D01*
X803384Y486500D01*
X804110Y487925D01*
X805050Y489219D01*
X806181Y490350D01*
X807475Y491290D01*
X808900Y492016D01*
X810261Y492459D01*
X810261Y485139D01*
X802941Y485139D01*
G37*
%LPD*%
%LPC*%
G36*
X815339Y607061D02*
X815339Y607061D01*
X822659Y607061D01*
X822216Y605700D01*
X821490Y604275D01*
X820550Y602981D01*
X819419Y601850D01*
X818125Y600910D01*
X816700Y600184D01*
X815339Y599741D01*
X815339Y607061D01*
G37*
%LPD*%
%LPC*%
G36*
X815339Y480061D02*
X815339Y480061D01*
X822659Y480061D01*
X822216Y478700D01*
X821490Y477275D01*
X820550Y475981D01*
X819419Y474850D01*
X818125Y473910D01*
X816700Y473184D01*
X815339Y472741D01*
X815339Y480061D01*
G37*
%LPD*%
%LPC*%
G36*
X777541Y459739D02*
X777541Y459739D01*
X777984Y461100D01*
X778710Y462525D01*
X779650Y463819D01*
X780781Y464950D01*
X782075Y465890D01*
X783500Y466616D01*
X784861Y467059D01*
X784861Y459739D01*
X777541Y459739D01*
G37*
%LPD*%
%LPC*%
G36*
X789939Y708661D02*
X789939Y708661D01*
X797259Y708661D01*
X796816Y707300D01*
X796090Y705875D01*
X795150Y704581D01*
X794019Y703450D01*
X792725Y702510D01*
X791300Y701784D01*
X789939Y701341D01*
X789939Y708661D01*
G37*
%LPD*%
%LPC*%
G36*
X789939Y454661D02*
X789939Y454661D01*
X797259Y454661D01*
X796816Y453300D01*
X796090Y451875D01*
X795150Y450581D01*
X794019Y449450D01*
X792725Y448510D01*
X791300Y447784D01*
X789939Y447341D01*
X789939Y454661D01*
G37*
%LPD*%
%LPC*%
G36*
X777541Y586739D02*
X777541Y586739D01*
X777984Y588100D01*
X778710Y589525D01*
X779650Y590819D01*
X780781Y591950D01*
X782075Y592890D01*
X783500Y593616D01*
X784861Y594059D01*
X784861Y586739D01*
X777541Y586739D01*
G37*
%LPD*%
%LPC*%
G36*
X808900Y828784D02*
X808900Y828784D01*
X807475Y829510D01*
X806181Y830450D01*
X805050Y831581D01*
X804110Y832875D01*
X803384Y834300D01*
X802941Y835661D01*
X810261Y835661D01*
X810261Y828341D01*
X808900Y828784D01*
G37*
%LPD*%
%LPC*%
G36*
X783500Y803384D02*
X783500Y803384D01*
X782075Y804110D01*
X780781Y805050D01*
X779650Y806181D01*
X778710Y807475D01*
X777984Y808900D01*
X777541Y810261D01*
X784861Y810261D01*
X784861Y802941D01*
X783500Y803384D01*
G37*
%LPD*%
%LPC*%
G36*
X808900Y600184D02*
X808900Y600184D01*
X807475Y600910D01*
X806181Y601850D01*
X805050Y602981D01*
X804110Y604275D01*
X803384Y605700D01*
X802941Y607061D01*
X810261Y607061D01*
X810261Y599741D01*
X808900Y600184D01*
G37*
%LPD*%
%LPC*%
G36*
X808900Y473184D02*
X808900Y473184D01*
X807475Y473910D01*
X806181Y474850D01*
X805050Y475981D01*
X804110Y477275D01*
X803384Y478700D01*
X802941Y480061D01*
X810261Y480061D01*
X810261Y472741D01*
X808900Y473184D01*
G37*
%LPD*%
%LPC*%
G36*
X783500Y701784D02*
X783500Y701784D01*
X782075Y702510D01*
X780781Y703450D01*
X779650Y704581D01*
X778710Y705875D01*
X777984Y707300D01*
X777541Y708661D01*
X784861Y708661D01*
X784861Y701341D01*
X783500Y701784D01*
G37*
%LPD*%
%LPC*%
G36*
X783500Y574784D02*
X783500Y574784D01*
X782075Y575510D01*
X780781Y576450D01*
X779650Y577581D01*
X778710Y578875D01*
X777984Y580300D01*
X777541Y581661D01*
X784861Y581661D01*
X784861Y574341D01*
X783500Y574784D01*
G37*
%LPD*%
%LPC*%
G36*
X783500Y320784D02*
X783500Y320784D01*
X782075Y321510D01*
X780781Y322450D01*
X779650Y323581D01*
X778710Y324875D01*
X777984Y326300D01*
X777541Y327661D01*
X784861Y327661D01*
X784861Y320341D01*
X783500Y320784D01*
G37*
%LPD*%
%LPC*%
G36*
X783500Y447784D02*
X783500Y447784D01*
X782075Y448510D01*
X780781Y449450D01*
X779650Y450581D01*
X778710Y451875D01*
X777984Y453300D01*
X777541Y454661D01*
X784861Y454661D01*
X784861Y447341D01*
X783500Y447784D01*
G37*
%LPD*%
%LPC*%
G36*
X808900Y219184D02*
X808900Y219184D01*
X807475Y219910D01*
X806181Y220850D01*
X805050Y221981D01*
X804110Y223275D01*
X803384Y224700D01*
X802941Y226061D01*
X810261Y226061D01*
X810261Y218741D01*
X808900Y219184D01*
G37*
%LPD*%
%LPC*%
G36*
X440435Y812291D02*
X440435Y812291D01*
X440435Y817199D01*
X440839Y817119D01*
X442041Y816621D01*
X443122Y815898D01*
X444042Y814978D01*
X444765Y813897D01*
X445263Y812695D01*
X445343Y812291D01*
X440435Y812291D01*
G37*
%LPD*%
%LPC*%
G36*
X443483Y453643D02*
X443483Y453643D01*
X443483Y458551D01*
X443887Y458471D01*
X445089Y457973D01*
X446170Y457250D01*
X447090Y456330D01*
X447813Y455249D01*
X448311Y454047D01*
X448391Y453643D01*
X443483Y453643D01*
G37*
%LPD*%
%LPC*%
G36*
X467867Y641603D02*
X467867Y641603D01*
X467867Y646511D01*
X468271Y646431D01*
X469473Y645933D01*
X470554Y645210D01*
X471474Y644290D01*
X472197Y643209D01*
X472695Y642007D01*
X472775Y641603D01*
X467867Y641603D01*
G37*
%LPD*%
%LPC*%
G36*
X459913Y641603D02*
X459913Y641603D01*
X459993Y642007D01*
X460491Y643209D01*
X461214Y644290D01*
X462134Y645210D01*
X463215Y645933D01*
X464417Y646431D01*
X464821Y646511D01*
X464821Y641603D01*
X459913Y641603D01*
G37*
%LPD*%
%LPC*%
G36*
X443483Y450597D02*
X443483Y450597D01*
X448391Y450597D01*
X448311Y450193D01*
X447813Y448991D01*
X447090Y447910D01*
X446170Y446990D01*
X445089Y446267D01*
X443887Y445769D01*
X443483Y445689D01*
X443483Y450597D01*
G37*
%LPD*%
%LPC*%
G36*
X432481Y812291D02*
X432481Y812291D01*
X432561Y812695D01*
X433059Y813897D01*
X433782Y814978D01*
X434702Y815898D01*
X435783Y816621D01*
X436985Y817119D01*
X437389Y817199D01*
X437389Y812291D01*
X432481Y812291D01*
G37*
%LPD*%
%LPC*%
G36*
X435529Y453643D02*
X435529Y453643D01*
X435609Y454047D01*
X436107Y455249D01*
X436830Y456330D01*
X437750Y457250D01*
X438831Y457973D01*
X440033Y458471D01*
X440437Y458551D01*
X440437Y453643D01*
X435529Y453643D01*
G37*
%LPD*%
%LPC*%
G36*
X467867Y638557D02*
X467867Y638557D01*
X472775Y638557D01*
X472695Y638153D01*
X472197Y636951D01*
X471474Y635870D01*
X470554Y634950D01*
X469473Y634227D01*
X468271Y633729D01*
X467867Y633649D01*
X467867Y638557D01*
G37*
%LPD*%
%LPC*%
G36*
X440435Y809245D02*
X440435Y809245D01*
X445343Y809245D01*
X445329Y809173D01*
X445329Y809172D01*
X445263Y808841D01*
X444765Y807639D01*
X444042Y806558D01*
X443122Y805638D01*
X442041Y804915D01*
X440839Y804417D01*
X440435Y804337D01*
X440435Y809245D01*
G37*
%LPD*%
%LPC*%
G36*
X464417Y633729D02*
X464417Y633729D01*
X463215Y634227D01*
X462134Y634950D01*
X461214Y635870D01*
X460491Y636951D01*
X459993Y638153D01*
X459913Y638557D01*
X464821Y638557D01*
X464821Y633649D01*
X464417Y633729D01*
G37*
%LPD*%
%LPC*%
G36*
X436985Y804417D02*
X436985Y804417D01*
X435783Y804915D01*
X434702Y805638D01*
X433782Y806558D01*
X433059Y807639D01*
X432561Y808841D01*
X432481Y809245D01*
X437389Y809245D01*
X437389Y804337D01*
X436985Y804417D01*
G37*
%LPD*%
%LPC*%
G36*
X440033Y445769D02*
X440033Y445769D01*
X438922Y446229D01*
X438831Y446267D01*
X437750Y446990D01*
X436830Y447910D01*
X436107Y448991D01*
X435609Y450193D01*
X435529Y450597D01*
X440437Y450597D01*
X440437Y445689D01*
X440033Y445769D01*
G37*
%LPD*%
D10*
X787400Y838200D03*
X812800Y838200D03*
X787400Y812800D03*
X812800Y812800D03*
X787400Y787400D03*
X812800Y787400D03*
X787400Y762000D03*
X812800Y762000D03*
X787400Y736600D03*
X812800Y736600D03*
X787400Y711200D03*
X812800Y711200D03*
X787400Y685800D03*
X812800Y685800D03*
X787400Y660400D03*
X812800Y660400D03*
X787400Y635000D03*
X812800Y635000D03*
X787400Y609600D03*
X812800Y609600D03*
X787400Y584200D03*
X812800Y584200D03*
X787400Y558800D03*
X812800Y558800D03*
X787400Y533400D03*
X812800Y533400D03*
X787400Y508000D03*
X812800Y508000D03*
X787400Y482600D03*
X812800Y482600D03*
X787400Y457200D03*
X812800Y457200D03*
X787400Y431800D03*
X812800Y431800D03*
X787400Y406400D03*
X812800Y406400D03*
X787400Y381000D03*
X812800Y381000D03*
X787400Y355600D03*
X812800Y355600D03*
X787400Y330200D03*
X812800Y330200D03*
X787400Y304800D03*
X812800Y304800D03*
X787400Y279400D03*
X812800Y279400D03*
X787400Y254000D03*
X812800Y254000D03*
X787400Y228600D03*
X812800Y228600D03*
D11*
X108458Y670052D03*
X110998Y695452D03*
X108458Y720852D03*
X110998Y746252D03*
X108458Y771652D03*
X110998Y797052D03*
X108458Y822452D03*
X110998Y847852D03*
X114554Y316484D03*
X117094Y341884D03*
X114554Y367284D03*
X117094Y392684D03*
X114554Y418084D03*
X117094Y443484D03*
X114554Y468884D03*
X117094Y494284D03*
D12*
X938784Y737616D03*
X274320Y539496D03*
X268224Y630936D03*
D13*
X787400Y812800D02*
X812800Y838200D01*
D14*
X438912Y810768D03*
D13*
X438912Y667512D01*
X466344Y640080D01*
D14*
X466344Y640080D03*
X441960Y452120D03*
X856488Y533400D03*
D13*
X877824Y533400D01*
X886968Y542544D01*
X886968Y551688D01*
D14*
X886968Y551688D03*
X880872Y768096D03*
D13*
X874776Y774192D01*
D14*
X762000Y774192D03*
D13*
X874776Y774192D01*
D14*
X713232Y704088D03*
D13*
X713232Y557784D01*
D14*
X856488Y512064D03*
D13*
X856488Y518160D01*
X850392Y524256D01*
X822960Y524256D02*
X819912Y521208D01*
X749808Y521208D01*
X748284Y522732D01*
X822960Y524256D02*
X850392Y524256D01*
X748284Y522732D02*
X713232Y557784D01*
D14*
X609600Y673100D03*
D13*
X735584Y458216D02*
X736600Y457200D01*
X735584Y458216D02*
X673100Y520700D01*
X647700Y673100D02*
X609600Y673100D01*
X673100Y647700D02*
X673100Y520700D01*
X673100Y647700D02*
X647700Y673100D01*
D14*
X737616Y387096D03*
D13*
X737616Y456184D01*
X736600Y457200D01*
D14*
X838200Y737616D03*
D13*
X917448Y737616D01*
D14*
X917448Y737616D03*
X736600Y635000D03*
D13*
X736600Y762000D01*
D14*
X660400Y838200D03*
D13*
X736600Y762000D01*
D14*
X826008Y664464D03*
D13*
X826008Y716280D01*
X821436Y720852D01*
X819912Y722376D01*
X749808Y859536D02*
X713232Y896112D01*
X649224Y896112D01*
X640080Y886968D01*
D14*
X640080Y886968D03*
D13*
X749808Y859536D02*
X749808Y728472D01*
X816864Y725424D02*
X819912Y722376D01*
X816864Y725424D02*
X752856Y725424D01*
X749808Y728472D01*
D14*
X736600Y622300D03*
X685800Y800100D03*
D13*
X723900Y762000D01*
X723900Y635000D01*
X736600Y622300D01*
D14*
X736600Y508000D03*
D13*
X698500Y546100D01*
X698500Y749300D01*
D14*
X698500Y749300D03*
X736600Y482600D03*
X635000Y711200D03*
D13*
X685800Y660400D01*
X685800Y533400D01*
X736600Y482600D01*
D14*
X734568Y908304D03*
D13*
X612648Y908304D01*
X585216Y880872D01*
X585216Y713232D01*
D14*
X585216Y713232D03*
X655320Y877824D03*
D13*
X655320Y862584D01*
X640080Y847344D01*
X640080Y746760D01*
X685800Y701040D01*
D14*
X685800Y685800D03*
D13*
X685800Y701040D01*
D14*
X698500Y355600D03*
D13*
X685800Y355600D01*
X660400Y381000D01*
X660400Y622300D01*
X647700Y635000D01*
D14*
X647700Y635000D03*
X698500Y266700D03*
D13*
X673100Y266700D01*
X635000Y304800D02*
X635000Y316992D01*
D14*
X635000Y558800D03*
D13*
X635000Y316992D01*
X635000Y304800D02*
X673100Y266700D01*
D14*
X658368Y646176D03*
D13*
X633984Y646176D01*
X621792Y633984D01*
X621792Y527304D01*
X612648Y518160D01*
X594360Y518160D01*
D14*
X594360Y518160D03*
X566928Y518160D03*
D13*
X563880Y515112D01*
X563880Y240792D02*
X592836Y211836D01*
X563880Y240792D02*
X563880Y515112D01*
D14*
X874776Y231648D03*
D13*
X854964Y211836D02*
X592836Y211836D01*
X854964Y211836D02*
X874776Y231648D01*
D14*
X863600Y254000D03*
D13*
X876300Y266700D01*
X876300Y279400D01*
X863600Y292100D01*
X685800Y292100D02*
X647700Y330200D01*
X647700Y571500D01*
X635000Y584200D01*
D14*
X635000Y584200D03*
D13*
X685800Y292100D02*
X863600Y292100D01*
X584200Y317500D02*
X584200Y530352D01*
X584200Y317500D02*
X673100Y228600D01*
X698500Y228600D01*
D14*
X698500Y228600D03*
D13*
X584200Y530352D02*
X591312Y537464D01*
X591312Y539496D01*
D14*
X591312Y539496D03*
X640080Y694944D03*
D13*
X603504Y694944D01*
X597408Y688848D01*
X597408Y548640D01*
X609600Y536448D01*
X609600Y533400D01*
D14*
X609600Y533400D03*
X835152Y685800D03*
D13*
X626364Y477012D02*
X600456Y451104D01*
X600456Y387096D02*
X621792Y365760D01*
X621792Y301752D02*
X682752Y240792D01*
X600456Y387096D02*
X600456Y451104D01*
X621792Y365760D02*
X621792Y301752D01*
X682752Y240792D02*
X871728Y240792D01*
X905256Y274320D01*
X905256Y615696D02*
X835152Y685800D01*
X905256Y615696D02*
X905256Y274320D01*
D14*
X626364Y477012D03*
X856488Y585216D03*
X673608Y432816D03*
D13*
X673608Y451104D01*
X694944Y472440D01*
X707136Y472440D01*
X719328Y460248D01*
X719328Y384048D01*
X734568Y368808D01*
X819912Y368808D01*
X838200Y387096D01*
X838200Y478536D01*
X853440Y493776D01*
X874776Y493776D01*
X896112Y515112D01*
X896112Y573024D01*
X883920Y585216D01*
X856488Y585216D01*
D14*
X697992Y454152D03*
D13*
X697992Y414528D01*
X676656Y393192D01*
D14*
X676656Y393192D03*
X856488Y429768D03*
D13*
X865632Y420624D01*
D14*
X658368Y362712D03*
X612648Y356616D03*
D13*
X612648Y332232D01*
X609600Y329184D01*
D14*
X609600Y329184D03*
D13*
X679704Y341376D02*
X829056Y341376D01*
X679704Y341376D02*
X658368Y362712D01*
X829056Y341376D02*
X865632Y377952D01*
X865632Y420624D01*
D14*
X584200Y254000D03*
D13*
X594360Y252984D02*
X600456Y259080D01*
X594360Y252984D02*
X585216Y252984D01*
X584200Y254000D01*
D14*
X600456Y286512D03*
D13*
X600456Y259080D01*
D14*
X596900Y228600D03*
D13*
X609600Y241300D01*
X622300Y241300D01*
X635000Y228600D01*
D14*
X635000Y228600D03*
M02*
