M48
;GenerationSoftware,Autodesk,EAGLE,9.6.2*%
;CreationDate,2020-11-12T20:08:30Z*%
FMAT,2
ICI,OFF
METRIC,TZ,000.000
T2C0.508
T1C1.016
%
G90
M71
T1
X78740Y66040
X81280Y66040
X78740Y63500
X81280Y63500
X78740Y60960
X81280Y60960
X78740Y58420
X81280Y58420
X81280Y55880
X78740Y53340
X81280Y53340
X78740Y50800
X81280Y50800
X78740Y48260
X81280Y48260
X78740Y55880
X78740Y45720
X81280Y45720
X78740Y43180
X81280Y43180
X78740Y40640
X81280Y40640
X78740Y38100
X81280Y38100
X78740Y35560
X81280Y35560
X78740Y33020
X81280Y33020
X78740Y30480
X81280Y30480
X78740Y27940
X81280Y27940
X78740Y25400
X81280Y25400
X78740Y22860
X81280Y22860
X10846Y67005
X11100Y69545
X10846Y72085
X10846Y77165
X11100Y79705
X10846Y82245
X11100Y84785
X11455Y31648
X11709Y34188
X11455Y36728
X11709Y39268
X81280Y76200
X11455Y41808
X11709Y44348
X11455Y46888
X11709Y49428
X93878Y73762
X27432Y53950
X26822Y63094
X78740Y83820
X81280Y83820
X78740Y81280
X81280Y81280
X78740Y78740
X81280Y78740
X78740Y76200
X11100Y74625
X78740Y73660
X81280Y73660
X78740Y71120
X81280Y71120
X78740Y68580
X81280Y68580
T2
X43891Y81077
X46634Y64008
X44196Y45212
X85649Y53340
X88697Y55169
X88087Y76810
X76200Y77419
X71323Y70409
X85649Y51206
X60960Y67310
X73762Y38710
X83820Y73762
X91745Y73762
X73660Y63500
X66040Y83820
X64008Y88697
X73660Y62230
X68580Y80010
X73660Y50800
X69850Y74930
X73660Y48260
X63500Y71120
X73457Y90830
X58522Y71323
X65532Y87782
X68580Y68580
X69850Y35560
X64770Y63500
X69850Y26670
X63500Y55880
X65837Y64618
X59436Y51816
X56693Y51816
X87478Y23165
X86360Y25400
X63500Y58420
X69850Y22860
X59131Y53950
X64008Y69494
X60960Y53340
X83515Y68580
X62636Y47701
X85649Y58522
X67361Y43282
X69799Y45415
X67666Y39319
X65837Y36271
X61265Y35662
X60960Y32918
X58420Y25400
X60046Y28651
X59690Y22860
X63500Y22860
X82601Y66446
X85649Y42977
M30