G04 EAGLE Gerber RS-274X export*
G75*
%MOMM*%
%FSLAX34Y34*%
%LPD*%
%INSoldermask Bottom*%
%IPPOS*%
%AMOC8*
5,1,8,0,0,1.08239X$1,22.5*%
G01*
%ADD10C,1.625600*%


D10*
X1092200Y787400D03*
X1117600Y787400D03*
X1092200Y762000D03*
X1117600Y762000D03*
X1092200Y736600D03*
X1117600Y736600D03*
X1092200Y711200D03*
X1117600Y711200D03*
X1092200Y685800D03*
X1117600Y685800D03*
X1092200Y660400D03*
X1117600Y660400D03*
X1092200Y635000D03*
X1117600Y635000D03*
X1092200Y609600D03*
X1117600Y609600D03*
X1092200Y584200D03*
X1117600Y584200D03*
X1092200Y558800D03*
X1117600Y558800D03*
X1092200Y533400D03*
X1117600Y533400D03*
X1092200Y508000D03*
X1117600Y508000D03*
X1092200Y482600D03*
X1117600Y482600D03*
X1092200Y457200D03*
X1117600Y457200D03*
X1092200Y431800D03*
X1117600Y431800D03*
X1092200Y406400D03*
X1117600Y406400D03*
X1092200Y381000D03*
X1117600Y381000D03*
X1092200Y355600D03*
X1117600Y355600D03*
X1092200Y330200D03*
X1117600Y330200D03*
X1092200Y304800D03*
X1117600Y304800D03*
X1092200Y279400D03*
X1117600Y279400D03*
X1092200Y254000D03*
X1117600Y254000D03*
X1092200Y228600D03*
X1117600Y228600D03*
X1092200Y203200D03*
X1117600Y203200D03*
X1092200Y177800D03*
X1117600Y177800D03*
M02*
