G04 EAGLE Gerber RS-274X export*
G75*
%MOMM*%
%FSLAX34Y34*%
%LPD*%
%INSilkscreen Bottom*%
%IPPOS*%
%AMOC8*
5,1,8,0,0,1.08239X$1,22.5*%
G01*
%ADD10C,0.508000*%


D10*
X1092200Y849630D02*
X1092078Y849628D01*
X1091956Y849622D01*
X1091834Y849612D01*
X1091713Y849599D01*
X1091592Y849581D01*
X1091472Y849560D01*
X1091352Y849534D01*
X1091234Y849505D01*
X1091116Y849473D01*
X1090999Y849436D01*
X1090884Y849396D01*
X1090770Y849352D01*
X1090658Y849304D01*
X1090547Y849253D01*
X1090438Y849198D01*
X1090330Y849140D01*
X1090225Y849078D01*
X1090122Y849013D01*
X1090020Y848945D01*
X1089921Y848873D01*
X1089825Y848799D01*
X1089730Y848721D01*
X1089639Y848640D01*
X1089549Y848557D01*
X1089463Y848471D01*
X1089380Y848381D01*
X1089299Y848290D01*
X1089221Y848195D01*
X1089147Y848099D01*
X1089075Y848000D01*
X1089007Y847898D01*
X1088942Y847795D01*
X1088880Y847690D01*
X1088822Y847582D01*
X1088767Y847473D01*
X1088716Y847362D01*
X1088668Y847250D01*
X1088624Y847136D01*
X1088584Y847021D01*
X1088547Y846904D01*
X1088515Y846786D01*
X1088486Y846668D01*
X1088460Y846548D01*
X1088439Y846428D01*
X1088421Y846307D01*
X1088408Y846186D01*
X1088398Y846064D01*
X1088392Y845942D01*
X1088390Y845820D01*
X1088392Y845698D01*
X1088398Y845576D01*
X1088408Y845454D01*
X1088421Y845333D01*
X1088439Y845212D01*
X1088460Y845092D01*
X1088486Y844972D01*
X1088515Y844854D01*
X1088547Y844736D01*
X1088584Y844619D01*
X1088624Y844504D01*
X1088668Y844390D01*
X1088716Y844278D01*
X1088767Y844167D01*
X1088822Y844058D01*
X1088880Y843950D01*
X1088942Y843845D01*
X1089007Y843742D01*
X1089075Y843640D01*
X1089147Y843541D01*
X1089221Y843445D01*
X1089299Y843350D01*
X1089380Y843259D01*
X1089463Y843169D01*
X1089549Y843083D01*
X1089639Y843000D01*
X1089730Y842919D01*
X1089825Y842841D01*
X1089921Y842767D01*
X1090020Y842695D01*
X1090122Y842627D01*
X1090225Y842562D01*
X1090330Y842500D01*
X1090438Y842442D01*
X1090547Y842387D01*
X1090658Y842336D01*
X1090770Y842288D01*
X1090884Y842244D01*
X1090999Y842204D01*
X1091116Y842167D01*
X1091234Y842135D01*
X1091352Y842106D01*
X1091472Y842080D01*
X1091592Y842059D01*
X1091713Y842041D01*
X1091834Y842028D01*
X1091956Y842018D01*
X1092078Y842012D01*
X1092200Y842010D01*
X1092322Y842012D01*
X1092444Y842018D01*
X1092566Y842028D01*
X1092687Y842041D01*
X1092808Y842059D01*
X1092928Y842080D01*
X1093048Y842106D01*
X1093166Y842135D01*
X1093284Y842167D01*
X1093401Y842204D01*
X1093516Y842244D01*
X1093630Y842288D01*
X1093742Y842336D01*
X1093853Y842387D01*
X1093962Y842442D01*
X1094070Y842500D01*
X1094175Y842562D01*
X1094278Y842627D01*
X1094380Y842695D01*
X1094479Y842767D01*
X1094575Y842841D01*
X1094670Y842919D01*
X1094761Y843000D01*
X1094851Y843083D01*
X1094937Y843169D01*
X1095020Y843259D01*
X1095101Y843350D01*
X1095179Y843445D01*
X1095253Y843541D01*
X1095325Y843640D01*
X1095393Y843742D01*
X1095458Y843845D01*
X1095520Y843950D01*
X1095578Y844058D01*
X1095633Y844167D01*
X1095684Y844278D01*
X1095732Y844390D01*
X1095776Y844504D01*
X1095816Y844619D01*
X1095853Y844736D01*
X1095885Y844854D01*
X1095914Y844972D01*
X1095940Y845092D01*
X1095961Y845212D01*
X1095979Y845333D01*
X1095992Y845454D01*
X1096002Y845576D01*
X1096008Y845698D01*
X1096010Y845820D01*
X1096008Y845942D01*
X1096002Y846064D01*
X1095992Y846186D01*
X1095979Y846307D01*
X1095961Y846428D01*
X1095940Y846548D01*
X1095914Y846668D01*
X1095885Y846786D01*
X1095853Y846904D01*
X1095816Y847021D01*
X1095776Y847136D01*
X1095732Y847250D01*
X1095684Y847362D01*
X1095633Y847473D01*
X1095578Y847582D01*
X1095520Y847690D01*
X1095458Y847795D01*
X1095393Y847898D01*
X1095325Y848000D01*
X1095253Y848099D01*
X1095179Y848195D01*
X1095101Y848290D01*
X1095020Y848381D01*
X1094937Y848471D01*
X1094851Y848557D01*
X1094761Y848640D01*
X1094670Y848721D01*
X1094575Y848799D01*
X1094479Y848873D01*
X1094380Y848945D01*
X1094278Y849013D01*
X1094175Y849078D01*
X1094070Y849140D01*
X1093962Y849198D01*
X1093853Y849253D01*
X1093742Y849304D01*
X1093630Y849352D01*
X1093516Y849396D01*
X1093401Y849436D01*
X1093284Y849473D01*
X1093166Y849505D01*
X1093048Y849534D01*
X1092928Y849560D01*
X1092808Y849581D01*
X1092687Y849599D01*
X1092566Y849612D01*
X1092444Y849622D01*
X1092322Y849628D01*
X1092200Y849630D01*
M02*
