G04 EAGLE Gerber RS-274X export*
G75*
%MOMM*%
%FSLAX34Y34*%
%LPD*%
%INSolderpaste Top*%
%IPPOS*%
%AMOC8*
5,1,8,0,0,1.08239X$1,22.5*%
G01*
%ADD10R,1.300000X1.500000*%
%ADD11R,1.500000X1.300000*%
%ADD12C,0.150000*%


D10*
X517500Y825500D03*
X498500Y825500D03*
X530200Y431800D03*
X511200Y431800D03*
X530200Y406400D03*
X511200Y406400D03*
X530200Y368300D03*
X511200Y368300D03*
X523900Y317500D03*
X542900Y317500D03*
X498500Y266700D03*
X517500Y266700D03*
X498500Y215900D03*
X517500Y215900D03*
X498500Y165100D03*
X517500Y165100D03*
D11*
X939800Y828700D03*
X939800Y847700D03*
X762000Y701700D03*
X762000Y720700D03*
X723900Y473100D03*
X723900Y492100D03*
D10*
X517500Y787400D03*
X498500Y787400D03*
D11*
X901700Y822300D03*
X901700Y803300D03*
X800100Y682600D03*
X800100Y663600D03*
X762000Y454000D03*
X762000Y435000D03*
X863600Y777900D03*
X863600Y796900D03*
X838200Y625500D03*
X838200Y644500D03*
X774700Y384200D03*
X774700Y403200D03*
X812800Y771500D03*
X812800Y752500D03*
X838200Y593700D03*
X838200Y574700D03*
X723900Y377800D03*
X723900Y358800D03*
X736600Y295300D03*
X736600Y314300D03*
D10*
X517500Y762000D03*
X498500Y762000D03*
D11*
X774700Y276200D03*
X774700Y257200D03*
X838200Y206400D03*
X838200Y225400D03*
X774700Y212700D03*
X774700Y193700D03*
X1017270Y727100D03*
X1017270Y746100D03*
D10*
X517500Y736600D03*
X498500Y736600D03*
X498500Y685800D03*
X517500Y685800D03*
X498500Y647700D03*
X517500Y647700D03*
X498500Y596900D03*
X517500Y596900D03*
X498500Y558800D03*
X517500Y558800D03*
X530200Y482600D03*
X511200Y482600D03*
D12*
X639250Y842300D02*
X657450Y842300D01*
X639250Y842300D02*
X639250Y846800D01*
X657450Y846800D01*
X657450Y842300D01*
X657450Y843725D02*
X639250Y843725D01*
X639250Y845150D02*
X657450Y845150D01*
X657450Y846575D02*
X639250Y846575D01*
X639250Y829600D02*
X657450Y829600D01*
X639250Y829600D02*
X639250Y834100D01*
X657450Y834100D01*
X657450Y829600D01*
X657450Y831025D02*
X639250Y831025D01*
X639250Y832450D02*
X657450Y832450D01*
X657450Y833875D02*
X639250Y833875D01*
X639250Y816900D02*
X657450Y816900D01*
X639250Y816900D02*
X639250Y821400D01*
X657450Y821400D01*
X657450Y816900D01*
X657450Y818325D02*
X639250Y818325D01*
X639250Y819750D02*
X657450Y819750D01*
X657450Y821175D02*
X639250Y821175D01*
X639250Y804200D02*
X657450Y804200D01*
X639250Y804200D02*
X639250Y808700D01*
X657450Y808700D01*
X657450Y804200D01*
X657450Y805625D02*
X639250Y805625D01*
X639250Y807050D02*
X657450Y807050D01*
X657450Y808475D02*
X639250Y808475D01*
X639250Y791500D02*
X657450Y791500D01*
X639250Y791500D02*
X639250Y796000D01*
X657450Y796000D01*
X657450Y791500D01*
X657450Y792925D02*
X639250Y792925D01*
X639250Y794350D02*
X657450Y794350D01*
X657450Y795775D02*
X639250Y795775D01*
X639250Y778800D02*
X657450Y778800D01*
X639250Y778800D02*
X639250Y783300D01*
X657450Y783300D01*
X657450Y778800D01*
X657450Y780225D02*
X639250Y780225D01*
X639250Y781650D02*
X657450Y781650D01*
X657450Y783075D02*
X639250Y783075D01*
X639250Y766100D02*
X657450Y766100D01*
X639250Y766100D02*
X639250Y770600D01*
X657450Y770600D01*
X657450Y766100D01*
X657450Y767525D02*
X639250Y767525D01*
X639250Y768950D02*
X657450Y768950D01*
X657450Y770375D02*
X639250Y770375D01*
X639250Y753400D02*
X657450Y753400D01*
X639250Y753400D02*
X639250Y757900D01*
X657450Y757900D01*
X657450Y753400D01*
X657450Y754825D02*
X639250Y754825D01*
X639250Y756250D02*
X657450Y756250D01*
X657450Y757675D02*
X639250Y757675D01*
X688750Y753400D02*
X706950Y753400D01*
X688750Y753400D02*
X688750Y757900D01*
X706950Y757900D01*
X706950Y753400D01*
X706950Y754825D02*
X688750Y754825D01*
X688750Y756250D02*
X706950Y756250D01*
X706950Y757675D02*
X688750Y757675D01*
X688750Y766100D02*
X706950Y766100D01*
X688750Y766100D02*
X688750Y770600D01*
X706950Y770600D01*
X706950Y766100D01*
X706950Y767525D02*
X688750Y767525D01*
X688750Y768950D02*
X706950Y768950D01*
X706950Y770375D02*
X688750Y770375D01*
X688750Y778800D02*
X706950Y778800D01*
X688750Y778800D02*
X688750Y783300D01*
X706950Y783300D01*
X706950Y778800D01*
X706950Y780225D02*
X688750Y780225D01*
X688750Y781650D02*
X706950Y781650D01*
X706950Y783075D02*
X688750Y783075D01*
X688750Y791500D02*
X706950Y791500D01*
X688750Y791500D02*
X688750Y796000D01*
X706950Y796000D01*
X706950Y791500D01*
X706950Y792925D02*
X688750Y792925D01*
X688750Y794350D02*
X706950Y794350D01*
X706950Y795775D02*
X688750Y795775D01*
X688750Y804200D02*
X706950Y804200D01*
X688750Y804200D02*
X688750Y808700D01*
X706950Y808700D01*
X706950Y804200D01*
X706950Y805625D02*
X688750Y805625D01*
X688750Y807050D02*
X706950Y807050D01*
X706950Y808475D02*
X688750Y808475D01*
X688750Y816900D02*
X706950Y816900D01*
X688750Y816900D02*
X688750Y821400D01*
X706950Y821400D01*
X706950Y816900D01*
X706950Y818325D02*
X688750Y818325D01*
X688750Y819750D02*
X706950Y819750D01*
X706950Y821175D02*
X688750Y821175D01*
X688750Y829600D02*
X706950Y829600D01*
X688750Y829600D02*
X688750Y834100D01*
X706950Y834100D01*
X706950Y829600D01*
X706950Y831025D02*
X688750Y831025D01*
X688750Y832450D02*
X706950Y832450D01*
X706950Y833875D02*
X688750Y833875D01*
X688750Y842300D02*
X706950Y842300D01*
X688750Y842300D02*
X688750Y846800D01*
X706950Y846800D01*
X706950Y842300D01*
X706950Y843725D02*
X688750Y843725D01*
X688750Y845150D02*
X706950Y845150D01*
X706950Y846575D02*
X688750Y846575D01*
X657450Y702600D02*
X639250Y702600D01*
X639250Y707100D01*
X657450Y707100D01*
X657450Y702600D01*
X657450Y704025D02*
X639250Y704025D01*
X639250Y705450D02*
X657450Y705450D01*
X657450Y706875D02*
X639250Y706875D01*
X639250Y689900D02*
X657450Y689900D01*
X639250Y689900D02*
X639250Y694400D01*
X657450Y694400D01*
X657450Y689900D01*
X657450Y691325D02*
X639250Y691325D01*
X639250Y692750D02*
X657450Y692750D01*
X657450Y694175D02*
X639250Y694175D01*
X639250Y677200D02*
X657450Y677200D01*
X639250Y677200D02*
X639250Y681700D01*
X657450Y681700D01*
X657450Y677200D01*
X657450Y678625D02*
X639250Y678625D01*
X639250Y680050D02*
X657450Y680050D01*
X657450Y681475D02*
X639250Y681475D01*
X639250Y664500D02*
X657450Y664500D01*
X639250Y664500D02*
X639250Y669000D01*
X657450Y669000D01*
X657450Y664500D01*
X657450Y665925D02*
X639250Y665925D01*
X639250Y667350D02*
X657450Y667350D01*
X657450Y668775D02*
X639250Y668775D01*
X639250Y651800D02*
X657450Y651800D01*
X639250Y651800D02*
X639250Y656300D01*
X657450Y656300D01*
X657450Y651800D01*
X657450Y653225D02*
X639250Y653225D01*
X639250Y654650D02*
X657450Y654650D01*
X657450Y656075D02*
X639250Y656075D01*
X639250Y639100D02*
X657450Y639100D01*
X639250Y639100D02*
X639250Y643600D01*
X657450Y643600D01*
X657450Y639100D01*
X657450Y640525D02*
X639250Y640525D01*
X639250Y641950D02*
X657450Y641950D01*
X657450Y643375D02*
X639250Y643375D01*
X639250Y626400D02*
X657450Y626400D01*
X639250Y626400D02*
X639250Y630900D01*
X657450Y630900D01*
X657450Y626400D01*
X657450Y627825D02*
X639250Y627825D01*
X639250Y629250D02*
X657450Y629250D01*
X657450Y630675D02*
X639250Y630675D01*
X639250Y613700D02*
X657450Y613700D01*
X639250Y613700D02*
X639250Y618200D01*
X657450Y618200D01*
X657450Y613700D01*
X657450Y615125D02*
X639250Y615125D01*
X639250Y616550D02*
X657450Y616550D01*
X657450Y617975D02*
X639250Y617975D01*
X688750Y613700D02*
X706950Y613700D01*
X688750Y613700D02*
X688750Y618200D01*
X706950Y618200D01*
X706950Y613700D01*
X706950Y615125D02*
X688750Y615125D01*
X688750Y616550D02*
X706950Y616550D01*
X706950Y617975D02*
X688750Y617975D01*
X688750Y626400D02*
X706950Y626400D01*
X688750Y626400D02*
X688750Y630900D01*
X706950Y630900D01*
X706950Y626400D01*
X706950Y627825D02*
X688750Y627825D01*
X688750Y629250D02*
X706950Y629250D01*
X706950Y630675D02*
X688750Y630675D01*
X688750Y639100D02*
X706950Y639100D01*
X688750Y639100D02*
X688750Y643600D01*
X706950Y643600D01*
X706950Y639100D01*
X706950Y640525D02*
X688750Y640525D01*
X688750Y641950D02*
X706950Y641950D01*
X706950Y643375D02*
X688750Y643375D01*
X688750Y651800D02*
X706950Y651800D01*
X688750Y651800D02*
X688750Y656300D01*
X706950Y656300D01*
X706950Y651800D01*
X706950Y653225D02*
X688750Y653225D01*
X688750Y654650D02*
X706950Y654650D01*
X706950Y656075D02*
X688750Y656075D01*
X688750Y664500D02*
X706950Y664500D01*
X688750Y664500D02*
X688750Y669000D01*
X706950Y669000D01*
X706950Y664500D01*
X706950Y665925D02*
X688750Y665925D01*
X688750Y667350D02*
X706950Y667350D01*
X706950Y668775D02*
X688750Y668775D01*
X688750Y677200D02*
X706950Y677200D01*
X688750Y677200D02*
X688750Y681700D01*
X706950Y681700D01*
X706950Y677200D01*
X706950Y678625D02*
X688750Y678625D01*
X688750Y680050D02*
X706950Y680050D01*
X706950Y681475D02*
X688750Y681475D01*
X688750Y689900D02*
X706950Y689900D01*
X688750Y689900D02*
X688750Y694400D01*
X706950Y694400D01*
X706950Y689900D01*
X706950Y691325D02*
X688750Y691325D01*
X688750Y692750D02*
X706950Y692750D01*
X706950Y694175D02*
X688750Y694175D01*
X688750Y702600D02*
X706950Y702600D01*
X688750Y702600D02*
X688750Y707100D01*
X706950Y707100D01*
X706950Y702600D01*
X706950Y704025D02*
X688750Y704025D01*
X688750Y705450D02*
X706950Y705450D01*
X706950Y706875D02*
X688750Y706875D01*
X606650Y486700D02*
X588450Y486700D01*
X588450Y491200D01*
X606650Y491200D01*
X606650Y486700D01*
X606650Y488125D02*
X588450Y488125D01*
X588450Y489550D02*
X606650Y489550D01*
X606650Y490975D02*
X588450Y490975D01*
X588450Y474000D02*
X606650Y474000D01*
X588450Y474000D02*
X588450Y478500D01*
X606650Y478500D01*
X606650Y474000D01*
X606650Y475425D02*
X588450Y475425D01*
X588450Y476850D02*
X606650Y476850D01*
X606650Y478275D02*
X588450Y478275D01*
X588450Y461300D02*
X606650Y461300D01*
X588450Y461300D02*
X588450Y465800D01*
X606650Y465800D01*
X606650Y461300D01*
X606650Y462725D02*
X588450Y462725D01*
X588450Y464150D02*
X606650Y464150D01*
X606650Y465575D02*
X588450Y465575D01*
X588450Y448600D02*
X606650Y448600D01*
X588450Y448600D02*
X588450Y453100D01*
X606650Y453100D01*
X606650Y448600D01*
X606650Y450025D02*
X588450Y450025D01*
X588450Y451450D02*
X606650Y451450D01*
X606650Y452875D02*
X588450Y452875D01*
X588450Y435900D02*
X606650Y435900D01*
X588450Y435900D02*
X588450Y440400D01*
X606650Y440400D01*
X606650Y435900D01*
X606650Y437325D02*
X588450Y437325D01*
X588450Y438750D02*
X606650Y438750D01*
X606650Y440175D02*
X588450Y440175D01*
X588450Y423200D02*
X606650Y423200D01*
X588450Y423200D02*
X588450Y427700D01*
X606650Y427700D01*
X606650Y423200D01*
X606650Y424625D02*
X588450Y424625D01*
X588450Y426050D02*
X606650Y426050D01*
X606650Y427475D02*
X588450Y427475D01*
X588450Y410500D02*
X606650Y410500D01*
X588450Y410500D02*
X588450Y415000D01*
X606650Y415000D01*
X606650Y410500D01*
X606650Y411925D02*
X588450Y411925D01*
X588450Y413350D02*
X606650Y413350D01*
X606650Y414775D02*
X588450Y414775D01*
X588450Y397800D02*
X606650Y397800D01*
X588450Y397800D02*
X588450Y402300D01*
X606650Y402300D01*
X606650Y397800D01*
X606650Y399225D02*
X588450Y399225D01*
X588450Y400650D02*
X606650Y400650D01*
X606650Y402075D02*
X588450Y402075D01*
X637950Y397800D02*
X656150Y397800D01*
X637950Y397800D02*
X637950Y402300D01*
X656150Y402300D01*
X656150Y397800D01*
X656150Y399225D02*
X637950Y399225D01*
X637950Y400650D02*
X656150Y400650D01*
X656150Y402075D02*
X637950Y402075D01*
X637950Y410500D02*
X656150Y410500D01*
X637950Y410500D02*
X637950Y415000D01*
X656150Y415000D01*
X656150Y410500D01*
X656150Y411925D02*
X637950Y411925D01*
X637950Y413350D02*
X656150Y413350D01*
X656150Y414775D02*
X637950Y414775D01*
X637950Y423200D02*
X656150Y423200D01*
X637950Y423200D02*
X637950Y427700D01*
X656150Y427700D01*
X656150Y423200D01*
X656150Y424625D02*
X637950Y424625D01*
X637950Y426050D02*
X656150Y426050D01*
X656150Y427475D02*
X637950Y427475D01*
X637950Y435900D02*
X656150Y435900D01*
X637950Y435900D02*
X637950Y440400D01*
X656150Y440400D01*
X656150Y435900D01*
X656150Y437325D02*
X637950Y437325D01*
X637950Y438750D02*
X656150Y438750D01*
X656150Y440175D02*
X637950Y440175D01*
X637950Y448600D02*
X656150Y448600D01*
X637950Y448600D02*
X637950Y453100D01*
X656150Y453100D01*
X656150Y448600D01*
X656150Y450025D02*
X637950Y450025D01*
X637950Y451450D02*
X656150Y451450D01*
X656150Y452875D02*
X637950Y452875D01*
X637950Y461300D02*
X656150Y461300D01*
X637950Y461300D02*
X637950Y465800D01*
X656150Y465800D01*
X656150Y461300D01*
X656150Y462725D02*
X637950Y462725D01*
X637950Y464150D02*
X656150Y464150D01*
X656150Y465575D02*
X637950Y465575D01*
X637950Y474000D02*
X656150Y474000D01*
X637950Y474000D02*
X637950Y478500D01*
X656150Y478500D01*
X656150Y474000D01*
X656150Y475425D02*
X637950Y475425D01*
X637950Y476850D02*
X656150Y476850D01*
X656150Y478275D02*
X637950Y478275D01*
X637950Y486700D02*
X656150Y486700D01*
X637950Y486700D02*
X637950Y491200D01*
X656150Y491200D01*
X656150Y486700D01*
X656150Y488125D02*
X637950Y488125D01*
X637950Y489550D02*
X656150Y489550D01*
X656150Y490975D02*
X637950Y490975D01*
X619350Y296200D02*
X601150Y296200D01*
X601150Y300700D01*
X619350Y300700D01*
X619350Y296200D01*
X619350Y297625D02*
X601150Y297625D01*
X601150Y299050D02*
X619350Y299050D01*
X619350Y300475D02*
X601150Y300475D01*
X601150Y283500D02*
X619350Y283500D01*
X601150Y283500D02*
X601150Y288000D01*
X619350Y288000D01*
X619350Y283500D01*
X619350Y284925D02*
X601150Y284925D01*
X601150Y286350D02*
X619350Y286350D01*
X619350Y287775D02*
X601150Y287775D01*
X601150Y270800D02*
X619350Y270800D01*
X601150Y270800D02*
X601150Y275300D01*
X619350Y275300D01*
X619350Y270800D01*
X619350Y272225D02*
X601150Y272225D01*
X601150Y273650D02*
X619350Y273650D01*
X619350Y275075D02*
X601150Y275075D01*
X601150Y258100D02*
X619350Y258100D01*
X601150Y258100D02*
X601150Y262600D01*
X619350Y262600D01*
X619350Y258100D01*
X619350Y259525D02*
X601150Y259525D01*
X601150Y260950D02*
X619350Y260950D01*
X619350Y262375D02*
X601150Y262375D01*
X601150Y245400D02*
X619350Y245400D01*
X601150Y245400D02*
X601150Y249900D01*
X619350Y249900D01*
X619350Y245400D01*
X619350Y246825D02*
X601150Y246825D01*
X601150Y248250D02*
X619350Y248250D01*
X619350Y249675D02*
X601150Y249675D01*
X601150Y232700D02*
X619350Y232700D01*
X601150Y232700D02*
X601150Y237200D01*
X619350Y237200D01*
X619350Y232700D01*
X619350Y234125D02*
X601150Y234125D01*
X601150Y235550D02*
X619350Y235550D01*
X619350Y236975D02*
X601150Y236975D01*
X601150Y220000D02*
X619350Y220000D01*
X601150Y220000D02*
X601150Y224500D01*
X619350Y224500D01*
X619350Y220000D01*
X619350Y221425D02*
X601150Y221425D01*
X601150Y222850D02*
X619350Y222850D01*
X619350Y224275D02*
X601150Y224275D01*
X601150Y207300D02*
X619350Y207300D01*
X601150Y207300D02*
X601150Y211800D01*
X619350Y211800D01*
X619350Y207300D01*
X619350Y208725D02*
X601150Y208725D01*
X601150Y210150D02*
X619350Y210150D01*
X619350Y211575D02*
X601150Y211575D01*
X650650Y207300D02*
X668850Y207300D01*
X650650Y207300D02*
X650650Y211800D01*
X668850Y211800D01*
X668850Y207300D01*
X668850Y208725D02*
X650650Y208725D01*
X650650Y210150D02*
X668850Y210150D01*
X668850Y211575D02*
X650650Y211575D01*
X650650Y220000D02*
X668850Y220000D01*
X650650Y220000D02*
X650650Y224500D01*
X668850Y224500D01*
X668850Y220000D01*
X668850Y221425D02*
X650650Y221425D01*
X650650Y222850D02*
X668850Y222850D01*
X668850Y224275D02*
X650650Y224275D01*
X650650Y232700D02*
X668850Y232700D01*
X650650Y232700D02*
X650650Y237200D01*
X668850Y237200D01*
X668850Y232700D01*
X668850Y234125D02*
X650650Y234125D01*
X650650Y235550D02*
X668850Y235550D01*
X668850Y236975D02*
X650650Y236975D01*
X650650Y245400D02*
X668850Y245400D01*
X650650Y245400D02*
X650650Y249900D01*
X668850Y249900D01*
X668850Y245400D01*
X668850Y246825D02*
X650650Y246825D01*
X650650Y248250D02*
X668850Y248250D01*
X668850Y249675D02*
X650650Y249675D01*
X650650Y258100D02*
X668850Y258100D01*
X650650Y258100D02*
X650650Y262600D01*
X668850Y262600D01*
X668850Y258100D01*
X668850Y259525D02*
X650650Y259525D01*
X650650Y260950D02*
X668850Y260950D01*
X668850Y262375D02*
X650650Y262375D01*
X650650Y270800D02*
X668850Y270800D01*
X650650Y270800D02*
X650650Y275300D01*
X668850Y275300D01*
X668850Y270800D01*
X668850Y272225D02*
X650650Y272225D01*
X650650Y273650D02*
X668850Y273650D01*
X668850Y275075D02*
X650650Y275075D01*
X650650Y283500D02*
X668850Y283500D01*
X650650Y283500D02*
X650650Y288000D01*
X668850Y288000D01*
X668850Y283500D01*
X668850Y284925D02*
X650650Y284925D01*
X650650Y286350D02*
X668850Y286350D01*
X668850Y287775D02*
X650650Y287775D01*
X650650Y296200D02*
X668850Y296200D01*
X650650Y296200D02*
X650650Y300700D01*
X668850Y300700D01*
X668850Y296200D01*
X668850Y297625D02*
X650650Y297625D01*
X650650Y299050D02*
X668850Y299050D01*
X668850Y300475D02*
X650650Y300475D01*
X344150Y816900D02*
X325050Y816900D01*
X325050Y821400D01*
X344150Y821400D01*
X344150Y816900D01*
X344150Y818325D02*
X325050Y818325D01*
X325050Y819750D02*
X344150Y819750D01*
X344150Y821175D02*
X325050Y821175D01*
X325050Y804200D02*
X344150Y804200D01*
X325050Y804200D02*
X325050Y808700D01*
X344150Y808700D01*
X344150Y804200D01*
X344150Y805625D02*
X325050Y805625D01*
X325050Y807050D02*
X344150Y807050D01*
X344150Y808475D02*
X325050Y808475D01*
X325050Y791500D02*
X344150Y791500D01*
X325050Y791500D02*
X325050Y796000D01*
X344150Y796000D01*
X344150Y791500D01*
X344150Y792925D02*
X325050Y792925D01*
X325050Y794350D02*
X344150Y794350D01*
X344150Y795775D02*
X325050Y795775D01*
X325050Y778800D02*
X344150Y778800D01*
X325050Y778800D02*
X325050Y783300D01*
X344150Y783300D01*
X344150Y778800D01*
X344150Y780225D02*
X325050Y780225D01*
X325050Y781650D02*
X344150Y781650D01*
X344150Y783075D02*
X325050Y783075D01*
X325050Y766100D02*
X344150Y766100D01*
X325050Y766100D02*
X325050Y770600D01*
X344150Y770600D01*
X344150Y766100D01*
X344150Y767525D02*
X325050Y767525D01*
X325050Y768950D02*
X344150Y768950D01*
X344150Y770375D02*
X325050Y770375D01*
X325050Y753400D02*
X344150Y753400D01*
X325050Y753400D02*
X325050Y757900D01*
X344150Y757900D01*
X344150Y753400D01*
X344150Y754825D02*
X325050Y754825D01*
X325050Y756250D02*
X344150Y756250D01*
X344150Y757675D02*
X325050Y757675D01*
X325050Y740700D02*
X344150Y740700D01*
X325050Y740700D02*
X325050Y745200D01*
X344150Y745200D01*
X344150Y740700D01*
X344150Y742125D02*
X325050Y742125D01*
X325050Y743550D02*
X344150Y743550D01*
X344150Y744975D02*
X325050Y744975D01*
X325050Y728000D02*
X344150Y728000D01*
X325050Y728000D02*
X325050Y732500D01*
X344150Y732500D01*
X344150Y728000D01*
X344150Y729425D02*
X325050Y729425D01*
X325050Y730850D02*
X344150Y730850D01*
X344150Y732275D02*
X325050Y732275D01*
X325050Y715300D02*
X344150Y715300D01*
X325050Y715300D02*
X325050Y719800D01*
X344150Y719800D01*
X344150Y715300D01*
X344150Y716725D02*
X325050Y716725D01*
X325050Y718150D02*
X344150Y718150D01*
X344150Y719575D02*
X325050Y719575D01*
X325050Y702600D02*
X344150Y702600D01*
X325050Y702600D02*
X325050Y707100D01*
X344150Y707100D01*
X344150Y702600D01*
X344150Y704025D02*
X325050Y704025D01*
X325050Y705450D02*
X344150Y705450D01*
X344150Y706875D02*
X325050Y706875D01*
X325050Y689900D02*
X344150Y689900D01*
X325050Y689900D02*
X325050Y694400D01*
X344150Y694400D01*
X344150Y689900D01*
X344150Y691325D02*
X325050Y691325D01*
X325050Y692750D02*
X344150Y692750D01*
X344150Y694175D02*
X325050Y694175D01*
X325050Y677200D02*
X344150Y677200D01*
X325050Y677200D02*
X325050Y681700D01*
X344150Y681700D01*
X344150Y677200D01*
X344150Y678625D02*
X325050Y678625D01*
X325050Y680050D02*
X344150Y680050D01*
X344150Y681475D02*
X325050Y681475D01*
X417850Y677200D02*
X436950Y677200D01*
X417850Y677200D02*
X417850Y681700D01*
X436950Y681700D01*
X436950Y677200D01*
X436950Y678625D02*
X417850Y678625D01*
X417850Y680050D02*
X436950Y680050D01*
X436950Y681475D02*
X417850Y681475D01*
X417850Y689900D02*
X436950Y689900D01*
X417850Y689900D02*
X417850Y694400D01*
X436950Y694400D01*
X436950Y689900D01*
X436950Y691325D02*
X417850Y691325D01*
X417850Y692750D02*
X436950Y692750D01*
X436950Y694175D02*
X417850Y694175D01*
X417850Y702600D02*
X436950Y702600D01*
X417850Y702600D02*
X417850Y707100D01*
X436950Y707100D01*
X436950Y702600D01*
X436950Y704025D02*
X417850Y704025D01*
X417850Y705450D02*
X436950Y705450D01*
X436950Y706875D02*
X417850Y706875D01*
X417850Y715300D02*
X436950Y715300D01*
X417850Y715300D02*
X417850Y719800D01*
X436950Y719800D01*
X436950Y715300D01*
X436950Y716725D02*
X417850Y716725D01*
X417850Y718150D02*
X436950Y718150D01*
X436950Y719575D02*
X417850Y719575D01*
X417850Y728000D02*
X436950Y728000D01*
X417850Y728000D02*
X417850Y732500D01*
X436950Y732500D01*
X436950Y728000D01*
X436950Y729425D02*
X417850Y729425D01*
X417850Y730850D02*
X436950Y730850D01*
X436950Y732275D02*
X417850Y732275D01*
X417850Y740700D02*
X436950Y740700D01*
X417850Y740700D02*
X417850Y745200D01*
X436950Y745200D01*
X436950Y740700D01*
X436950Y742125D02*
X417850Y742125D01*
X417850Y743550D02*
X436950Y743550D01*
X436950Y744975D02*
X417850Y744975D01*
X417850Y753400D02*
X436950Y753400D01*
X417850Y753400D02*
X417850Y757900D01*
X436950Y757900D01*
X436950Y753400D01*
X436950Y754825D02*
X417850Y754825D01*
X417850Y756250D02*
X436950Y756250D01*
X436950Y757675D02*
X417850Y757675D01*
X417850Y766100D02*
X436950Y766100D01*
X417850Y766100D02*
X417850Y770600D01*
X436950Y770600D01*
X436950Y766100D01*
X436950Y767525D02*
X417850Y767525D01*
X417850Y768950D02*
X436950Y768950D01*
X436950Y770375D02*
X417850Y770375D01*
X417850Y778800D02*
X436950Y778800D01*
X417850Y778800D02*
X417850Y783300D01*
X436950Y783300D01*
X436950Y778800D01*
X436950Y780225D02*
X417850Y780225D01*
X417850Y781650D02*
X436950Y781650D01*
X436950Y783075D02*
X417850Y783075D01*
X417850Y791500D02*
X436950Y791500D01*
X417850Y791500D02*
X417850Y796000D01*
X436950Y796000D01*
X436950Y791500D01*
X436950Y792925D02*
X417850Y792925D01*
X417850Y794350D02*
X436950Y794350D01*
X436950Y795775D02*
X417850Y795775D01*
X417850Y804200D02*
X436950Y804200D01*
X417850Y804200D02*
X417850Y808700D01*
X436950Y808700D01*
X436950Y804200D01*
X436950Y805625D02*
X417850Y805625D01*
X417850Y807050D02*
X436950Y807050D01*
X436950Y808475D02*
X417850Y808475D01*
X417850Y816900D02*
X436950Y816900D01*
X417850Y816900D02*
X417850Y821400D01*
X436950Y821400D01*
X436950Y816900D01*
X436950Y818325D02*
X417850Y818325D01*
X417850Y819750D02*
X436950Y819750D01*
X436950Y821175D02*
X417850Y821175D01*
X344150Y474000D02*
X325050Y474000D01*
X325050Y478500D01*
X344150Y478500D01*
X344150Y474000D01*
X344150Y475425D02*
X325050Y475425D01*
X325050Y476850D02*
X344150Y476850D01*
X344150Y478275D02*
X325050Y478275D01*
X325050Y461300D02*
X344150Y461300D01*
X325050Y461300D02*
X325050Y465800D01*
X344150Y465800D01*
X344150Y461300D01*
X344150Y462725D02*
X325050Y462725D01*
X325050Y464150D02*
X344150Y464150D01*
X344150Y465575D02*
X325050Y465575D01*
X325050Y448600D02*
X344150Y448600D01*
X325050Y448600D02*
X325050Y453100D01*
X344150Y453100D01*
X344150Y448600D01*
X344150Y450025D02*
X325050Y450025D01*
X325050Y451450D02*
X344150Y451450D01*
X344150Y452875D02*
X325050Y452875D01*
X325050Y435900D02*
X344150Y435900D01*
X325050Y435900D02*
X325050Y440400D01*
X344150Y440400D01*
X344150Y435900D01*
X344150Y437325D02*
X325050Y437325D01*
X325050Y438750D02*
X344150Y438750D01*
X344150Y440175D02*
X325050Y440175D01*
X325050Y423200D02*
X344150Y423200D01*
X325050Y423200D02*
X325050Y427700D01*
X344150Y427700D01*
X344150Y423200D01*
X344150Y424625D02*
X325050Y424625D01*
X325050Y426050D02*
X344150Y426050D01*
X344150Y427475D02*
X325050Y427475D01*
X325050Y410500D02*
X344150Y410500D01*
X325050Y410500D02*
X325050Y415000D01*
X344150Y415000D01*
X344150Y410500D01*
X344150Y411925D02*
X325050Y411925D01*
X325050Y413350D02*
X344150Y413350D01*
X344150Y414775D02*
X325050Y414775D01*
X325050Y397800D02*
X344150Y397800D01*
X325050Y397800D02*
X325050Y402300D01*
X344150Y402300D01*
X344150Y397800D01*
X344150Y399225D02*
X325050Y399225D01*
X325050Y400650D02*
X344150Y400650D01*
X344150Y402075D02*
X325050Y402075D01*
X325050Y385100D02*
X344150Y385100D01*
X325050Y385100D02*
X325050Y389600D01*
X344150Y389600D01*
X344150Y385100D01*
X344150Y386525D02*
X325050Y386525D01*
X325050Y387950D02*
X344150Y387950D01*
X344150Y389375D02*
X325050Y389375D01*
X325050Y372400D02*
X344150Y372400D01*
X325050Y372400D02*
X325050Y376900D01*
X344150Y376900D01*
X344150Y372400D01*
X344150Y373825D02*
X325050Y373825D01*
X325050Y375250D02*
X344150Y375250D01*
X344150Y376675D02*
X325050Y376675D01*
X325050Y359700D02*
X344150Y359700D01*
X325050Y359700D02*
X325050Y364200D01*
X344150Y364200D01*
X344150Y359700D01*
X344150Y361125D02*
X325050Y361125D01*
X325050Y362550D02*
X344150Y362550D01*
X344150Y363975D02*
X325050Y363975D01*
X325050Y347000D02*
X344150Y347000D01*
X325050Y347000D02*
X325050Y351500D01*
X344150Y351500D01*
X344150Y347000D01*
X344150Y348425D02*
X325050Y348425D01*
X325050Y349850D02*
X344150Y349850D01*
X344150Y351275D02*
X325050Y351275D01*
X325050Y334300D02*
X344150Y334300D01*
X325050Y334300D02*
X325050Y338800D01*
X344150Y338800D01*
X344150Y334300D01*
X344150Y335725D02*
X325050Y335725D01*
X325050Y337150D02*
X344150Y337150D01*
X344150Y338575D02*
X325050Y338575D01*
X417850Y334300D02*
X436950Y334300D01*
X417850Y334300D02*
X417850Y338800D01*
X436950Y338800D01*
X436950Y334300D01*
X436950Y335725D02*
X417850Y335725D01*
X417850Y337150D02*
X436950Y337150D01*
X436950Y338575D02*
X417850Y338575D01*
X417850Y347000D02*
X436950Y347000D01*
X417850Y347000D02*
X417850Y351500D01*
X436950Y351500D01*
X436950Y347000D01*
X436950Y348425D02*
X417850Y348425D01*
X417850Y349850D02*
X436950Y349850D01*
X436950Y351275D02*
X417850Y351275D01*
X417850Y359700D02*
X436950Y359700D01*
X417850Y359700D02*
X417850Y364200D01*
X436950Y364200D01*
X436950Y359700D01*
X436950Y361125D02*
X417850Y361125D01*
X417850Y362550D02*
X436950Y362550D01*
X436950Y363975D02*
X417850Y363975D01*
X417850Y372400D02*
X436950Y372400D01*
X417850Y372400D02*
X417850Y376900D01*
X436950Y376900D01*
X436950Y372400D01*
X436950Y373825D02*
X417850Y373825D01*
X417850Y375250D02*
X436950Y375250D01*
X436950Y376675D02*
X417850Y376675D01*
X417850Y385100D02*
X436950Y385100D01*
X417850Y385100D02*
X417850Y389600D01*
X436950Y389600D01*
X436950Y385100D01*
X436950Y386525D02*
X417850Y386525D01*
X417850Y387950D02*
X436950Y387950D01*
X436950Y389375D02*
X417850Y389375D01*
X417850Y397800D02*
X436950Y397800D01*
X417850Y397800D02*
X417850Y402300D01*
X436950Y402300D01*
X436950Y397800D01*
X436950Y399225D02*
X417850Y399225D01*
X417850Y400650D02*
X436950Y400650D01*
X436950Y402075D02*
X417850Y402075D01*
X417850Y410500D02*
X436950Y410500D01*
X417850Y410500D02*
X417850Y415000D01*
X436950Y415000D01*
X436950Y410500D01*
X436950Y411925D02*
X417850Y411925D01*
X417850Y413350D02*
X436950Y413350D01*
X436950Y414775D02*
X417850Y414775D01*
X417850Y423200D02*
X436950Y423200D01*
X417850Y423200D02*
X417850Y427700D01*
X436950Y427700D01*
X436950Y423200D01*
X436950Y424625D02*
X417850Y424625D01*
X417850Y426050D02*
X436950Y426050D01*
X436950Y427475D02*
X417850Y427475D01*
X417850Y435900D02*
X436950Y435900D01*
X417850Y435900D02*
X417850Y440400D01*
X436950Y440400D01*
X436950Y435900D01*
X436950Y437325D02*
X417850Y437325D01*
X417850Y438750D02*
X436950Y438750D01*
X436950Y440175D02*
X417850Y440175D01*
X417850Y448600D02*
X436950Y448600D01*
X417850Y448600D02*
X417850Y453100D01*
X436950Y453100D01*
X436950Y448600D01*
X436950Y450025D02*
X417850Y450025D01*
X417850Y451450D02*
X436950Y451450D01*
X436950Y452875D02*
X417850Y452875D01*
X417850Y461300D02*
X436950Y461300D01*
X417850Y461300D02*
X417850Y465800D01*
X436950Y465800D01*
X436950Y461300D01*
X436950Y462725D02*
X417850Y462725D01*
X417850Y464150D02*
X436950Y464150D01*
X436950Y465575D02*
X417850Y465575D01*
X417850Y474000D02*
X436950Y474000D01*
X417850Y474000D02*
X417850Y478500D01*
X436950Y478500D01*
X436950Y474000D01*
X436950Y475425D02*
X417850Y475425D01*
X417850Y476850D02*
X436950Y476850D01*
X436950Y478275D02*
X417850Y478275D01*
M02*
