M48
;GenerationSoftware,Autodesk,EAGLE,9.6.2*%
;CreationDate,2020-11-06T14:32:54Z*%
FMAT,2
ICI,OFF
METRIC,TZ,000.000
T2C0.381
T1C1.016
%
G90
M71
T1
X111760Y78740
X109220Y35560
X109220Y78740
X109220Y76200
X111760Y76200
X109220Y73660
X111760Y73660
X109220Y71120
X111760Y71120
X109220Y68580
X111760Y68580
X109220Y66040
X111760Y66040
X109220Y63500
X111760Y63500
X109220Y60960
X111760Y60960
X109220Y58420
X111760Y58420
X109220Y55880
X111760Y55880
X109220Y53340
X111760Y53340
X109220Y50800
X111760Y50800
X109220Y48260
X111760Y48260
X109220Y45720
X111760Y45720
X109220Y43180
X111760Y43180
X109220Y40640
X111760Y40640
X109220Y38100
X111760Y38100
X111760Y35560
X109220Y33020
X111760Y33020
X109220Y30480
X111760Y30480
X109220Y27940
X111760Y27940
X109220Y25400
X111760Y25400
X109220Y22860
X111760Y22860
X109220Y20320
X111760Y20320
X109220Y17780
X111760Y17780
T2
X78740Y48260
X93980Y46990
X78740Y43180
X95250Y45720
X80010Y38100
X82550Y44450
X118110Y52070
X96520Y43180
X76200Y36830
X68580Y34290
X116840Y50800
X104140Y38100
X76200Y29210
X60960Y80010
X118110Y40640
X81280Y27940
X116840Y38100
X104140Y35560
X87630Y25400
X87630Y19050
X116840Y26670
X104140Y25400
X87630Y24130
X80010Y19050
X118110Y25400
X96520Y17780
X102870Y22860
X30480Y67310
X76200Y31750
X62230Y66040
X60960Y78740
X57150Y43180
X54610Y25400
X30480Y25400
X97790Y72390
X87630Y72390
X63500Y72390
X36830Y87630
X57150Y10160
X118110Y88900
X90170Y78740
X85090Y90170
X83820Y76200
X55880Y83820
X55880Y71120
X67310Y82550
X62230Y33020
X57150Y44450
X96520Y82550
X101600Y59690
X97790Y82550
X120650Y85090
X102870Y81280
X118110Y58420
X99060Y59690
X99060Y80010
X104140Y45720
X96520Y60960
X104140Y43180
X93980Y59690
X80010Y91440
X96520Y85090
X80010Y71120
X92710Y94796
X85090Y68580
X69850Y19050
X72390Y64783
X90170Y16510
X90170Y20320
X91440Y27940
X92710Y33020
X85090Y52070
X87630Y50800
X92710Y55880
X74930Y46990
X80010Y49530
X78740Y87630
M30