G04 EAGLE Gerber RS-274X export*
G75*
%MOMM*%
%FSLAX34Y34*%
%LPD*%
%INSoldermask Top*%
%IPPOS*%
%AMOC8*
5,1,8,0,0,1.08239X$1,22.5*%
G01*
%ADD10C,1.625600*%
%ADD11R,1.401600X1.601600*%
%ADD12R,1.601600X1.401600*%
%ADD13C,0.252575*%


D10*
X1092200Y787400D03*
X1117600Y787400D03*
X1092200Y762000D03*
X1117600Y762000D03*
X1092200Y736600D03*
X1117600Y736600D03*
X1092200Y711200D03*
X1117600Y711200D03*
X1092200Y685800D03*
X1117600Y685800D03*
X1092200Y660400D03*
X1117600Y660400D03*
X1092200Y635000D03*
X1117600Y635000D03*
X1092200Y609600D03*
X1117600Y609600D03*
X1092200Y584200D03*
X1117600Y584200D03*
X1092200Y558800D03*
X1117600Y558800D03*
X1092200Y533400D03*
X1117600Y533400D03*
X1092200Y508000D03*
X1117600Y508000D03*
X1092200Y482600D03*
X1117600Y482600D03*
X1092200Y457200D03*
X1117600Y457200D03*
X1092200Y431800D03*
X1117600Y431800D03*
X1092200Y406400D03*
X1117600Y406400D03*
X1092200Y381000D03*
X1117600Y381000D03*
X1092200Y355600D03*
X1117600Y355600D03*
X1092200Y330200D03*
X1117600Y330200D03*
X1092200Y304800D03*
X1117600Y304800D03*
X1092200Y279400D03*
X1117600Y279400D03*
X1092200Y254000D03*
X1117600Y254000D03*
X1092200Y228600D03*
X1117600Y228600D03*
X1092200Y203200D03*
X1117600Y203200D03*
X1092200Y177800D03*
X1117600Y177800D03*
D11*
X517500Y825500D03*
X498500Y825500D03*
X530200Y431800D03*
X511200Y431800D03*
X530200Y406400D03*
X511200Y406400D03*
X530200Y368300D03*
X511200Y368300D03*
X523900Y317500D03*
X542900Y317500D03*
X498500Y266700D03*
X517500Y266700D03*
X498500Y215900D03*
X517500Y215900D03*
X498500Y165100D03*
X517500Y165100D03*
D12*
X939800Y828700D03*
X939800Y847700D03*
X762000Y701700D03*
X762000Y720700D03*
X723900Y473100D03*
X723900Y492100D03*
D11*
X517500Y787400D03*
X498500Y787400D03*
D12*
X901700Y822300D03*
X901700Y803300D03*
X800100Y682600D03*
X800100Y663600D03*
X762000Y454000D03*
X762000Y435000D03*
X863600Y777900D03*
X863600Y796900D03*
X838200Y625500D03*
X838200Y644500D03*
X774700Y384200D03*
X774700Y403200D03*
X812800Y771500D03*
X812800Y752500D03*
X838200Y593700D03*
X838200Y574700D03*
X723900Y377800D03*
X723900Y358800D03*
X736600Y295300D03*
X736600Y314300D03*
D11*
X517500Y762000D03*
X498500Y762000D03*
D12*
X774700Y276200D03*
X774700Y257200D03*
X838200Y206400D03*
X838200Y225400D03*
X774700Y212700D03*
X774700Y193700D03*
X1017270Y727100D03*
X1017270Y746100D03*
D11*
X517500Y736600D03*
X498500Y736600D03*
X498500Y685800D03*
X517500Y685800D03*
X498500Y647700D03*
X517500Y647700D03*
X498500Y596900D03*
X517500Y596900D03*
X498500Y558800D03*
X517500Y558800D03*
X530200Y482600D03*
X511200Y482600D03*
D13*
X639255Y842305D02*
X657445Y842305D01*
X639255Y842305D02*
X639255Y846795D01*
X657445Y846795D01*
X657445Y842305D01*
X657445Y844705D02*
X639255Y844705D01*
X639255Y829605D02*
X657445Y829605D01*
X639255Y829605D02*
X639255Y834095D01*
X657445Y834095D01*
X657445Y829605D01*
X657445Y832005D02*
X639255Y832005D01*
X639255Y816905D02*
X657445Y816905D01*
X639255Y816905D02*
X639255Y821395D01*
X657445Y821395D01*
X657445Y816905D01*
X657445Y819305D02*
X639255Y819305D01*
X639255Y804205D02*
X657445Y804205D01*
X639255Y804205D02*
X639255Y808695D01*
X657445Y808695D01*
X657445Y804205D01*
X657445Y806605D02*
X639255Y806605D01*
X639255Y791505D02*
X657445Y791505D01*
X639255Y791505D02*
X639255Y795995D01*
X657445Y795995D01*
X657445Y791505D01*
X657445Y793905D02*
X639255Y793905D01*
X639255Y778805D02*
X657445Y778805D01*
X639255Y778805D02*
X639255Y783295D01*
X657445Y783295D01*
X657445Y778805D01*
X657445Y781205D02*
X639255Y781205D01*
X639255Y766105D02*
X657445Y766105D01*
X639255Y766105D02*
X639255Y770595D01*
X657445Y770595D01*
X657445Y766105D01*
X657445Y768505D02*
X639255Y768505D01*
X639255Y753405D02*
X657445Y753405D01*
X639255Y753405D02*
X639255Y757895D01*
X657445Y757895D01*
X657445Y753405D01*
X657445Y755805D02*
X639255Y755805D01*
X688755Y753405D02*
X706945Y753405D01*
X688755Y753405D02*
X688755Y757895D01*
X706945Y757895D01*
X706945Y753405D01*
X706945Y755805D02*
X688755Y755805D01*
X688755Y766105D02*
X706945Y766105D01*
X688755Y766105D02*
X688755Y770595D01*
X706945Y770595D01*
X706945Y766105D01*
X706945Y768505D02*
X688755Y768505D01*
X688755Y778805D02*
X706945Y778805D01*
X688755Y778805D02*
X688755Y783295D01*
X706945Y783295D01*
X706945Y778805D01*
X706945Y781205D02*
X688755Y781205D01*
X688755Y791505D02*
X706945Y791505D01*
X688755Y791505D02*
X688755Y795995D01*
X706945Y795995D01*
X706945Y791505D01*
X706945Y793905D02*
X688755Y793905D01*
X688755Y804205D02*
X706945Y804205D01*
X688755Y804205D02*
X688755Y808695D01*
X706945Y808695D01*
X706945Y804205D01*
X706945Y806605D02*
X688755Y806605D01*
X688755Y816905D02*
X706945Y816905D01*
X688755Y816905D02*
X688755Y821395D01*
X706945Y821395D01*
X706945Y816905D01*
X706945Y819305D02*
X688755Y819305D01*
X688755Y829605D02*
X706945Y829605D01*
X688755Y829605D02*
X688755Y834095D01*
X706945Y834095D01*
X706945Y829605D01*
X706945Y832005D02*
X688755Y832005D01*
X688755Y842305D02*
X706945Y842305D01*
X688755Y842305D02*
X688755Y846795D01*
X706945Y846795D01*
X706945Y842305D01*
X706945Y844705D02*
X688755Y844705D01*
X657445Y702605D02*
X639255Y702605D01*
X639255Y707095D01*
X657445Y707095D01*
X657445Y702605D01*
X657445Y705005D02*
X639255Y705005D01*
X639255Y689905D02*
X657445Y689905D01*
X639255Y689905D02*
X639255Y694395D01*
X657445Y694395D01*
X657445Y689905D01*
X657445Y692305D02*
X639255Y692305D01*
X639255Y677205D02*
X657445Y677205D01*
X639255Y677205D02*
X639255Y681695D01*
X657445Y681695D01*
X657445Y677205D01*
X657445Y679605D02*
X639255Y679605D01*
X639255Y664505D02*
X657445Y664505D01*
X639255Y664505D02*
X639255Y668995D01*
X657445Y668995D01*
X657445Y664505D01*
X657445Y666905D02*
X639255Y666905D01*
X639255Y651805D02*
X657445Y651805D01*
X639255Y651805D02*
X639255Y656295D01*
X657445Y656295D01*
X657445Y651805D01*
X657445Y654205D02*
X639255Y654205D01*
X639255Y639105D02*
X657445Y639105D01*
X639255Y639105D02*
X639255Y643595D01*
X657445Y643595D01*
X657445Y639105D01*
X657445Y641505D02*
X639255Y641505D01*
X639255Y626405D02*
X657445Y626405D01*
X639255Y626405D02*
X639255Y630895D01*
X657445Y630895D01*
X657445Y626405D01*
X657445Y628805D02*
X639255Y628805D01*
X639255Y613705D02*
X657445Y613705D01*
X639255Y613705D02*
X639255Y618195D01*
X657445Y618195D01*
X657445Y613705D01*
X657445Y616105D02*
X639255Y616105D01*
X688755Y613705D02*
X706945Y613705D01*
X688755Y613705D02*
X688755Y618195D01*
X706945Y618195D01*
X706945Y613705D01*
X706945Y616105D02*
X688755Y616105D01*
X688755Y626405D02*
X706945Y626405D01*
X688755Y626405D02*
X688755Y630895D01*
X706945Y630895D01*
X706945Y626405D01*
X706945Y628805D02*
X688755Y628805D01*
X688755Y639105D02*
X706945Y639105D01*
X688755Y639105D02*
X688755Y643595D01*
X706945Y643595D01*
X706945Y639105D01*
X706945Y641505D02*
X688755Y641505D01*
X688755Y651805D02*
X706945Y651805D01*
X688755Y651805D02*
X688755Y656295D01*
X706945Y656295D01*
X706945Y651805D01*
X706945Y654205D02*
X688755Y654205D01*
X688755Y664505D02*
X706945Y664505D01*
X688755Y664505D02*
X688755Y668995D01*
X706945Y668995D01*
X706945Y664505D01*
X706945Y666905D02*
X688755Y666905D01*
X688755Y677205D02*
X706945Y677205D01*
X688755Y677205D02*
X688755Y681695D01*
X706945Y681695D01*
X706945Y677205D01*
X706945Y679605D02*
X688755Y679605D01*
X688755Y689905D02*
X706945Y689905D01*
X688755Y689905D02*
X688755Y694395D01*
X706945Y694395D01*
X706945Y689905D01*
X706945Y692305D02*
X688755Y692305D01*
X688755Y702605D02*
X706945Y702605D01*
X688755Y702605D02*
X688755Y707095D01*
X706945Y707095D01*
X706945Y702605D01*
X706945Y705005D02*
X688755Y705005D01*
X606645Y486705D02*
X588455Y486705D01*
X588455Y491195D01*
X606645Y491195D01*
X606645Y486705D01*
X606645Y489105D02*
X588455Y489105D01*
X588455Y474005D02*
X606645Y474005D01*
X588455Y474005D02*
X588455Y478495D01*
X606645Y478495D01*
X606645Y474005D01*
X606645Y476405D02*
X588455Y476405D01*
X588455Y461305D02*
X606645Y461305D01*
X588455Y461305D02*
X588455Y465795D01*
X606645Y465795D01*
X606645Y461305D01*
X606645Y463705D02*
X588455Y463705D01*
X588455Y448605D02*
X606645Y448605D01*
X588455Y448605D02*
X588455Y453095D01*
X606645Y453095D01*
X606645Y448605D01*
X606645Y451005D02*
X588455Y451005D01*
X588455Y435905D02*
X606645Y435905D01*
X588455Y435905D02*
X588455Y440395D01*
X606645Y440395D01*
X606645Y435905D01*
X606645Y438305D02*
X588455Y438305D01*
X588455Y423205D02*
X606645Y423205D01*
X588455Y423205D02*
X588455Y427695D01*
X606645Y427695D01*
X606645Y423205D01*
X606645Y425605D02*
X588455Y425605D01*
X588455Y410505D02*
X606645Y410505D01*
X588455Y410505D02*
X588455Y414995D01*
X606645Y414995D01*
X606645Y410505D01*
X606645Y412905D02*
X588455Y412905D01*
X588455Y397805D02*
X606645Y397805D01*
X588455Y397805D02*
X588455Y402295D01*
X606645Y402295D01*
X606645Y397805D01*
X606645Y400205D02*
X588455Y400205D01*
X637955Y397805D02*
X656145Y397805D01*
X637955Y397805D02*
X637955Y402295D01*
X656145Y402295D01*
X656145Y397805D01*
X656145Y400205D02*
X637955Y400205D01*
X637955Y410505D02*
X656145Y410505D01*
X637955Y410505D02*
X637955Y414995D01*
X656145Y414995D01*
X656145Y410505D01*
X656145Y412905D02*
X637955Y412905D01*
X637955Y423205D02*
X656145Y423205D01*
X637955Y423205D02*
X637955Y427695D01*
X656145Y427695D01*
X656145Y423205D01*
X656145Y425605D02*
X637955Y425605D01*
X637955Y435905D02*
X656145Y435905D01*
X637955Y435905D02*
X637955Y440395D01*
X656145Y440395D01*
X656145Y435905D01*
X656145Y438305D02*
X637955Y438305D01*
X637955Y448605D02*
X656145Y448605D01*
X637955Y448605D02*
X637955Y453095D01*
X656145Y453095D01*
X656145Y448605D01*
X656145Y451005D02*
X637955Y451005D01*
X637955Y461305D02*
X656145Y461305D01*
X637955Y461305D02*
X637955Y465795D01*
X656145Y465795D01*
X656145Y461305D01*
X656145Y463705D02*
X637955Y463705D01*
X637955Y474005D02*
X656145Y474005D01*
X637955Y474005D02*
X637955Y478495D01*
X656145Y478495D01*
X656145Y474005D01*
X656145Y476405D02*
X637955Y476405D01*
X637955Y486705D02*
X656145Y486705D01*
X637955Y486705D02*
X637955Y491195D01*
X656145Y491195D01*
X656145Y486705D01*
X656145Y489105D02*
X637955Y489105D01*
X619345Y296205D02*
X601155Y296205D01*
X601155Y300695D01*
X619345Y300695D01*
X619345Y296205D01*
X619345Y298605D02*
X601155Y298605D01*
X601155Y283505D02*
X619345Y283505D01*
X601155Y283505D02*
X601155Y287995D01*
X619345Y287995D01*
X619345Y283505D01*
X619345Y285905D02*
X601155Y285905D01*
X601155Y270805D02*
X619345Y270805D01*
X601155Y270805D02*
X601155Y275295D01*
X619345Y275295D01*
X619345Y270805D01*
X619345Y273205D02*
X601155Y273205D01*
X601155Y258105D02*
X619345Y258105D01*
X601155Y258105D02*
X601155Y262595D01*
X619345Y262595D01*
X619345Y258105D01*
X619345Y260505D02*
X601155Y260505D01*
X601155Y245405D02*
X619345Y245405D01*
X601155Y245405D02*
X601155Y249895D01*
X619345Y249895D01*
X619345Y245405D01*
X619345Y247805D02*
X601155Y247805D01*
X601155Y232705D02*
X619345Y232705D01*
X601155Y232705D02*
X601155Y237195D01*
X619345Y237195D01*
X619345Y232705D01*
X619345Y235105D02*
X601155Y235105D01*
X601155Y220005D02*
X619345Y220005D01*
X601155Y220005D02*
X601155Y224495D01*
X619345Y224495D01*
X619345Y220005D01*
X619345Y222405D02*
X601155Y222405D01*
X601155Y207305D02*
X619345Y207305D01*
X601155Y207305D02*
X601155Y211795D01*
X619345Y211795D01*
X619345Y207305D01*
X619345Y209705D02*
X601155Y209705D01*
X650655Y207305D02*
X668845Y207305D01*
X650655Y207305D02*
X650655Y211795D01*
X668845Y211795D01*
X668845Y207305D01*
X668845Y209705D02*
X650655Y209705D01*
X650655Y220005D02*
X668845Y220005D01*
X650655Y220005D02*
X650655Y224495D01*
X668845Y224495D01*
X668845Y220005D01*
X668845Y222405D02*
X650655Y222405D01*
X650655Y232705D02*
X668845Y232705D01*
X650655Y232705D02*
X650655Y237195D01*
X668845Y237195D01*
X668845Y232705D01*
X668845Y235105D02*
X650655Y235105D01*
X650655Y245405D02*
X668845Y245405D01*
X650655Y245405D02*
X650655Y249895D01*
X668845Y249895D01*
X668845Y245405D01*
X668845Y247805D02*
X650655Y247805D01*
X650655Y258105D02*
X668845Y258105D01*
X650655Y258105D02*
X650655Y262595D01*
X668845Y262595D01*
X668845Y258105D01*
X668845Y260505D02*
X650655Y260505D01*
X650655Y270805D02*
X668845Y270805D01*
X650655Y270805D02*
X650655Y275295D01*
X668845Y275295D01*
X668845Y270805D01*
X668845Y273205D02*
X650655Y273205D01*
X650655Y283505D02*
X668845Y283505D01*
X650655Y283505D02*
X650655Y287995D01*
X668845Y287995D01*
X668845Y283505D01*
X668845Y285905D02*
X650655Y285905D01*
X650655Y296205D02*
X668845Y296205D01*
X650655Y296205D02*
X650655Y300695D01*
X668845Y300695D01*
X668845Y296205D01*
X668845Y298605D02*
X650655Y298605D01*
X344145Y816905D02*
X325055Y816905D01*
X325055Y821395D01*
X344145Y821395D01*
X344145Y816905D01*
X344145Y819305D02*
X325055Y819305D01*
X325055Y804205D02*
X344145Y804205D01*
X325055Y804205D02*
X325055Y808695D01*
X344145Y808695D01*
X344145Y804205D01*
X344145Y806605D02*
X325055Y806605D01*
X325055Y791505D02*
X344145Y791505D01*
X325055Y791505D02*
X325055Y795995D01*
X344145Y795995D01*
X344145Y791505D01*
X344145Y793905D02*
X325055Y793905D01*
X325055Y778805D02*
X344145Y778805D01*
X325055Y778805D02*
X325055Y783295D01*
X344145Y783295D01*
X344145Y778805D01*
X344145Y781205D02*
X325055Y781205D01*
X325055Y766105D02*
X344145Y766105D01*
X325055Y766105D02*
X325055Y770595D01*
X344145Y770595D01*
X344145Y766105D01*
X344145Y768505D02*
X325055Y768505D01*
X325055Y753405D02*
X344145Y753405D01*
X325055Y753405D02*
X325055Y757895D01*
X344145Y757895D01*
X344145Y753405D01*
X344145Y755805D02*
X325055Y755805D01*
X325055Y740705D02*
X344145Y740705D01*
X325055Y740705D02*
X325055Y745195D01*
X344145Y745195D01*
X344145Y740705D01*
X344145Y743105D02*
X325055Y743105D01*
X325055Y728005D02*
X344145Y728005D01*
X325055Y728005D02*
X325055Y732495D01*
X344145Y732495D01*
X344145Y728005D01*
X344145Y730405D02*
X325055Y730405D01*
X325055Y715305D02*
X344145Y715305D01*
X325055Y715305D02*
X325055Y719795D01*
X344145Y719795D01*
X344145Y715305D01*
X344145Y717705D02*
X325055Y717705D01*
X325055Y702605D02*
X344145Y702605D01*
X325055Y702605D02*
X325055Y707095D01*
X344145Y707095D01*
X344145Y702605D01*
X344145Y705005D02*
X325055Y705005D01*
X325055Y689905D02*
X344145Y689905D01*
X325055Y689905D02*
X325055Y694395D01*
X344145Y694395D01*
X344145Y689905D01*
X344145Y692305D02*
X325055Y692305D01*
X325055Y677205D02*
X344145Y677205D01*
X325055Y677205D02*
X325055Y681695D01*
X344145Y681695D01*
X344145Y677205D01*
X344145Y679605D02*
X325055Y679605D01*
X417855Y677205D02*
X436945Y677205D01*
X417855Y677205D02*
X417855Y681695D01*
X436945Y681695D01*
X436945Y677205D01*
X436945Y679605D02*
X417855Y679605D01*
X417855Y689905D02*
X436945Y689905D01*
X417855Y689905D02*
X417855Y694395D01*
X436945Y694395D01*
X436945Y689905D01*
X436945Y692305D02*
X417855Y692305D01*
X417855Y702605D02*
X436945Y702605D01*
X417855Y702605D02*
X417855Y707095D01*
X436945Y707095D01*
X436945Y702605D01*
X436945Y705005D02*
X417855Y705005D01*
X417855Y715305D02*
X436945Y715305D01*
X417855Y715305D02*
X417855Y719795D01*
X436945Y719795D01*
X436945Y715305D01*
X436945Y717705D02*
X417855Y717705D01*
X417855Y728005D02*
X436945Y728005D01*
X417855Y728005D02*
X417855Y732495D01*
X436945Y732495D01*
X436945Y728005D01*
X436945Y730405D02*
X417855Y730405D01*
X417855Y740705D02*
X436945Y740705D01*
X417855Y740705D02*
X417855Y745195D01*
X436945Y745195D01*
X436945Y740705D01*
X436945Y743105D02*
X417855Y743105D01*
X417855Y753405D02*
X436945Y753405D01*
X417855Y753405D02*
X417855Y757895D01*
X436945Y757895D01*
X436945Y753405D01*
X436945Y755805D02*
X417855Y755805D01*
X417855Y766105D02*
X436945Y766105D01*
X417855Y766105D02*
X417855Y770595D01*
X436945Y770595D01*
X436945Y766105D01*
X436945Y768505D02*
X417855Y768505D01*
X417855Y778805D02*
X436945Y778805D01*
X417855Y778805D02*
X417855Y783295D01*
X436945Y783295D01*
X436945Y778805D01*
X436945Y781205D02*
X417855Y781205D01*
X417855Y791505D02*
X436945Y791505D01*
X417855Y791505D02*
X417855Y795995D01*
X436945Y795995D01*
X436945Y791505D01*
X436945Y793905D02*
X417855Y793905D01*
X417855Y804205D02*
X436945Y804205D01*
X417855Y804205D02*
X417855Y808695D01*
X436945Y808695D01*
X436945Y804205D01*
X436945Y806605D02*
X417855Y806605D01*
X417855Y816905D02*
X436945Y816905D01*
X417855Y816905D02*
X417855Y821395D01*
X436945Y821395D01*
X436945Y816905D01*
X436945Y819305D02*
X417855Y819305D01*
X344145Y474005D02*
X325055Y474005D01*
X325055Y478495D01*
X344145Y478495D01*
X344145Y474005D01*
X344145Y476405D02*
X325055Y476405D01*
X325055Y461305D02*
X344145Y461305D01*
X325055Y461305D02*
X325055Y465795D01*
X344145Y465795D01*
X344145Y461305D01*
X344145Y463705D02*
X325055Y463705D01*
X325055Y448605D02*
X344145Y448605D01*
X325055Y448605D02*
X325055Y453095D01*
X344145Y453095D01*
X344145Y448605D01*
X344145Y451005D02*
X325055Y451005D01*
X325055Y435905D02*
X344145Y435905D01*
X325055Y435905D02*
X325055Y440395D01*
X344145Y440395D01*
X344145Y435905D01*
X344145Y438305D02*
X325055Y438305D01*
X325055Y423205D02*
X344145Y423205D01*
X325055Y423205D02*
X325055Y427695D01*
X344145Y427695D01*
X344145Y423205D01*
X344145Y425605D02*
X325055Y425605D01*
X325055Y410505D02*
X344145Y410505D01*
X325055Y410505D02*
X325055Y414995D01*
X344145Y414995D01*
X344145Y410505D01*
X344145Y412905D02*
X325055Y412905D01*
X325055Y397805D02*
X344145Y397805D01*
X325055Y397805D02*
X325055Y402295D01*
X344145Y402295D01*
X344145Y397805D01*
X344145Y400205D02*
X325055Y400205D01*
X325055Y385105D02*
X344145Y385105D01*
X325055Y385105D02*
X325055Y389595D01*
X344145Y389595D01*
X344145Y385105D01*
X344145Y387505D02*
X325055Y387505D01*
X325055Y372405D02*
X344145Y372405D01*
X325055Y372405D02*
X325055Y376895D01*
X344145Y376895D01*
X344145Y372405D01*
X344145Y374805D02*
X325055Y374805D01*
X325055Y359705D02*
X344145Y359705D01*
X325055Y359705D02*
X325055Y364195D01*
X344145Y364195D01*
X344145Y359705D01*
X344145Y362105D02*
X325055Y362105D01*
X325055Y347005D02*
X344145Y347005D01*
X325055Y347005D02*
X325055Y351495D01*
X344145Y351495D01*
X344145Y347005D01*
X344145Y349405D02*
X325055Y349405D01*
X325055Y334305D02*
X344145Y334305D01*
X325055Y334305D02*
X325055Y338795D01*
X344145Y338795D01*
X344145Y334305D01*
X344145Y336705D02*
X325055Y336705D01*
X417855Y334305D02*
X436945Y334305D01*
X417855Y334305D02*
X417855Y338795D01*
X436945Y338795D01*
X436945Y334305D01*
X436945Y336705D02*
X417855Y336705D01*
X417855Y347005D02*
X436945Y347005D01*
X417855Y347005D02*
X417855Y351495D01*
X436945Y351495D01*
X436945Y347005D01*
X436945Y349405D02*
X417855Y349405D01*
X417855Y359705D02*
X436945Y359705D01*
X417855Y359705D02*
X417855Y364195D01*
X436945Y364195D01*
X436945Y359705D01*
X436945Y362105D02*
X417855Y362105D01*
X417855Y372405D02*
X436945Y372405D01*
X417855Y372405D02*
X417855Y376895D01*
X436945Y376895D01*
X436945Y372405D01*
X436945Y374805D02*
X417855Y374805D01*
X417855Y385105D02*
X436945Y385105D01*
X417855Y385105D02*
X417855Y389595D01*
X436945Y389595D01*
X436945Y385105D01*
X436945Y387505D02*
X417855Y387505D01*
X417855Y397805D02*
X436945Y397805D01*
X417855Y397805D02*
X417855Y402295D01*
X436945Y402295D01*
X436945Y397805D01*
X436945Y400205D02*
X417855Y400205D01*
X417855Y410505D02*
X436945Y410505D01*
X417855Y410505D02*
X417855Y414995D01*
X436945Y414995D01*
X436945Y410505D01*
X436945Y412905D02*
X417855Y412905D01*
X417855Y423205D02*
X436945Y423205D01*
X417855Y423205D02*
X417855Y427695D01*
X436945Y427695D01*
X436945Y423205D01*
X436945Y425605D02*
X417855Y425605D01*
X417855Y435905D02*
X436945Y435905D01*
X417855Y435905D02*
X417855Y440395D01*
X436945Y440395D01*
X436945Y435905D01*
X436945Y438305D02*
X417855Y438305D01*
X417855Y448605D02*
X436945Y448605D01*
X417855Y448605D02*
X417855Y453095D01*
X436945Y453095D01*
X436945Y448605D01*
X436945Y451005D02*
X417855Y451005D01*
X417855Y461305D02*
X436945Y461305D01*
X417855Y461305D02*
X417855Y465795D01*
X436945Y465795D01*
X436945Y461305D01*
X436945Y463705D02*
X417855Y463705D01*
X417855Y474005D02*
X436945Y474005D01*
X417855Y474005D02*
X417855Y478495D01*
X436945Y478495D01*
X436945Y474005D01*
X436945Y476405D02*
X417855Y476405D01*
M02*
